<svg xmlns="http://www.w3.org/2000/svg" width="26" height="26" viewBox="0 0 26 26"><defs><style>.a{fill:#eb2843;}.b{fill:none;}</style></defs><g transform="translate(-52 -611)"><g transform="translate(52.626 611.625)"><path class="a" d="M14.253,7.3a.182.182,0,0,0-.231,0l-7.2,5.731a.192.192,0,0,0-.069.142V23.733a.092.092,0,0,0,.092.092h4.987a.092.092,0,0,0,.092-.092V17.3a.092.092,0,0,1,.092-.092h4.248a.092.092,0,0,1,.092.092v6.429a.092.092,0,0,0,.092.092h4.987a.092.092,0,0,0,.092-.092V13.171a.185.185,0,0,0-.069-.142Z" transform="translate(-1.266 -1.456)"/><path class="a" d="M22.126,10.239,13.5,3.586a1.033,1.033,0,0,0-1.251,0L8.488,6.526V4.671A.09.09,0,0,0,8.4,4.583H5.657a.09.09,0,0,0-.091.088V8.723l-1.95,1.542a.6.6,0,0,0-.055.918.648.648,0,0,0,.452.18.659.659,0,0,0,.4-.136l8.4-6.5a.084.084,0,0,1,.059-.018.114.114,0,0,1,.059.018l8.4,6.477a.659.659,0,0,0,.4.136.645.645,0,0,0,.452-.18.6.6,0,0,0,.192-.47A.618.618,0,0,0,22.126,10.239Z" transform="translate(0)"/></g><rect class="b" width="26" height="26" transform="translate(52 611)"/></g></svg>