<svg xmlns="http://www.w3.org/2000/svg" width="110" height="110" viewBox="0 0 110 110"><defs><style>.a{fill:#fff3f5;}.b{fill:#eb2843;}.c{fill:none;}</style></defs><g transform="translate(-131 -223.5)"><g transform="translate(138.782 231.282)"><path class="a" d="M47.218,0A47.218,47.218,0,1,1,0,47.218,47.218,47.218,0,0,1,47.218,0Z" transform="translate(0 0)"/><path class="a" d="M133.884,86.668a47.357,47.357,0,0,1-47.218,47.218,46.463,46.463,0,0,1-36.889-17.707,46.586,46.586,0,0,0,29.511,10.329A47.357,47.357,0,0,0,126.506,79.29a46.586,46.586,0,0,0-10.329-29.511A46.462,46.462,0,0,1,133.884,86.668Z" transform="translate(-39.448 -39.45)"/><path class="b" d="M150.232,129.7l-30.691,33.643a5.041,5.041,0,0,1-7.673,0l-12.985-14.46a5.221,5.221,0,1,1,7.673-7.083l9.148,10.329,26.855-29.216a5.175,5.175,0,0,1,7.378-.3A5.088,5.088,0,0,1,150.232,129.7Z" transform="translate(-77.34 -96.056)"/></g><rect class="c" width="110" height="110" transform="translate(131 223.5)"/></g></svg>