<svg xmlns="http://www.w3.org/2000/svg" width="28" height="28" viewBox="0 0 28 28"><defs><style>.a,.b{fill:none;}.b{stroke:#405260;stroke-linecap:round;stroke-linejoin:round;stroke-width:1.5px;}</style></defs><g transform="translate(-282 -33)"><rect class="a" width="28" height="28" transform="translate(282 33)"/><g transform="translate(285.5 37.5)"><path class="b" d="M13.592,30.8a.8.8,0,1,1-.8-.8A.8.8,0,0,1,13.592,30.8Z" transform="translate(-4.927 -13.372)"/><path class="b" d="M30.092,30.8a.8.8,0,1,1-.8-.8A.8.8,0,0,1,30.092,30.8Z" transform="translate(-12.669 -13.372)"/><path class="b" d="M1.5,1.5H4.685L6.819,12.161a1.592,1.592,0,0,0,1.592,1.282H16.15a1.592,1.592,0,0,0,1.592-1.282l1.274-6.68H5.481"/></g></g></svg>