<svg xmlns="http://www.w3.org/2000/svg" width="19.016" height="18.22" viewBox="0 0 19.016 18.22"><defs><style>.a{fill:none;stroke:#405260;stroke-linecap:round;stroke-linejoin:round;stroke-width:1.5px;}</style></defs><g transform="translate(-0.75 -0.75)"><path class="a" d="M13.592,30.8a.8.8,0,1,1-.8-.8A.8.8,0,0,1,13.592,30.8Z" transform="translate(-4.927 -13.372)"/><path class="a" d="M30.092,30.8a.8.8,0,1,1-.8-.8A.8.8,0,0,1,30.092,30.8Z" transform="translate(-12.669 -13.372)"/><path class="a" d="M1.5,1.5H4.685L6.819,12.161a1.592,1.592,0,0,0,1.592,1.282H16.15a1.592,1.592,0,0,0,1.592-1.282l1.274-6.68H5.481"/></g></svg>