<svg xmlns="http://www.w3.org/2000/svg" width="25.284" height="28.265" viewBox="0 0 25.284 28.265"><defs><style>.a{fill:#eb2843;}.b{fill:#aa1026;}.c{fill:#fcfbfb;}</style></defs><g transform="translate(-54.5 -269.978)"><path class="a" d="M5408.943,343.57H5396.69l-.479-.872V321.723l1.875-2.529h19.753l1.962,1.4.479,6.8-.829.567h-4.4v12.428l-.785.7-.872.262-1-.523-.872-2.224-.785-1.352h-.828l-.523.654-.436,1.439Z" transform="translate(-5341 -49)"/><path class="b" d="M5419.932,327.7l-5.059.218.175-7.151,1.4-1.134,1.657-.218,1.482,1.047.567,1.657V326.3Z" transform="translate(-5341 -49)"/><path class="c" d="M5402.34,326.217h-3.07l-.49-1.187.49-2.683,3.225.1v.542Z" transform="translate(-5341 -49)"/><path class="c" d="M5402.34,326.217h-3.07l-.49-1.187.49-2.683,3.225.1v.542Z" transform="translate(-5341 -42)"/><path class="c" d="M5402.34,326.217h-3.07l-.49-1.187.49-2.683,3.225.1v.542Z" transform="translate(-5341 -36)"/><g transform="translate(54.5 269.978)"><path d="M22.082,0H3.2A3.206,3.206,0,0,0,0,3.2V23.628a1.658,1.658,0,0,0,1.656,1.656h7.25a.552.552,0,0,0,0-1.1H1.656a.553.553,0,0,1-.552-.552V3.2A2.1,2.1,0,0,1,3.2,1.1H19.666a3.188,3.188,0,0,0-.786,2.1V20.993a.924.924,0,0,1-1.8.292l-.832-2.5a1.723,1.723,0,0,0-3.358.545v.43H10.029a.552.552,0,1,0,0,1.1H12.89v2.746a6.109,6.109,0,0,0,.472,2.362l.812,1.949a.552.552,0,1,0,1.019-.425l-.812-1.949a5.012,5.012,0,0,1-.388-1.937V19.333a.619.619,0,0,1,1.206-.2l.832,2.5a2.028,2.028,0,0,0,3.951-.641V11.528l.738.736a6.907,6.907,0,0,1,2.041,4.921v5.868a10.388,10.388,0,0,1-1,4.423.552.552,0,0,0,1,.473,11.5,11.5,0,0,0,1.1-4.9V17.185a8,8,0,0,0-2.365-5.7L19.984,9.968V9.44h3.644a1.658,1.658,0,0,0,1.656-1.656V3.2a3.205,3.205,0,0,0-3.2-3.2Zm2.1,7.784a.553.553,0,0,1-.552.552H19.984V3.2a2.1,2.1,0,0,1,4.2,0Zm0,0"/><path d="M195.552,438a.552.552,0,1,0,.39.162A.556.556,0,0,0,195.552,438Zm0,0" transform="translate(-184.235 -413.816)"/><path d="M58.305,55.1A1.105,1.105,0,0,0,57.2,54H54.772a1.105,1.105,0,0,0-1.1,1.1v2.429a1.105,1.105,0,0,0,1.1,1.1H57.2a1.105,1.105,0,0,0,1.1-1.1Zm-1.1,2.429H54.772V55.1H57.2v2.429Zm0,0" transform="translate(-50.705 -51.019)"/><path d="M58.305,175.1a1.105,1.105,0,0,0-1.1-1.1H54.772a1.105,1.105,0,0,0-1.1,1.1v2.429a1.105,1.105,0,0,0,1.1,1.1H57.2a1.105,1.105,0,0,0,1.1-1.1Zm-1.1,2.429H54.772V175.1H57.2v2.429Zm0,0" transform="translate(-50.705 -164.394)"/><path d="M57.2,294H54.772a1.105,1.105,0,0,0-1.1,1.1v2.429a1.105,1.105,0,0,0,1.1,1.1H57.2a1.105,1.105,0,0,0,1.1-1.1V295.1A1.105,1.105,0,0,0,57.2,294Zm0,3.533H54.772V295.1H57.2v2.429Zm0,0" transform="translate(-50.705 -277.77)"/><path d="M221.752,119.1a.552.552,0,0,0,0-1.1h-3.806a.552.552,0,1,0,0,1.1Zm0,0" transform="translate(-205.393 -111.486)"/><path d="M172.22,119.1a.552.552,0,1,0-.39-.162A.556.556,0,0,0,172.22,119.1Zm0,0" transform="translate(-162.191 -111.486)"/><path d="M172.216,239.1h6.33a.552.552,0,0,0,0-1.1h-6.33a.552.552,0,1,0,0,1.1Zm0,0" transform="translate(-162.187 -224.861)"/></g></g></svg>