<svg xmlns="http://www.w3.org/2000/svg" width="40" height="40" viewBox="0 0 40 40"><defs><style>.a{fill:#eb2843;}.b{fill:none;}</style></defs><g transform="translate(-40 -261)"><g transform="translate(1.652 -2)"><path class="a" d="M451.323,270.112v6.658l-2.839.537,4.6,4.457,5.053-4.457-3.634-.268.341-6.926Z" transform="translate(-392)"/><g transform="translate(43.348 268)"><path d="M28.783,23.262c-24.074,0-23,0-23-.008a16.28,16.28,0,0,1-.236-1.98c11.552-.06-16.07,0,21.316,0a2.679,2.679,0,0,0,2.732-2.745V6.761a2.076,2.076,0,0,0-2.069-2.073l-7.192-.012V2.838A1.855,1.855,0,0,0,18.48.985H16.744a1.855,1.855,0,0,0-1.853,1.853v1.83L7.177,4.653,6.6,1.469A1.787,1.787,0,0,0,4.839,0H.869a.869.869,0,0,0,0,1.737c4.2,0,4.009-.023,4.02.042.943,5.191.343,1.563,2.871,17.746l-2.223.012A1.747,1.747,0,0,0,3.811,21.5l.246,1.97A1.749,1.749,0,0,0,5.79,25H7.332a3.194,3.194,0,1,0,5.683,0h8.274a3.194,3.194,0,1,0,5.683,0h1.811a.869.869,0,0,0,0-1.737ZM16.629,2.837a.115.115,0,0,1,.115-.115H18.48a.116.116,0,0,1,.116.116V9.266a.869.869,0,0,0,.869.869h1.29l-2.707,2.709a.614.614,0,0,1-.87,0L14.47,10.135h1.29a.869.869,0,0,0,.869-.869V2.837ZM14.892,6.4V8.4h-1.45a1.312,1.312,0,0,0-.927,2.238l3.435,3.437a2.351,2.351,0,0,0,3.327,0l3.435-3.437A1.312,1.312,0,0,0,21.783,8.4h-1.45V6.414l7.189.012a.336.336,0,0,1,.335.335V18.532a.948.948,0,0,1-.995,1.008H9.521L7.467,6.391ZM11.631,26.457A1.457,1.457,0,1,1,10.173,25a1.459,1.459,0,0,1,1.457,1.458Zm13.957,0A1.457,1.457,0,1,1,24.131,25,1.459,1.459,0,0,1,25.588,26.457Z"/></g></g><rect class="b" width="40" height="40" transform="translate(40 261)"/></g></svg>