<svg xmlns="http://www.w3.org/2000/svg" width="21.617" height="24.705" viewBox="0 0 21.617 24.705"><defs><style>.a{fill:#eb2843;}</style></defs><path class="a" d="M0,22.389A2.317,2.317,0,0,0,2.316,24.7H19.3a2.317,2.317,0,0,0,2.316-2.316V9.264H0Zm15.44-9.457a.581.581,0,0,1,.579-.579h1.93a.581.581,0,0,1,.579.579v1.93a.581.581,0,0,1-.579.579H16.02a.581.581,0,0,1-.579-.579Zm0,6.176a.581.581,0,0,1,.579-.579h1.93a.581.581,0,0,1,.579.579v1.93a.581.581,0,0,1-.579.579H16.02a.581.581,0,0,1-.579-.579ZM9.264,12.931a.581.581,0,0,1,.579-.579h1.93a.581.581,0,0,1,.579.579v1.93a.581.581,0,0,1-.579.579H9.843a.581.581,0,0,1-.579-.579Zm0,6.176a.581.581,0,0,1,.579-.579h1.93a.581.581,0,0,1,.579.579v1.93a.581.581,0,0,1-.579.579H9.843a.581.581,0,0,1-.579-.579ZM3.088,12.931a.581.581,0,0,1,.579-.579H5.6a.581.581,0,0,1,.579.579v1.93a.581.581,0,0,1-.579.579H3.667a.581.581,0,0,1-.579-.579Zm0,6.176a.581.581,0,0,1,.579-.579H5.6a.581.581,0,0,1,.579.579v1.93a.581.581,0,0,1-.579.579H3.667a.581.581,0,0,1-.579-.579ZM19.3,3.088H16.985V.772A.774.774,0,0,0,16.213,0H14.668A.774.774,0,0,0,13.9.772V3.088H7.72V.772A.774.774,0,0,0,6.948,0H5.4a.774.774,0,0,0-.772.772V3.088H2.316A2.317,2.317,0,0,0,0,5.4V7.72H21.617V5.4A2.317,2.317,0,0,0,19.3,3.088Z"/></svg>