<svg xmlns="http://www.w3.org/2000/svg" width="21" height="21" viewBox="0 0 21 21"><defs><style>.a{fill:#eb2843;}</style></defs><path class="a" d="M11.062.562a10.5,10.5,0,1,0,10.5,10.5A10.5,10.5,0,0,0,11.062.562Zm0,4.657A1.778,1.778,0,1,1,9.284,7,1.778,1.778,0,0,1,11.062,5.22Zm2.371,10.754a.508.508,0,0,1-.508.508H9.2a.508.508,0,0,1-.508-.508V14.958A.508.508,0,0,1,9.2,14.45h.508V11.74H9.2a.508.508,0,0,1-.508-.508V10.216A.508.508,0,0,1,9.2,9.708h2.71a.508.508,0,0,1,.508.508V14.45h.508a.508.508,0,0,1,.508.508Z" transform="translate(-0.563 -0.563)"/></svg>