<svg xmlns="http://www.w3.org/2000/svg" width="26" height="26" viewBox="0 0 26 26"><defs><style>.a{fill:#405260;}.b{fill:none;}</style></defs><g transform="translate(-214 -609)"><path class="a" d="M11.063.563a10.5,10.5,0,1,0,10.5,10.5A10.5,10.5,0,0,0,11.063.563Zm0,4.657A1.778,1.778,0,1,1,9.284,7,1.778,1.778,0,0,1,11.063,5.22Zm2.371,10.754a.508.508,0,0,1-.508.508H9.2a.508.508,0,0,1-.508-.508V14.958A.508.508,0,0,1,9.2,14.45h.508V11.74H9.2a.508.508,0,0,1-.508-.508V10.216A.508.508,0,0,1,9.2,9.708h2.71a.508.508,0,0,1,.508.508V14.45h.508a.508.508,0,0,1,.508.508Z" transform="translate(216.438 611.438)"/><rect class="b" width="26" height="26" transform="translate(214 609)"/></g></svg>