<svg xmlns="http://www.w3.org/2000/svg" width="28" height="28" viewBox="0 0 28 28"><defs><style>.a{fill:none;}.b{fill:#eb2843;}</style></defs><g transform="translate(-48 -91)"><rect class="a" width="28" height="28" transform="translate(48 91)"/><path class="b" d="M11.75,8.023a3.727,3.727,0,1,0,3.727,3.727A3.726,3.726,0,0,0,11.75,8.023Zm8.33,2.8a8.381,8.381,0,0,0-7.4-7.4V1.5H10.818V3.42a8.381,8.381,0,0,0-7.4,7.4H1.5v1.864H3.42a8.381,8.381,0,0,0,7.4,7.4V22h1.864V20.08a8.381,8.381,0,0,0,7.4-7.4H22V10.818Zm-8.33,7.455a6.523,6.523,0,1,1,6.523-6.523A6.518,6.518,0,0,1,11.75,18.273Z" transform="translate(50.5 93.5)"/></g></svg>