<svg xmlns="http://www.w3.org/2000/svg" width="31.468" height="33.252" viewBox="0 0 31.468 33.252"><defs><style>.a{fill:#405260;}</style></defs><path class="a" d="M45.187,7.077a1.04,1.04,0,0,0-.645-.962L29.848.078a1.04,1.04,0,0,0-.791,0L14.364,6.114a1.04,1.04,0,0,0-.645.962v19.1a1.04,1.04,0,0,0,.645.962l14.694,6.036a1.037,1.037,0,0,0,.789,0l14.695-6.036a1.04,1.04,0,0,0,.645-.962Zm-15.734,5L24.039,9.851l11.7-5.1L41.515,7.12ZM15.8,8.716l4.671,1.919v5.414a1.04,1.04,0,0,0,2.081,0V11.49L28.413,13.9V30.659L15.8,25.478ZM29.453,2.165l3.606,1.482-11.7,5.1L17.39,7.12ZM30.493,13.9,43.106,8.716V25.478L30.493,30.659Z" transform="translate(-13.719)"/></svg>