<svg xmlns="http://www.w3.org/2000/svg" width="35" height="35" viewBox="0 0 35 35"><defs><style>.a{fill:#fff;}.b{fill:none;}</style></defs><g transform="translate(-270 -19)"><path class="a" d="M16.551,29.468a2.645,2.645,0,0,0,2.638-2.638H13.913A2.645,2.645,0,0,0,16.551,29.468Zm7.913-7.913V14.96c0-4.049-2.15-7.438-5.935-8.335v-.9a1.978,1.978,0,1,0-3.957,0v.9c-3.772.9-5.935,4.273-5.935,8.335v6.594L6,24.192v1.319H27.1V24.192Zm-2.638,1.319H11.275V14.96c0-3.271,1.991-5.935,5.275-5.935s5.275,2.664,5.275,5.935Z" transform="translate(271 20.25)"/><rect class="b" width="35" height="35" transform="translate(270 19)"/></g></svg>