<svg xmlns="http://www.w3.org/2000/svg" width="36.679" height="25.428" viewBox="0 0 36.679 25.428"><defs><style>.a{fill:#405260;}</style></defs><g transform="translate(0)"><g transform="translate(23.078 16.182)"><path class="a" d="M326.774,304.4a4.623,4.623,0,1,0,4.623,4.623A4.628,4.628,0,0,0,326.774,304.4Zm0,6.935a2.312,2.312,0,1,1,2.312-2.312A2.314,2.314,0,0,1,326.774,311.338Z" transform="translate(-322.151 -304.403)"/></g><g transform="translate(7.282 16.182)"><path class="a" d="M106.27,304.4a4.623,4.623,0,1,0,4.623,4.623A4.629,4.629,0,0,0,106.27,304.4Zm0,6.935a2.312,2.312,0,1,1,2.312-2.312A2.314,2.314,0,0,1,106.27,311.338Z" transform="translate(-101.647 -304.403)"/></g><g transform="translate(23.695 2.312)"><path class="a" d="M337.876,111.426a1.157,1.157,0,0,0-1.033-.636h-6.087V113.1h5.375l3.147,6.26,2.066-1.039Z" transform="translate(-330.756 -110.79)"/></g><g transform="translate(15.488 19.688)"><rect class="a" width="8.746" height="2.312"/></g><g transform="translate(3.275 19.688)"><path class="a" d="M50.878,353.345H46.871a1.156,1.156,0,1,0,0,2.312h4.007a1.156,1.156,0,1,0,0-2.312Z" transform="translate(-45.715 -353.345)"/></g><g transform="translate(3.275 0)"><path class="a" d="M78.876,91.143,76.6,88.215a1.154,1.154,0,0,0-.913-.447h-8.4V79.677a1.156,1.156,0,0,0-1.156-1.156H46.871a1.156,1.156,0,1,0,0,2.312H64.979v8.091a1.156,1.156,0,0,0,1.156,1.156h8.989l1.683,2.168v5.961h-3.2a1.156,1.156,0,1,0,0,2.312h4.354a1.156,1.156,0,0,0,1.156-1.156V91.852A1.158,1.158,0,0,0,78.876,91.143Z" transform="translate(-45.715 -78.521)"/></g><g transform="translate(1.888 13.832)"><path class="a" d="M32.826,271.6H27.509a1.156,1.156,0,1,0,0,2.312h5.317a1.156,1.156,0,0,0,0-2.312Z" transform="translate(-26.353 -271.597)"/></g><g transform="translate(0 9.285)"><path class="a" d="M11.019,208.134H1.156a1.156,1.156,0,0,0,0,2.312h9.863a1.156,1.156,0,0,0,0-2.312Z" transform="translate(0 -208.134)"/></g><g transform="translate(1.888 4.739)"><path class="a" d="M37.372,144.672H27.509a1.156,1.156,0,1,0,0,2.312h9.863a1.156,1.156,0,1,0,0-2.312Z" transform="translate(-26.353 -144.672)"/></g></g></svg>