<svg xmlns="http://www.w3.org/2000/svg" width="42" height="42" viewBox="0 0 42 42"><defs><style>.a,.c{fill:none;}.a,.b{stroke:#405260;stroke-miterlimit:10;stroke-width:2.126px;}.b{fill:rgba(0,0,0,0);stroke-linecap:round;stroke-linejoin:round;}</style></defs><g transform="translate(-36 -107)"><g transform="translate(46 112)"><path class="a" d="M256.278,324.019H241.959a4.262,4.262,0,0,1-4.259-4.259v-16.3a4.262,4.262,0,0,1,4.259-4.259h14.319a4.262,4.262,0,0,1,4.259,4.259v16.3A4.262,4.262,0,0,1,256.278,324.019Z" transform="translate(-237.7 -291.27)"/><path class="b" d="M247,300.443v-7.49a4.545,4.545,0,0,1,4.626-4.553h0a4.592,4.592,0,0,1,4.626,4.553v7.49" transform="translate(-240.171 -288.4)"/></g><rect class="c" width="42" height="42" transform="translate(36 107)"/></g></svg>