<svg xmlns="http://www.w3.org/2000/svg" width="26" height="26" viewBox="0 0 26 26"><defs><style>.a{fill:#eb2843;}.b{fill:none;}</style></defs><g transform="translate(-138 -610)"><g transform="translate(136 610)"><path class="a" d="M13.666,4H8.232L6.618,7.228h6.241Z" transform="translate(-0.286)"/><path class="a" d="M6,26.7H25V12H18.294v6.218a.567.567,0,0,1-.265.481.553.553,0,0,1-.544.025l-1.985-1-1.985,1.007a.553.553,0,0,1-.545-.026.567.567,0,0,1-.264-.483V12H6Z" transform="translate(0 -3.696)"/><path class="a" d="M20,17.047l1.373-.687a.538.538,0,0,1,.481,0l1.373.687V12H20Z" transform="translate(-6.114 -3.466)"/><path class="a" d="M23.206,7.228,22.4,4H21.088l-.807,3.228Z" transform="translate(-6.244)"/><path class="a" d="M33.328,7.228,31.714,4H26.28l.807,3.228Z" transform="translate(-8.661)"/></g><rect class="b" width="26" height="26" transform="translate(138 610)"/></g></svg>