<svg xmlns="http://www.w3.org/2000/svg" width="26" height="26" viewBox="0 0 26 26"><defs><style>.a{fill:#eb2843;}.b{fill:none;}</style></defs><g transform="translate(-289 -610)"><path class="a" d="M10.5.563A10.5,10.5,0,1,0,21,11.063,10.5,10.5,0,0,0,10.5.563Zm0,4.065A3.726,3.726,0,1,1,6.774,8.353,3.726,3.726,0,0,1,10.5,4.627Zm0,14.565A8.113,8.113,0,0,1,4.3,16.3a4.721,4.721,0,0,1,4.17-2.532,1.036,1.036,0,0,1,.3.047,5.606,5.606,0,0,0,1.732.292,5.584,5.584,0,0,0,1.732-.292,1.036,1.036,0,0,1,.3-.047A4.721,4.721,0,0,1,16.7,16.3,8.113,8.113,0,0,1,10.5,19.192Z" transform="translate(292 612.438)"/><rect class="b" width="26" height="26" transform="translate(289 610)"/></g></svg>