<svg xmlns="http://www.w3.org/2000/svg" width="40" height="40" viewBox="0 0 40 40"><defs><style>.a{fill:#eb2843;}.b{fill:none;}</style></defs><g transform="translate(-40 -334)"><g transform="translate(0 3)"><path class="a" d="M446,348.89l3.806-8.077,4.085,8.448,8.077.464-6.22,6.406,1.671,8.077-7.613-4.271-7.149,4.271,1.3-8.077-6.313-6.406Z" transform="translate(-390 1)"/><path d="M5.78,25.239A1.375,1.375,0,0,1,4.443,23.56L6.1,16.243.47,11.3a1.373,1.373,0,0,1,.778-2.4L8.7,8.223l2.947-6.9a1.372,1.372,0,0,1,2.524,0l2.947,6.9,7.453.677a1.374,1.374,0,0,1,.78,2.4l-5.634,4.94,1.661,7.318a1.372,1.372,0,0,1-2.042,1.483L12.912,21.2,6.484,25.044a1.376,1.376,0,0,1-.7.195Zm7.132-5.693a1.376,1.376,0,0,1,.7.195l6.066,3.628-1.568-6.907a1.372,1.372,0,0,1,.435-1.337l5.32-4.665L16.831,9.82a1.371,1.371,0,0,1-1.141-.832L12.912,2.48,10.13,8.989a1.367,1.367,0,0,1-1.137.829l-7.039.639,5.319,4.665a1.37,1.37,0,0,1,.435,1.339L6.142,23.368l6.066-3.627a1.375,1.375,0,0,1,.7-.195ZM8.646,8.357a0,0,0,0,1,0,0Zm8.53,0v0S17.177,8.355,17.176,8.354Zm0,0" transform="translate(46.999 340.761)"/><path d="M262.967,4.469a.586.586,0,0,0,.586-.586V.586a.586.586,0,1,0-1.172,0v3.3A.586.586,0,0,0,262.967,4.469Z" transform="translate(-203.274 335)"/><path d="M340.41,36.664a.586.586,0,0,0,.812-.164l1.817-2.737a.586.586,0,0,0-.976-.648l-1.817,2.737A.586.586,0,0,0,340.41,36.664Z" transform="translate(-276.484 304.073)"/><path d="M155.494,36.5a.586.586,0,0,0,.976-.648l-1.818-2.737a.586.586,0,1,0-.976.648Z" transform="translate(-100.845 304.073)"/></g><rect class="b" width="40" height="40" transform="translate(40 334)"/></g></svg>