<svg xmlns="http://www.w3.org/2000/svg" width="42" height="42" viewBox="0 0 42 42"><defs><style>.a{fill:none;}.b{fill:#eb2843;}</style></defs><g transform="translate(-305 -107)"><rect class="a" width="42" height="42" transform="translate(305 107)"/><g transform="translate(310 112)"><path class="b" d="M16.364,0A16.364,16.364,0,1,0,32.727,16.364,16.382,16.382,0,0,0,16.364,0Zm0,30.192A13.829,13.829,0,1,1,30.192,16.364,13.845,13.845,0,0,1,16.364,30.192Z"/><g transform="translate(8.443 10.344)"><path class="b" d="M147.508,162.153a1.268,1.268,0,0,0-1.79.086l-7.732,8.514-3.735-3.8a1.267,1.267,0,0,0-1.808,1.777l4.676,4.753a1.266,1.266,0,0,0,.9.379h.024a1.268,1.268,0,0,0,.914-.416l8.633-9.506A1.268,1.268,0,0,0,147.508,162.153Z" transform="translate(-132.079 -161.824)"/></g></g></g></svg>