<svg xmlns="http://www.w3.org/2000/svg" width="19" height="19" viewBox="0 0 19 19"><defs><style>.a{fill:#405260;}</style></defs><g transform="translate(-6 -4)"><path class="a" d="M14.612,4H8.448L6.618,7.661H13.7Z" transform="translate(-0.241)"/><path class="a" d="M6,26.119H25V12H18.294v5.973a.54.54,0,0,1-.265.462.573.573,0,0,1-.544.024L15.5,17.494l-1.985.968a.573.573,0,0,1-.545-.025.54.54,0,0,1-.264-.464V12H6Z" transform="translate(0 -3.119)"/><path class="a" d="M20,17.724l1.558-.779a.61.61,0,0,1,.545,0l1.558.779V12H20Z" transform="translate(-6.33 -3.686)"/><path class="a" d="M23.6,7.661,22.684,4H21.2l-.915,3.661Z" transform="translate(-6.44)"/><path class="a" d="M34.274,7.661,32.444,4H26.28L27.2,7.661Z" transform="translate(-9.651)"/></g></svg>