<svg xmlns="http://www.w3.org/2000/svg" width="35" height="35" viewBox="0 0 35 35"><defs><style>.a,.b{fill:none;}.a{stroke:#fff;stroke-linecap:round;stroke-linejoin:round;stroke-width:2px;}</style></defs><g transform="translate(-313 -19)"><g transform="translate(316.5 15.5)"><path class="a" d="M20.074,16.787A3.287,3.287,0,1,1,16.787,13.5,3.287,3.287,0,0,1,20.074,16.787Z" transform="translate(-3.234 3.766)"/><path class="a" d="M21.662,16.84a1.808,1.808,0,0,0,.362,1.994l.066.066a2.193,2.193,0,1,1-3.1,3.1l-.066-.066a1.823,1.823,0,0,0-3.09,1.293v.186a2.191,2.191,0,1,1-4.383,0v-.1a1.808,1.808,0,0,0-1.183-1.655,1.808,1.808,0,0,0-1.994.362l-.066.066a2.193,2.193,0,1,1-3.1-3.1l.066-.066a1.823,1.823,0,0,0-1.293-3.09H3.691a2.191,2.191,0,1,1,0-4.383h.1a1.808,1.808,0,0,0,1.655-1.183,1.808,1.808,0,0,0-.362-1.994l-.066-.066a2.193,2.193,0,1,1,3.1-3.1l.066.066a1.808,1.808,0,0,0,1.994.362h.088a1.808,1.808,0,0,0,1.1-1.655V3.691a2.191,2.191,0,1,1,4.383,0v.1a1.823,1.823,0,0,0,3.09,1.293l.066-.066a2.193,2.193,0,1,1,3.1,3.1l-.066.066a1.808,1.808,0,0,0-.362,1.994v.088a1.808,1.808,0,0,0,1.655,1.1h.186a2.191,2.191,0,1,1,0,4.383h-.1a1.808,1.808,0,0,0-1.655,1.1Z" transform="translate(0 7)"/></g><rect class="b" width="35" height="35" transform="translate(313 19)"/></g></svg>