<svg xmlns="http://www.w3.org/2000/svg" width="28" height="28" viewBox="0 0 28 28"><defs><style>.a,.b{fill:none;}.b{stroke:#405260;stroke-linecap:round;stroke-linejoin:round;stroke-width:1.5px;}</style></defs><g transform="translate(-312 -33)"><rect class="a" width="28" height="28" transform="translate(312 33)"/><g transform="translate(315.5 36.5)"><path class="b" d="M18.5,16A2.5,2.5,0,1,1,16,13.5,2.5,2.5,0,0,1,18.5,16Z" transform="translate(-5.334 -5.334)"/><path class="b" d="M16.831,13.165a1.375,1.375,0,0,0,.275,1.516l.05.05A1.667,1.667,0,1,1,14.8,17.09l-.05-.05a1.386,1.386,0,0,0-2.35.983v.142a1.666,1.666,0,0,1-3.333,0V18.09a1.375,1.375,0,0,0-.9-1.258,1.375,1.375,0,0,0-1.516.275l-.05.05A1.667,1.667,0,1,1,4.241,14.8l.05-.05a1.386,1.386,0,0,0-.983-2.35H3.166a1.666,1.666,0,1,1,0-3.333h.075a1.375,1.375,0,0,0,1.258-.9,1.375,1.375,0,0,0-.275-1.516l-.05-.05A1.667,1.667,0,1,1,6.533,4.241l.05.05A1.375,1.375,0,0,0,8.1,4.566h.067A1.375,1.375,0,0,0,9,3.308V3.166a1.666,1.666,0,1,1,3.333,0v.075a1.386,1.386,0,0,0,2.35.983l.05-.05A1.667,1.667,0,1,1,17.09,6.533l-.05.05A1.375,1.375,0,0,0,16.765,8.1v.067A1.375,1.375,0,0,0,18.023,9h.142a1.666,1.666,0,0,1,0,3.333H18.09a1.375,1.375,0,0,0-1.258.833Z" transform="translate(0 0)"/></g></g></svg>