<svg xmlns="http://www.w3.org/2000/svg" width="110" height="110" viewBox="0 0 110 110"><defs><style>.a{fill:#eb2843;}.b{fill:#405260;}.c{fill:none;}</style></defs><g transform="translate(-135 -231)"><g transform="translate(-1 -12.728)"><path class="a" d="M4626.257-432.447v27.82l3.849,5.074h40.942l4.549-3.5,1.4-29.394Z" transform="translate(-4463.689 687.147)"/><g transform="translate(145 252.728)"><path class="b" d="M90.709,17.211,74.106.608A2.074,2.074,0,0,0,72.638,0H8.3A8.311,8.311,0,0,0,0,8.3V83.015a8.311,8.311,0,0,0,8.3,8.3H83.015a8.311,8.311,0,0,0,8.3-8.3V18.678A2.075,2.075,0,0,0,90.709,17.211ZM20.754,4.151H66.412v24.9a4.155,4.155,0,0,1-4.151,4.151H24.9a4.155,4.155,0,0,1-4.151-4.151Zm53.96,83.015H16.6V49.809H74.714Zm12.452-4.151a4.155,4.155,0,0,1-4.151,4.151H78.865V47.734a2.074,2.074,0,0,0-2.075-2.075H14.528a2.074,2.074,0,0,0-2.075,2.075V87.166H8.3a4.155,4.155,0,0,1-4.151-4.151V8.3A4.155,4.155,0,0,1,8.3,4.151h8.3v24.9a8.311,8.311,0,0,0,8.3,8.3H62.261a8.311,8.311,0,0,0,8.3-8.3V4.151h1.216L87.166,19.538Z"/><path class="b" d="M258.075,63.42h8.3a2.074,2.074,0,0,0,2.075-2.075v-16.6a2.074,2.074,0,0,0-2.075-2.075h-8.3A2.074,2.074,0,0,0,256,44.741v16.6A2.074,2.074,0,0,0,258.075,63.42Zm2.075-16.6H264.3V59.269h-4.151Z" transform="translate(-206.191 -34.365)"/></g></g><rect class="c" width="110" height="110" transform="translate(135 231)"/></g></svg>