<svg xmlns="http://www.w3.org/2000/svg" width="110" height="110" viewBox="0 0 110 110"><defs><style>.a{fill:#eb2843;}.b,.c{fill:none;}.b{stroke:#fff;stroke-linecap:round;stroke-linejoin:round;stroke-width:3px;}</style></defs><g transform="translate(-135 -231)"><g transform="translate(12 -4)"><g transform="translate(120.939 240)"><g transform="translate(8.06 0)"><g transform="translate(0)"><circle class="a" cx="19.5" cy="19.5" r="19.5" transform="translate(29 2)"/><path d="M105.368,50.013a1.679,1.679,0,0,0-.565-.923l-8.657-7.217,7.091-7.093a1.678,1.678,0,0,0-.814-2.823L78.065,26.419a21.818,21.818,0,1,0-42.732-.361L9.369,31.96a1.678,1.678,0,0,0-.7,2.929l8.523,7.1-8.523,7.1a1.678,1.678,0,0,0,.7,2.929l8.763,1.991V90.661A1.678,1.678,0,0,0,19.439,92.3l36.923,8.392a1.743,1.743,0,0,0,.745,0L94.031,92.3a1.678,1.678,0,0,0,1.306-1.638V54.01l8.763-1.991A1.679,1.679,0,0,0,105.368,50.013ZM75.66,32.708c.191-.336.371-.671.544-1.015.086-.168.168-.336.255-.5q.321-.671.591-1.371c.023-.059.052-.114.074-.168l21.6,4.914-5.6,5.594L73.367,35.979c.067-.079.124-.168.19-.242.285-.347.564-.7.827-1.062.114-.158.223-.319.336-.48.217-.314.425-.631.623-.955C75.45,33.064,75.556,32.888,75.66,32.708ZM51.717,4.082a18.461,18.461,0,1,1-7.471,31.372,18.938,18.938,0,0,1-1.766-1.871,18.642,18.642,0,0,1-2.658-4.325A18.468,18.468,0,0,1,51.717,4.082Zm-38.293,30.4,22.8-5.183c.027.07.06.138.087.208.168.448.349.891.547,1.328.077.168.168.336.243.5.168.346.336.688.529,1.025.1.178.2.356.3.53.2.336.41.671.626,1,.1.149.193.3.3.448.324.465.663.92,1.022,1.359L20.248,40.168Zm.01,15.016,6.814-5.686,32.8,7.453-6.824,5.688ZM55.057,96.95,21.49,89.318V54.772l24.8,5.638a1.65,1.65,0,0,0,.373.042,1.678,1.678,0,0,0,1.074-.388l7.318-6.1Zm1.678-48.291-29.356-6.67,15.29-3.483a21.746,21.746,0,0,0,27.787.289L85.827,42.05ZM91.98,89.318,58.413,96.95V53.964l7.318,6.1a1.679,1.679,0,0,0,1.074.388,1.65,1.65,0,0,0,.373-.042l24.8-5.638ZM67.241,56.952l-6.824-5.688,32.8-7.453,6.822,5.686Z" transform="translate(-8.06 0)"/></g></g></g><g transform="translate(159.483 244.365)"><path class="b" d="M18,7.5v21"/><path class="b" d="M7.5,18h21"/></g></g><rect class="c" width="110" height="110" transform="translate(135 231)"/></g></svg>