<svg width="104" height="104" viewBox="0 0 104 104" fill="none" xmlns="http://www.w3.org/2000/svg">
<path d="M52 104C80.7188 104 104 80.7188 104 52C104 23.2812 80.7188 0 52 0C23.2812 0 0 23.2812 0 52C0 80.7188 23.2812 104 52 104Z" fill="url(#paint0_linear)"/>
<path d="M62.7031 40.6906C62.7076 44.05 62.5126 47.4085 62.117 50.7679C61.8817 52.7695 60.2464 54.3196 58.2339 54.446C47.6457 55.1116 37.0574 55.1116 26.4692 54.446C24.4566 54.3196 22.8214 52.7695 22.5861 50.7679C22.1906 47.4085 21.9954 44.05 22.0001 40.6906C22.0047 37.9941 22.1375 35.2976 22.4002 32.6002C22.4561 32.0242 22.5183 31.4474 22.5861 30.8706C22.8214 28.8691 24.4567 27.3189 26.4692 27.1926C37.0574 26.527 47.6457 26.527 58.2339 27.1926C60.2465 27.3189 61.8817 28.8691 62.117 30.8706C62.1847 31.4474 62.2471 32.0243 62.3029 32.6002C62.5657 35.2976 62.6985 37.9941 62.7031 40.6906Z" fill="#838383"/>
<path d="M26.5489 54.4506C26.5223 54.4496 26.4958 54.4478 26.4692 54.4459C24.4566 54.3196 22.8214 52.7694 22.5861 50.7679C22.1906 47.4084 21.9954 44.0501 22.0001 40.6907C22.0047 37.9942 22.1375 35.2977 22.4002 32.6003C22.4561 32.0243 22.5183 31.4474 22.5861 30.8706C22.8214 28.869 24.4567 27.3189 26.4692 27.1926C26.4966 27.1907 26.5232 27.1889 26.5506 27.188C25.4427 27.8701 24.6608 29.0347 24.5006 30.399C24.4292 31.0024 24.3642 31.6069 24.3056 32.2103C24.0309 35.0359 23.8917 37.8605 23.8871 40.6842C23.8816 44.2029 24.0858 47.7207 24.5006 51.2395C24.6609 52.6037 25.4419 53.7675 26.5489 54.4506Z" fill="#6B6B6B"/>
<path d="M62.7031 40.6905C49.7644 40.8562 36.8257 40.8645 23.8872 40.7125C23.2581 40.7061 22.6292 40.6988 22.0001 40.6905C22.0047 37.994 22.1375 35.2975 22.4002 32.6001C23.0238 32.5919 23.6473 32.5845 24.2709 32.5781C36.9486 32.4333 49.6253 32.4416 62.303 32.6001C62.5657 35.2975 62.6985 37.994 62.7031 40.6905Z" fill="#FAFAFA"/>
<path d="M24.2709 32.5784C24.019 35.2813 23.8918 37.9833 23.8872 40.6843V40.7127C23.2581 40.7063 22.6292 40.699 22.0001 40.6907C22.0047 37.9942 22.1375 35.2977 22.4002 32.6003C23.0238 32.5921 23.6473 32.5848 24.2709 32.5784Z" fill="#EBEBEB"/>
<path d="M25.9769 47.6448C25.4767 47.6448 25.0715 47.2394 25.0715 46.7394V43.6783C25.0715 43.1783 25.4768 42.7729 25.9769 42.7729C26.4769 42.7729 26.8823 43.1783 26.8823 43.6783V46.7394C26.8823 47.2393 26.4769 47.6448 25.9769 47.6448Z" fill="#EBEBEB"/>
<path d="M28.384 47.6448C27.8839 47.6448 27.4786 47.2394 27.4786 46.7394V43.6783C27.4786 43.1783 27.884 42.7729 28.384 42.7729C28.8841 42.7729 29.2894 43.1783 29.2894 43.6783V46.7394C29.2894 47.2393 28.8841 47.6448 28.384 47.6448Z" fill="#EBEBEB"/>
<path d="M30.7913 47.6448C30.2911 47.6448 29.8859 47.2394 29.8859 46.7394V43.6783C29.8859 43.1783 30.2912 42.7729 30.7913 42.7729C31.2914 42.7729 31.6967 43.1783 31.6967 43.6783V46.7394C31.6967 47.2393 31.2914 47.6448 30.7913 47.6448Z" fill="#EBEBEB"/>
<path d="M34.6134 47.6448C34.1132 47.6448 33.708 47.2394 33.708 46.7394V43.6783C33.708 43.1783 34.1133 42.7729 34.6134 42.7729C35.1135 42.7729 35.5188 43.1783 35.5188 43.6783V46.7394C35.5188 47.2393 35.1134 47.6448 34.6134 47.6448Z" fill="#EBEBEB"/>
<path d="M37.0205 47.6448C36.5204 47.6448 36.1151 47.2394 36.1151 46.7394V43.6783C36.1151 43.1783 36.5205 42.7729 37.0205 42.7729C37.5207 42.7729 37.9259 43.1783 37.9259 43.6783V46.7394C37.9259 47.2393 37.5207 47.6448 37.0205 47.6448Z" fill="#EBEBEB"/>
<path d="M39.4277 47.6448C38.9275 47.6448 38.5223 47.2394 38.5223 46.7394V43.6783C38.5223 43.1783 38.9276 42.7729 39.4277 42.7729C39.9277 42.7729 40.3331 43.1783 40.3331 43.6783V46.7394C40.3332 47.2393 39.9278 47.6448 39.4277 47.6448Z" fill="#EBEBEB"/>
<path d="M43.2496 47.6448C42.7495 47.6448 42.3442 47.2394 42.3442 46.7394V43.6783C42.3442 43.1783 42.7496 42.7729 43.2496 42.7729C43.7498 42.7729 44.155 43.1783 44.155 43.6783V46.7394C44.155 47.2393 43.7498 47.6448 43.2496 47.6448Z" fill="#EBEBEB"/>
<path d="M45.657 47.6448C45.1569 47.6448 44.7516 47.2394 44.7516 46.7394V43.6783C44.7516 43.1783 45.157 42.7729 45.657 42.7729C46.1572 42.7729 46.5624 43.1783 46.5624 43.6783V46.7394C46.5625 47.2393 46.1572 47.6448 45.657 47.6448Z" fill="#EBEBEB"/>
<path d="M48.0642 47.6448C47.564 47.6448 47.1588 47.2394 47.1588 46.7394V43.6783C47.1588 43.1783 47.5641 42.7729 48.0642 42.7729C48.5642 42.7729 48.9695 43.1783 48.9695 43.6783V46.7394C48.9697 47.2393 48.5643 47.6448 48.0642 47.6448Z" fill="#EBEBEB"/>
<path d="M36.5595 51.5751C50.564 50.7064 64.5685 50.7064 78.573 51.5751C79.8428 51.6539 80.889 52.608 81.0784 53.8661C82.3073 62.0321 82.3073 70.1982 81.0784 78.3642C80.889 79.6223 79.8428 80.5764 78.573 80.6552C64.5685 81.5239 50.564 81.5239 36.5595 80.6552C35.2897 80.5764 34.2435 79.6223 34.0542 78.3642C32.8252 70.1981 32.8252 62.0321 34.0542 53.8661C34.2435 52.608 35.2897 51.6539 36.5595 51.5751Z" fill="#9EA09F"/>
<path d="M41.5946 77.6533C41.5946 75.1187 39.5398 73.0639 37.0052 73.0639C36.8237 73.0639 36.6453 73.0756 36.4694 73.096C36.0582 68.4496 36.0582 63.7803 36.4694 59.1338C36.6453 59.1542 36.8237 59.166 37.0052 59.166C39.5398 59.166 41.5946 57.1112 41.5946 54.5765C41.5946 54.4936 41.5921 54.4111 41.5878 54.3292C46.9128 54.0763 52.2679 53.9468 57.5662 53.9468C62.6832 53.9468 67.8532 54.066 72.9979 54.302C72.9925 54.3929 72.989 54.4843 72.989 54.5765C72.989 57.1112 75.0438 59.166 77.5784 59.166C77.9492 59.166 78.3093 59.1208 78.6546 59.0378C79.0773 63.748 79.0773 68.4819 78.6546 73.192C78.3093 73.1089 77.9492 73.0638 77.5784 73.0638C75.0438 73.0638 72.989 75.1186 72.989 77.6532C72.989 77.7455 72.9925 77.8369 72.9979 77.9278C67.8534 78.1638 62.6832 78.283 57.5662 78.283C52.2678 78.283 46.9128 78.1535 41.5878 77.9006C41.5921 77.8188 41.5946 77.7364 41.5946 77.6533Z" fill="#B1B1B1"/>
<path d="M57.5663 74.7905C62.874 74.7905 67.1767 70.9064 67.1767 66.1151C67.1767 61.3238 62.874 57.4397 57.5663 57.4397C52.2586 57.4397 47.9559 61.3238 47.9559 66.1151C47.9559 70.9064 52.2586 74.7905 57.5663 74.7905Z" fill="#9EA09F"/>
<path d="M42.8287 68.4871C44.1388 68.4871 45.2009 67.425 45.2009 66.1149C45.2009 64.8048 44.1388 63.7427 42.8287 63.7427C41.5185 63.7427 40.4564 64.8048 40.4564 66.1149C40.4564 67.425 41.5185 68.4871 42.8287 68.4871Z" fill="#9EA09F"/>
<path d="M72.304 68.4871C73.6142 68.4871 74.6762 67.425 74.6762 66.1149C74.6762 64.8048 73.6142 63.7427 72.304 63.7427C70.9939 63.7427 69.9318 64.8048 69.9318 66.1149C69.9318 67.425 70.9939 68.4871 72.304 68.4871Z" fill="#9EA09F"/>
<path d="M58.8699 65.1979C57.906 64.9173 56.8385 64.5775 56.2305 64.1847C56.0189 64.048 56.0057 63.8318 56.0319 63.6745C56.0818 63.3766 56.3312 63.0096 56.8827 62.8727C58.1308 62.5633 58.9541 63.0914 59.0439 63.1526C59.457 63.4343 60.0203 63.3276 60.302 62.9147C60.5837 62.5016 60.4772 61.9384 60.0641 61.6566C59.9038 61.5473 59.3076 61.1769 58.4076 61.0285V60.7408C58.4076 60.2408 58.0022 59.8354 57.5022 59.8354C57.0021 59.8354 56.5968 60.2408 56.5968 60.7408V61.0807C56.5471 61.0915 56.4973 61.1027 56.4468 61.1151C55.291 61.4019 54.4272 62.2897 54.2458 63.3768C54.0897 64.3133 54.4738 65.2057 55.248 65.7058C55.896 66.1244 56.7986 66.4809 58.3637 66.9367C59.0943 67.1494 59.472 67.5672 59.3998 68.0833C59.3138 68.6994 58.6176 69.3575 57.4973 69.3636C56.4321 69.3702 56.075 69.3222 55.2482 68.8769C54.8082 68.6397 54.2588 68.8043 54.0217 69.2447C53.7845 69.6849 53.9491 70.2341 54.3895 70.4713C55.2543 70.9372 55.8628 71.1005 56.5968 71.1527V71.4901C56.5968 71.9901 57.0021 72.3955 57.5022 72.3955C58.0022 72.3955 58.4076 71.9901 58.4076 71.4901V71.0809C60.035 70.7417 61.026 69.5297 61.1932 68.3341C61.3456 67.2437 60.8285 65.7682 58.8699 65.1979Z" fill="#B1B1B1"/>
<defs>
<linearGradient id="paint0_linear" x1="52" y1="0" x2="52" y2="104" gradientUnits="userSpaceOnUse">
<stop stop-color="#ED0A2A" stop-opacity="0"/>
<stop offset="1" stop-color="#8D8D8D" stop-opacity="0.1"/>
</linearGradient>
</defs>
</svg>
