<svg xmlns="http://www.w3.org/2000/svg" width="126" height="126" viewBox="0 0 126 126"><defs><style>.a{fill:#f8e8e6;}.b{fill:#eb2843;}.c{fill:none;}</style></defs><g transform="translate(-114 -212)"><g transform="translate(123 221)"><path class="a" d="M54,0A54,54,0,1,1,0,54,54,54,0,0,1,54,0Z" transform="translate(0 0)"/><path class="a" d="M145.964,91.966a54.159,54.159,0,0,1-54,54,53.137,53.137,0,0,1-42.187-20.25,53.277,53.277,0,0,0,33.75,11.813,54.159,54.159,0,0,0,54-54,53.277,53.277,0,0,0-11.813-33.75A53.135,53.135,0,0,1,145.964,91.966Z" transform="translate(-37.965 -37.966)"/><path class="b" d="M157.794,130.918l-35.1,38.475a5.766,5.766,0,0,1-8.775,0l-14.85-16.537a5.971,5.971,0,1,1,8.775-8.1l10.463,11.813,30.712-33.412a5.919,5.919,0,0,1,8.438-.337A5.819,5.819,0,0,1,157.794,130.918Z" transform="translate(-74.431 -92.443)"/></g><rect class="c" width="126" height="126" transform="translate(114 212)"/></g></svg>