<svg xmlns="http://www.w3.org/2000/svg" width="33.75" height="38" viewBox="0 0 33.75 38"><g transform="translate(-94.04 -73.143)"><path d="M9496.811-3855.514l6.227,5.978-1.619,9.714,8.843-4.982,7.722,4.982-1.246-9.714,6.352-5.978-8.842-1.744-3.985-8.219-4.857,8.842Z" transform="translate(-9398.96 3950.143)" fill="#eb2843"/><path d="M144.766,181.5l-8.71-1.252-3.919-7.893a1.089,1.089,0,0,0-1.96,0l-3.919,7.893-8.71,1.252a1.089,1.089,0,0,0-.871.762,1.143,1.143,0,0,0,.272,1.089l6.314,6.151-1.47,8.655a1.143,1.143,0,0,0,.435,1.089,1.089,1.089,0,0,0,1.143.109l7.784-4.137,7.784,4.137.49.109a.871.871,0,0,0,.653-.218,1.143,1.143,0,0,0,.435-1.089l-1.47-8.655,6.314-6.151a1.143,1.143,0,0,0,.272-1.089A1.089,1.089,0,0,0,144.766,181.5Zm-7.675,6.859a1.143,1.143,0,0,0-.272.925l1.2,7.077-6.369-3.321a1.144,1.144,0,0,0-.98,0l-6.369,3.321,1.2-7.077a1.143,1.143,0,0,0-.272-.925l-5.171-5.008,7.131-1.034a1.143,1.143,0,0,0,.817-.6l3.157-6.423,3.157,6.423a1.143,1.143,0,0,0,.817.6l7.131,1.034Z" transform="translate(-20.242 -88.32)"/><path d="M246.64,80.764a1.089,1.089,0,0,0,1.089-1.089V74.232a1.089,1.089,0,1,0-2.177,0v5.443A1.089,1.089,0,0,0,246.64,80.764Z" transform="translate(-135.725)"/><path d="M370.722,126.65a1.089,1.089,0,0,0-1.524.218h0l-3.266,4.355a1.089,1.089,0,0,0,.218,1.524,1.035,1.035,0,0,0,.653.218,1.143,1.143,0,0,0,.871-.436l3.266-4.355a1.089,1.089,0,0,0-.218-1.524Z" transform="translate(-243.367 -47.737)"/><path d="M98.4,132.964a1.035,1.035,0,0,0,.653-.218,1.089,1.089,0,0,0,.218-1.524L96,126.868a1.089,1.089,0,1,0-1.742,1.306l3.266,4.355A1.143,1.143,0,0,0,98.4,132.964Z" transform="translate(0 -47.737)"/></g></svg>