<svg width="32" height="32" viewBox="0 0 32 32" fill="none" xmlns="http://www.w3.org/2000/svg">
<g clip-path="url(#clip0)">
<path d="M19.8783 3.43612C19.4174 3.49718 19.0338 3.58337 18.6116 3.72344C16.5567 4.41661 14.8783 6.18005 14.0655 8.49658C13.9072 8.94911 13.784 9.35496 13.7559 9.53812C13.7102 9.82904 13.7172 9.82545 13.2457 9.82545C13.0135 9.82545 12.8235 9.83263 12.8235 9.83981C12.8235 9.85059 12.8727 10.0086 12.9361 10.1918C13.0487 10.5186 13.0487 10.5402 13.0522 11.1723C13.0522 11.808 13.0487 11.8259 12.9361 12.1815C12.6968 12.9321 12.2112 13.5822 11.5884 13.9952C11.2717 14.2035 11.2929 14.1676 11.3632 14.3903C11.4618 14.6848 11.4477 15.0799 11.3351 15.3313C11.2225 15.5863 10.9797 15.852 10.7439 15.9849C10.5082 16.1142 10.0402 16.1537 9.77633 16.0603C9.68484 16.028 9.60391 16.0065 9.60039 16.0136C9.58984 16.0244 9.79744 18.1937 9.8854 19.0018C9.93818 19.5046 10.3323 23.5163 10.3921 24.2275C10.4801 25.1936 10.5751 26.0268 10.6278 26.2387C10.839 27.1115 11.2682 27.9986 11.6975 28.4583C11.8875 28.663 12.2253 28.8821 12.4294 28.936C12.6335 28.9862 25.2196 29.0257 27.271 28.9791L28.5729 28.9503L28.8016 28.8354C29.3927 28.5373 29.9451 27.6753 30.29 26.5153C30.3885 26.1884 30.4237 25.9694 30.4835 25.3408C30.5257 24.917 30.582 24.3424 30.6101 24.0658C30.6594 23.6061 30.7579 22.6005 30.8389 21.7529C30.8565 21.5626 30.9444 20.6898 31.0359 19.8099C31.24 17.8022 31.24 17.7986 31.2083 17.7986C31.1837 17.7986 30.4096 18.3517 29.924 18.7145C29.6249 18.9371 29.0479 19.3574 28.3054 19.8889C28.024 20.09 27.4575 20.5031 27.0458 20.8083C26.6306 21.11 26.2682 21.3686 26.2365 21.383C26.2048 21.3938 26.1626 21.4225 26.1415 21.4476C26.1098 21.4835 25.6418 21.8283 24.3118 22.7909C24.1183 22.9309 23.7629 23.1895 23.5201 23.3655C23.2773 23.5415 23.0345 23.7175 22.9747 23.7606C22.9184 23.8001 22.7425 23.9294 22.5877 24.0479C22.4328 24.1664 22.2886 24.2634 22.264 24.2634C22.2428 24.2634 22.2182 24.2777 22.2112 24.2921C22.2077 24.3065 22.0423 24.4358 21.8488 24.5794C21.6552 24.7195 21.4652 24.8632 21.4265 24.8955C21.3245 24.9781 21.131 25.0751 20.9691 25.1253C20.86 25.1577 20.7896 25.1577 20.677 25.1289C20.5469 25.093 19.9944 24.7303 19.4033 24.2957C19.2977 24.2167 19.1464 24.1089 19.069 24.0515C18.9916 23.9976 18.7066 23.7893 18.4357 23.5954C17.7883 23.1249 17.7108 23.0674 16.9614 22.5287C16.613 22.2773 16.2928 22.0438 16.2541 22.0151C16.2154 21.9864 16.0254 21.8499 15.8319 21.7098C15.6384 21.5697 15.473 21.4476 15.4624 21.4333C15.4519 21.4189 15.4061 21.3866 15.3569 21.3578C15.3076 21.3327 15.0437 21.1459 14.7657 20.9448C13.7242 20.1942 13.6679 20.1331 13.6679 19.7883C13.6679 19.6195 13.689 19.5764 13.9529 19.1778C14.4913 18.3733 14.537 18.323 14.7657 18.244C14.9945 18.1686 15.1774 18.2188 15.4765 18.4415C15.5997 18.5313 15.7861 18.6678 15.8882 18.7432C15.9937 18.815 16.2999 19.0377 16.5708 19.2352C16.8417 19.4328 17.176 19.6734 17.3097 19.7704C17.4469 19.8638 17.8481 20.1547 18.207 20.4133C19.0761 21.0418 18.96 20.9556 19.9311 21.6595C20.4061 22.0043 20.8108 22.288 20.8319 22.288C20.8635 22.288 21.5673 21.7924 22.2358 21.304C22.2745 21.2752 22.4399 21.1531 22.6053 21.0346C22.7706 20.9161 22.9853 20.7581 23.0838 20.6826C23.1858 20.6072 23.2949 20.5246 23.3301 20.4995C23.4814 20.3953 24.4912 19.6662 24.5264 19.6339C24.5651 19.6016 25.4378 18.9695 25.5715 18.8761C25.6137 18.8474 25.7368 18.7612 25.8424 18.6786C25.9515 18.5995 26.0641 18.5169 26.0957 18.499C26.1767 18.4487 27.2358 17.6693 27.4469 17.5077C27.5454 17.4287 27.6369 17.3677 27.651 17.3677C27.6651 17.3677 27.6932 17.3497 27.7178 17.3281C27.7425 17.3066 28.0943 17.048 28.499 16.7571C28.9071 16.4626 29.2555 16.2076 29.2731 16.1896C29.2942 16.1717 29.3575 16.1286 29.4138 16.0891C29.4736 16.0532 29.537 16.0101 29.5546 15.9921C29.7762 15.8161 30.019 15.6437 30.0577 15.6437C30.0788 15.6437 30.0999 15.6294 30.0999 15.615C30.0999 15.6006 30.2583 15.4749 30.4553 15.3384C30.6524 15.1984 30.8283 15.0691 30.8494 15.0511C30.874 15.0296 31.0324 14.911 31.2013 14.7853C31.3737 14.6596 31.525 14.5232 31.5426 14.4801C31.5567 14.437 31.5954 14.1137 31.627 13.7582C31.6587 13.4026 31.708 12.8998 31.7361 12.6448C31.803 12.0558 32 10.0158 32 9.90805V9.82545L29.7059 9.81826L27.4082 9.80749L27.3343 9.46629C27.0739 8.3206 26.5426 7.15694 25.853 6.23033C24.5124 4.42738 22.5278 3.37866 20.5117 3.40021C20.3006 3.4038 20.0155 3.41817 19.8783 3.43612ZM21.145 4.8009C22.3449 4.94815 23.3512 5.47611 24.2836 6.453C24.6425 6.83011 24.8326 7.07075 25.0753 7.45863C25.4765 8.09433 25.9444 9.20052 26.0043 9.66024L26.0289 9.82545L20.5609 9.81826L15.093 9.80749L15.1035 9.68897C15.1106 9.56686 15.3182 8.90243 15.4167 8.67975C15.7615 7.88961 15.9375 7.57356 16.3386 7.02406C16.5884 6.68286 17.0282 6.21237 17.2851 6.01124C17.3942 5.92505 17.5068 5.83885 17.5279 5.81371C17.7531 5.59822 18.5518 5.17442 19.069 4.99484C19.6355 4.79731 20.48 4.7183 21.145 4.8009ZM16.7291 12.2569C16.8699 12.3539 16.9367 12.4509 16.979 12.6053C17.0317 12.8064 16.993 13.1799 16.9051 13.3272C16.7678 13.557 16.7362 13.5606 15.3217 13.5606C14.0796 13.5606 14.0444 13.557 13.9107 13.4816C13.7102 13.3667 13.6574 13.2266 13.675 12.8244C13.6855 12.5083 13.6926 12.4796 13.7911 12.3754C13.8509 12.3108 13.9283 12.2461 13.967 12.2318C14.0057 12.2138 14.625 12.1994 15.3393 12.1994C16.511 12.1959 16.6517 12.203 16.7291 12.2569ZM27.2147 12.2749C27.3871 12.397 27.461 12.5658 27.461 12.8423C27.461 13.1297 27.4258 13.2697 27.3167 13.3882C27.1584 13.5606 27.1513 13.5606 25.7791 13.5606C24.4877 13.5606 24.4807 13.5606 24.3611 13.478C24.1851 13.3595 24.1183 13.1979 24.1183 12.8782C24.1183 12.5586 24.1851 12.397 24.3611 12.2785C24.4807 12.1959 24.4877 12.1959 25.7896 12.1959C27.088 12.1959 27.0986 12.1959 27.2147 12.2749Z" fill="#ED0A2A"/>
<rect y="16.1998" width="8" height="1.6" rx="0.8" fill="#292929"/>
<rect x="1.60001" y="20.9998" width="6.4" height="1.6" rx="0.8" fill="#292929"/>
<rect x="1.60001" y="11.3998" width="8" height="1.6" rx="0.8" fill="#292929"/>
</g>
<defs>
<clipPath id="clip0">
<rect width="32" height="32" fill="white"/>
</clipPath>
</defs>
</svg>
