<svg xmlns="http://www.w3.org/2000/svg" width="356.192" height="344.738" viewBox="0 0 356.192 344.738"><g transform="translate(-5694.305 5953.844)"><g transform="matrix(0.899, -0.438, 0.438, 0.899, 5235.763, -5674.568)"><path d="M650.43,143.425l-8.25,39.95-5.306-5.177-9.037,6.441-6.9-8.569-15.487,11.258L592.221,165.2l-14.761,8.644-5.851-8.071-18.742,10.56-5.639-12.071,13.136-63.627L630.8,115.175Z" transform="translate(-2.203)" fill="#ebebeb"/><path d="M643.4,117.5l19.636,28.246-24.427-5.043Z" transform="translate(-14.812 -2.328)" fill="#dbdbdb"/><path d="M638.222,202.822l-12.1,58.613-94.861-19.58,12.008-58.147,5.639,12.071,18.742-10.56,5.851,8.071,14.761-8.644,13.226,22.128,15.487-11.258,6.9,8.569,9.037-6.441Z" transform="translate(0 -11.462)" fill="#ebebeb"/></g><rect width="8" height="117" transform="translate(5769 -5866)" fill="#405260"/><rect width="8" height="117" transform="translate(5770 -5728)" fill="#405260"/><g transform="matrix(0.966, 0.259, -0.259, 0.966, 5615.477, -5990.768)"><path d="M465.3,159.7l-82.011,5.075L376.774,59.5l60.893-3.768,22.359,18.753Z" fill="#ebebeb"/><path d="M460.045,55.734,482.4,74.487l-21.118,1.307Z" transform="translate(-22.379)" fill="#dbdbdb"/><g transform="translate(404.345 80.945)"><path d="M425.065,135.831l-.317-2.374c-.827-4.922.521-10.426,4.8-16.186,3.855-5.092,5.948-8.8,5.717-12.925-.262-4.679-3.371-7.632-9.155-7.4a16.326,16.326,0,0,0-9.1,3.362l-2.525-5.656c2.9-2.371,8.05-4.131,12.91-4.4,10.548-.591,15.682,5.654,16.072,12.624.349,6.238-2.884,10.926-6.994,16.4-3.768,5-5.01,9.113-4.473,13.775l.225,2.38Zm-1.3,12.954a5.431,5.431,0,0,1,5.18-6.086c3.21-.18,5.545,2.082,5.735,5.476a5.47,5.47,0,1,1-10.914.611Z" transform="translate(-414.478 -90.211)" fill="#dbdbdb"/></g></g><g transform="translate(-914 -495)"><path d="M7166.279-5281.227l10.118-3.913s10.894-28.4,38.82-28.9a33.357,33.357,0,0,1,9.519,1.205c21.037,5.688,30.246,31.61,30.246,31.61h7.918s-.836-16.151-15.682-30.317-43.663-17.4-61.313-1.428S7166.279-5281.227,7166.279-5281.227Z" transform="translate(-379 -7.542)" fill="#ee0a2a" stroke="#212121" stroke-width="1"/><path d="M7167.027-5285.14h9.412s10.942-28.4,39-28.9,40.7,28.9,40.7,28.9h7.954s-1.591-12.238-16.5-26.4-43.86-17.4-61.589-1.428S7167.027-5285.14,7167.027-5285.14Z" transform="translate(-407 -7.542)" fill="#ee0a2a" stroke="#212121" stroke-width="1"/><path d="M6924.308-5244.623s-6.027,9.094-15.877,8.765-23.522-10.081-23.522-10.081l-5.209,8.037s17.3,12.419,28.731,14a17.492,17.492,0,0,0,17-7.673Z" transform="matrix(0.875, -0.485, 0.485, 0.875, 3230.657, 2689.085)" fill="#ee0a2a" stroke="#212121" stroke-width="1"/><path d="M7193.73-5153.65l-.747,15.355h14.023v-15.355Z" transform="translate(-415 -7)" fill="#ee0a2a" stroke="#070707" stroke-width="1"/><path d="M7206.258-5153.65l.747,15.355h-14.023v-15.355Z" transform="translate(-366 -7)" fill="#ee0a2a" stroke="#070707" stroke-width="1"/><path d="M7061.789-5118.762l9.182,84.246s.868,6.026,4.693,9.6,10.608,4.708,10.608,4.708a364.286,364.286,0,0,0,47.353,2.853c23.2-.392,43.029-3.645,45.446-4.42,5.036-1.615,18.369-5.3,22.926-43.292s10.5-83.044,10.5-83.044l-6.882,2.946-8.272-6.461-119-2.589s1.321,7.651-.1,13.325c-.993,3.979-4.569,6.11-5.924,6.881-3.059,1.74-4.423,2.351-4.423,2.351s.61,4.661.61,6.9S7067.514-5121,7061.789-5118.762Z" transform="translate(-320 -142)" fill="#c0000f" stroke="#212121" stroke-width="1"/><path d="M7061.789-5118.762l8.237,84.246s.779,6.026,4.21,9.6,9.516,4.708,9.516,4.708a293.73,293.73,0,0,0,42.479,2.853c20.812-.392,41.223-2.077,43.391-2.853,8.987-1.476,12.775-1.77,17.943-44.86s10.2-87.361,10.2-87.361l-118.717-2.954s-1.225,8.818-2.5,14.492c-.891,3.979-4.1,6.11-5.314,6.881-2.744,1.74-3.968,2.351-3.968,2.351s.548,4.661.548,6.9S7066.925-5121,7061.789-5118.762Z" transform="translate(-321 -141)" fill="#ee0a2a" stroke="#212121" stroke-width="1"/><path d="M7206.726-5148.175" transform="translate(-414 3)" fill="#fff" stroke="#000" stroke-width="1"/><path d="M7194.247-5148.478s-2.794.013-2.468,1.737,1.366,2,1.366,2v13l16.519-.409-.241-12.593a1.611,1.611,0,0,0,1.33-1.12,1.656,1.656,0,0,0-1.089-2.113C7208.676-5148.415,7194.247-5148.478,7194.247-5148.478Z" transform="translate(-416 -4)" fill="#fff" stroke="#212121" stroke-width="1"/><path d="M7194.247-5148.478s-2.794.013-2.468,1.737,1.366,2,1.366,2v13l16.519-.409-.241-12.593a1.611,1.611,0,0,0,1.33-1.12,1.656,1.656,0,0,0-1.089-2.113C7208.676-5148.415,7194.247-5148.478,7194.247-5148.478Z" transform="translate(-367 -4)" fill="#fff" stroke="#212121" stroke-width="1"/><path d="M7152.673-5123.868s-2.608,2.755-2.157,5.04.52,2.687,1.569,3.206,6.637,1.814,13.04,1.951a162.9,162.9,0,0,0,17.9-.451c4.255-.46,16.413-1.275,19.55-2.451s5.109-1.176,5.755-2.157a5.961,5.961,0,0,0,.715-2.549v-1.706l-.715-1.167Z" transform="translate(-414 -2)" fill="#fff" stroke="#000" stroke-width="1"/><path d="M7206.84-5123.868s2.608,2.755,2.157,5.04-.52,2.687-1.569,3.206-6.637,1.814-13.04,1.951a162.9,162.9,0,0,1-17.9-.451c-4.255-.46-16.413-1.275-19.55-2.451s-5.109-1.176-5.755-2.157a5.961,5.961,0,0,1-.715-2.549v-1.706l.715-1.167Z" transform="translate(-324 -1)" fill="#fff" stroke="#000" stroke-width="1"/><path d="M7191.552-5143.667s-1.124.2-1.365,1.932a15.2,15.2,0,0,1-.451,2.352s-1.245-.42-1.513.326-.6,1.223-1.312-.326-.594-2.294-2.2-2.562-2.494.33-3.182.209-7.042-6.359-11.206-7.881-9.59-2.767-13.191-.8-9.532,5.7-10.277,12.6.32,12.191,2.851,15.557,3.29,4.347,7.516,4.793a214.179,214.179,0,0,0,23.384,0c6.368-.4,11.541-.714,14.071-1.16s12.054-2.589,13.183-3.57,2.231-2,2.111-3.155a5.861,5.861,0,0,0-1.5-3.467c-1.013-1.129,0-1.575,0-1.575a26.639,26.639,0,0,1,2.83-3.9c1.16-1.133,2.3-1.789,1.423-2.293s-4.855-.151-6.466,0-.808.991-3.187-.531-3.691-2.8-5.98-2.95-4.311-2.647-4.877-3.151S7191.552-5143.667,7191.552-5143.667Z" transform="translate(-414 -1)" fill="#212121"/><path d="M7168.1-5143.667s1.124.2,1.365,1.932a15.2,15.2,0,0,0,.451,2.352s1.245-.42,1.513.326.6,1.223,1.312-.326.594-2.294,2.2-2.562,2.494.33,3.182.209,7.042-6.359,11.206-7.881,9.59-2.767,13.191-.8,9.532,5.7,10.277,12.6-.32,12.191-2.851,15.557-3.29,4.347-7.516,4.793a214.179,214.179,0,0,1-23.384,0c-6.368-.4-11.541-.714-14.071-1.16s-12.054-2.589-13.183-3.57-2.231-2-2.111-3.155a5.861,5.861,0,0,1,1.5-3.467c1.013-1.129,0-1.575,0-1.575a26.639,26.639,0,0,0-2.83-3.9c-1.16-1.133-2.3-1.789-1.423-2.293s4.855-.151,6.466,0,.808.991,3.187-.531,3.691-2.8,5.98-2.95,4.311-2.647,4.877-3.151S7168.1-5143.667,7168.1-5143.667Z" transform="translate(-324)" fill="#212121"/><path d="M7184.094-5132.167s-1.795,3.508.3,3.965,2.52-.409,2.792-1.3a4.734,4.734,0,0,1,.464-1.16s.638.438-.464,2.785-5.875.464-4.873-2.164S7184.094-5132.167,7184.094-5132.167Z" transform="translate(-419 -4)" fill="#fff"/><path d="M7183.713-5132.174s-1.438,2.812.24,3.178,2.019-.328,2.237-1.039a3.758,3.758,0,0,1,.373-.93s.511.351-.373,2.232-4.708.372-3.905-1.734S7183.713-5132.174,7183.713-5132.174Z" transform="matrix(0.899, -0.438, 0.438, 0.899, 2563.802, 2628.07)" fill="#fff"/><path d="M7181.155-5141.9a11.279,11.279,0,0,1,3.481,0,4.941,4.941,0,0,1,2.321,2.866c.389,1.276,1.479,4.369.777,6.805a12.262,12.262,0,0,1-1.665,3.713,1.263,1.263,0,0,1-1.433,0,1.8,1.8,0,0,1-.928-2.164,7.932,7.932,0,0,0,.928-4.8c-.423-2.129-.772-3.638-1.856-4.566A8.131,8.131,0,0,1,7181.155-5141.9Z" transform="translate(-419 -4)" fill="#fff" stroke="#212121" stroke-width="1"/><path d="M7181.155-5141.927a9.134,9.134,0,0,1,2.82,0,4,4,0,0,1,1.881,2.323c.315,1.034,1.2,3.54.629,5.514a9.937,9.937,0,0,1-1.349,3.009,1.024,1.024,0,0,1-1.161,0,1.46,1.46,0,0,1-.752-1.754,6.427,6.427,0,0,0,.752-3.888c-.343-1.726-.625-2.948-1.5-3.7A6.591,6.591,0,0,1,7181.155-5141.927Z" transform="translate(-411.868 -0.711)" fill="#fff" stroke="#212121" stroke-width="1"/><path d="M7191.851-5136.951l-.861-.834s1.5-2.3,3.613-2.48a12.471,12.471,0,0,1,6.573.861c2.2,1.04,6.19,7.657,4.878,9.8a4.84,4.84,0,0,1-5.561,2.232,5.913,5.913,0,0,1-4.6-3.419c-1.134-2.115-3.1-6.159-3.1-6.159l1.995-.33a27.222,27.222,0,0,0,2.275,4.2c1.008,1.313,2.173,3.981,4.105,3.775s3.022-.144,2.755-1.991-2.723-6.385-6.547-6.814-3.329,0-4.967.83Z" transform="translate(-417 -3)" fill="#fff" stroke="#212121" stroke-width="1"/><path d="M7185.915-5132.167s1.795,3.508-.3,3.965-2.52-.409-2.792-1.3a4.734,4.734,0,0,0-.464-1.16s-.638.438.464,2.785,5.875.464,4.873-2.164S7185.915-5132.167,7185.915-5132.167Z" transform="translate(-328.54 -3)" fill="#fff"/><path d="M1.538,4.3S.1,1.485,1.778,1.119,3.8,1.447,4.016,2.158a3.758,3.758,0,0,0,.373.93S4.9,2.737,4.016.856-.692.484.11,2.59,1.538,4.3,1.538,4.3Z" transform="matrix(-0.899, -0.438, 0.438, -0.899, 6851.284, -5128.294)" fill="#fff"/><path d="M7187.964-5141.9a11.279,11.279,0,0,0-3.481,0,4.941,4.941,0,0,0-2.321,2.866c-.389,1.276-1.479,4.369-.777,6.805a12.262,12.262,0,0,0,1.665,3.713,1.263,1.263,0,0,0,1.433,0,1.8,1.8,0,0,0,.928-2.164,7.932,7.932,0,0,1-.928-4.8c.423-2.129.772-3.638,1.856-4.566A8.131,8.131,0,0,0,7187.964-5141.9Z" transform="translate(-327.65 -3)" fill="#fff" stroke="#212121" stroke-width="1"/><path d="M7186.673-5141.928a9.134,9.134,0,0,0-2.82,0,4,4,0,0,0-1.881,2.323c-.315,1.034-1.2,3.54-.629,5.514a9.937,9.937,0,0,0,1.349,3.009,1.024,1.024,0,0,0,1.161,0,1.46,1.46,0,0,0,.752-1.754,6.427,6.427,0,0,1-.752-3.888c.343-1.726.625-2.948,1.5-3.7A6.591,6.591,0,0,0,7186.673-5141.928Z" transform="translate(-333.491 0.289)" fill="#fff" stroke="#212121" stroke-width="1"/><path d="M7205.454-5136.951l.861-.834s-1.5-2.3-3.613-2.48a12.471,12.471,0,0,0-6.573.861c-2.2,1.04-6.19,7.657-4.878,9.8a4.84,4.84,0,0,0,5.561,2.232,5.913,5.913,0,0,0,4.6-3.419c1.134-2.115,3.1-6.159,3.1-6.159l-1.995-.33a27.222,27.222,0,0,1-2.275,4.2c-1.008,1.313-2.173,3.981-4.105,3.775s-3.022-.144-2.755-1.991,2.723-6.385,6.547-6.814,3.329,0,4.967.83Z" transform="translate(-357.835 -2)" fill="#fff" stroke="#212121" stroke-width="1"/><path d="M6883.947-5227.606s2.783-6.673,12.75-6.375,23.522,10.081,23.522,10.081l5.209-8.037s-15.19-9.836-26.831-11.432-23.469,6.059-23.469,6.059Z" transform="translate(-1610.594 -6853.37) rotate(48)" fill="#ee0a2a" stroke="#212121" stroke-width="1"/><path d="M6885.631-5287.307s-5.432,61.213-11.346,91.167-16.157,31.172-17.753,32.469" fill="none" stroke="#212121" stroke-width="1"/><g transform="matrix(0.999, 0.052, -0.052, 0.999, 6452.393, -5585.905)"><circle cx="9.433" cy="9.433" r="9.433" transform="translate(320.298 313.08)" fill="#313131"/><circle cx="9.433" cy="9.433" r="9.433" transform="translate(394.867 313.08)" fill="#313131"/><path d="M391.4,336.234l-.517-.988c-.048-.089-4.92-9.1-14.726-9.1-8.942,0-11.122,8.481-11.211,8.842l-.265,1.081-2.163-.523.26-1.081c.025-.106,2.657-10.548,13.378-10.548,11.177,0,16.48,9.871,16.7,10.291l.518.987Z" transform="translate(-10.317 7.203)" fill="#313131"/></g></g><g transform="translate(5990.745 -5726.271) rotate(45)"><path d="M3117.584,365.305a7.711,7.711,0,0,1,2.59,4.23c.284,1.328.347,2.585,1.778,3.172,3.652,1.5,4.767-5.81,3.138-6.311Z" transform="translate(-3085.461 -348.568)" fill="#fff"/><g transform="translate(32.564 17.31)"><path d="M3125.63,359.967a3.808,3.808,0,0,1,1.4,2.543c.084.4.154.838.242,1.284a4,4,0,0,0,1.229,2.473c2.09,1.494,3.3-.969,3.378-1.195a3.156,3.156,0,0,0,.235-1.117c.01-.226.5-.185.341.321-.06.661-.561,2.945-2.654,3.009a3.625,3.625,0,0,1-1.363-.419,3.4,3.4,0,0,1-1.591-2.227c-.076-.242-.136-.48-.191-.709-.108-.459-.192-.887-.285-1.271-.046-.192-.094-.372-.146-.539a2.544,2.544,0,0,0-1.041-1.67C3124.426,359.728,3125.63,359.967,3125.63,359.967Z" transform="translate(-3124.935 -359.929)" fill="#405260"/></g><path d="M2593.957,477.552c.656-2.306,1.72-4.777,1.948-7.151.037-.385.021-.763.037-1.148.008-.2.087-.569.071-.757,1.083-2.444-2.421-4.124-4.411-3.5-3.733,1.179-5.776,6.579-6.528,9.927a8.747,8.747,0,0,0,1.207,6.544,2.685,2.685,0,0,0,3.328,1.31c.029-.012-.044-.016-.017-.038C2591.895,482.306,2593.377,479.59,2593.957,477.552Z" transform="translate(-2584.775 -464.608)" fill="#fff"/><path d="M2680.8,449.58c-1.307-1.4-.726-4.642-.306-6.277.65-2.534.873-5.02,2.217-7.232,1.473-2.425,2.607-2.532,6.428-2.941,2.913-.312,8.555.946,11.175,2.259,4.489,2.249,5.258,7.3,2.017,11.183-3.342,4-10.542,6.628-16.379,5.363-1.366-.3-4.923-1.629-5.288-2.626Z" transform="translate(-2674.174 -431.985)" fill="#fff"/><path d="M2969.63,422.468c5.88-.146,11.207,3.7,13.316,4.766,1.74.881,5.616,2.035,5.788-1.491.283-5.809-6.849-8.963-9.969-11.333-2.573-1.955-7.353-4.858-10.637-3.814Z" transform="translate(-2944.989 -406.511)" fill="#fff"/><g transform="translate(6.781 0.988)"><path d="M2717.633,422.51s.58-.4.808-.337a17.3,17.3,0,0,1,1.945.619,24.333,24.333,0,0,1,2.87,1.323c.536.289,1.1.609,1.68.967.146.088,1.639,1.035,1.8,1.12a9.692,9.692,0,0,0,2.116.8,3.962,3.962,0,0,0,2.364.139c2.5-.7,1.54-3.728,1.406-4.159a6.08,6.08,0,0,0-1.187-2.135c-.577-.743-10.057-8.176-11.738-9.159a36.373,36.373,0,0,0-5.124-2.514c-.216-.083-2.161-.733-2.589-.858-.857-.253-1.7-.486-2.527-.678a38.313,38.313,0,0,0-4.733-.568,15.322,15.322,0,0,0-3.98.606A9.184,9.184,0,0,0,2697.95,409a6.165,6.165,0,0,0-.86.754,7.611,7.611,0,0,0-1.168,1.863,6.872,6.872,0,0,1,1.075-1.949,6.3,6.3,0,0,1,.874-.776,9.329,9.329,0,0,1,2.828-1.363,15.484,15.484,0,0,1,4.02-.638,38.7,38.7,0,0,1,4.784.543c.834.189,1.682.417,2.543.666.431.123,2.4.766,2.613.848a36.636,36.636,0,0,1,5.176,2.5c1.7.977,11.337,8.332,11.939,9.1a7.231,7.231,0,0,1,1.5,3.712,4.641,4.641,0,0,1-.057,1.411,2.142,2.142,0,0,1-1.261,1.662,2.93,2.93,0,0,1-1.947.407,7.716,7.716,0,0,1-2.419-.667,9.762,9.762,0,0,1-1.066-.469c-.17-.088-1.687-1.038-1.832-1.123-.576-.351-1.133-.663-1.663-.943a23.848,23.848,0,0,0-2.82-1.279,16.806,16.806,0,0,0-1.9-.59C2718.1,422.608,2717.633,422.51,2717.633,422.51Z" transform="translate(-2695.922 -406.89)" fill="#405260"/></g><g transform="translate(0 0)"><path d="M2591.066,461.356a5.13,5.13,0,0,0-2.984,1.063,10.676,10.676,0,0,0-3.01,3.745,18.206,18.206,0,0,0-1.643,4.729,11.426,11.426,0,0,0,.509,7.181l0,.006a3.525,3.525,0,0,0,2.871,1.833,2.963,2.963,0,0,0,2.647-1.061.27.27,0,1,0-.432-.326,2.428,2.428,0,0,1-2.172.848,2.988,2.988,0,0,1-2.435-1.544,10.891,10.891,0,0,1-.461-6.827c.521-2.648,2-6.367,4.444-8.148.509-.379,3.282-2.034,5.414.424.1.113.579-.148.481-.26A4.58,4.58,0,0,0,2591.066,461.356Z" transform="translate(-2583.097 -461.356)" fill="#405260"/></g><path d="M2607.978,485.947c-.1-1.489-.3-2.892-.316-4.372-.006-.722.127-2.342-1-1.991a1.067,1.067,0,0,0-.51.348c-1.057.665-1.235,3.53-1.266,4.4-.05,1.4.362,4.645,1.938,5.273C2608.538,490.29,2608.032,486.751,2607.978,485.947Z" transform="translate(-2603.568 -472.216)" fill="#f7f7f7"/><path d="M2671.6,206.871c-1.639.566-.678,5.34-.064,6.393a11.156,11.156,0,0,0,5.882,4.878c2.946,1.024,6.031,1.417,8.952,2.695a7.7,7.7,0,0,1,3.315,2.18c.646.817,1.041,2.033,1.963,2.527,1.9,1.018,3.31-1.09,3.647-2.9a9.213,9.213,0,0,0-.929-5.458,18.53,18.53,0,0,0-3.533-4.377c-.534-.572-2.26-1.948-2.711-2.6-.3-.433.989-.205.748-.654-.089-.165-.647-1.259-.343-.689Z" transform="translate(-2665.423 -191.947)" fill="#fff"/><path d="M2920.148,478.658c-2.123-.008-10.579.434-12.577,1.521-1.926,1.048-6.453.669-8.459,1.228l1.965-7.517c.78-1.57,5.285-2.217,6.79-2.5a34.652,34.652,0,0,1,6.489-.465,17.811,17.811,0,0,1,6.534.986c1.415.64,4.223,1.427,4.76,3.565C2926.358,478.292,2921.427,478.663,2920.148,478.658Z" transform="translate(-2880.119 -463.413)" fill="#fff"/><g transform="translate(5.18 15.197)"><path d="M2688.973,208.411c.588.569,1.219,1.2,1.869,1.908.162.177.89,1.039.964,1.142.3.415.6.85.88,1.311a15.093,15.093,0,0,1,.8,1.46,10.915,10.915,0,0,1,.622,1.627,8.118,8.118,0,0,1,.31,1.789,5.519,5.519,0,0,1-.184,1.882c-.1.311-.942,2.77-2.962,2.767a2.263,2.263,0,0,1-1.837-.821,7.576,7.576,0,0,0-4.071-4.05,24,24,0,0,0-3.822-1.379l-1.927-.542c-.159-.046-1.568-.467-1.875-.564-.614-.193-2.778-.9-3.314-1.169a14.769,14.769,0,0,1-1.677-1.069,8.889,8.889,0,0,1-1.258-1.081,7.909,7.909,0,0,1-1.6-2.49,6.391,6.391,0,0,1-.4-1.232,8.222,8.222,0,0,1-.163-1.14c-.027-.358-.039-.691-.04-1s0-.585.007-.834c.011-.481.029-.849.044-1.1a1.6,1.6,0,0,1,.046-.4c.015-.013.029.095.038.329s.007.595,0,1.083c0,.269-.007.562,0,.876s.021.65.053,1a8.178,8.178,0,0,0,.176,1.109,5.88,5.88,0,0,0,.394,1.167,8.284,8.284,0,0,0,.628,1.19,7.511,7.511,0,0,0,.89,1.132,8.083,8.083,0,0,0,1.159,1,10.85,10.85,0,0,0,1.392.837,27.03,27.03,0,0,0,5.049,1.774c.605.167,5.584,1.677,5.663,1.709a14.2,14.2,0,0,1,1.854.924,7.922,7.922,0,0,1,3.354,3.649,1.924,1.924,0,0,0,2.28.223,3.317,3.317,0,0,0,.666-.588,6.289,6.289,0,0,0,.9-4.211,9.306,9.306,0,0,0-.481-1.68,16.032,16.032,0,0,0-1.566-2.944,25.232,25.232,0,0,0-2.852-3.319,27.6,27.6,0,0,0-3.091-2.792,6.827,6.827,0,0,0-.89-.571c-.2-.1-.294-.122-.279-.137a.727.727,0,0,1,.377.091A17.51,17.51,0,0,1,2688.973,208.411Z" transform="translate(-2669.282 -203.426)" fill="#405260"/></g><g transform="translate(22.635 7.068)"><path d="M2960.261,468.77l-.544-.544a15.536,15.536,0,0,1,1.95-1.08,19.222,19.222,0,0,1,2.337-.694,22.538,22.538,0,0,1,3.109-.514c.145-.012,3.518-.143,3.68-.151,6.638-.463,7.731-.8,8.441-.983a8.089,8.089,0,0,0,1.944-.815c.92-.407,1-.917,1.053-1.067a2.733,2.733,0,0,0-.69-2.383,4.685,4.685,0,0,0-.813-.7,7.125,7.125,0,0,0-.943-.545,12.411,12.411,0,0,0-2.044-.754c-.7-.195-1.4-.346-2.093-.469a38.146,38.146,0,0,0-4.051-.468c-1.3-.086-4.771-.129-5.289-.123l-2.3.034c-.053,0-1.888-.151-2.034-.169s-1.6-.151-1.6-.151c-.67-.052-.661-.219.012-.175,0,0,3.575.275,3.627.275l2.3-.062c.519-.012,4.007-.012,5.312.059a38.5,38.5,0,0,1,4.093.422c.706.116,1.42.261,2.135.451a12.8,12.8,0,0,1,2.121.753,7.55,7.55,0,0,1,1.007.565,5.132,5.132,0,0,1,.9.761,4.486,4.486,0,0,1,.714,1.152,2,2,0,0,1-.217,2.253,3.34,3.34,0,0,1-.94.777,7.47,7.47,0,0,1-1.061.494c-.181.064-1,.325-1.092.351-.731.2-1.465.353-2.191.48-.182.03-1.979.293-2.157.312-1.419.168-2.794.278-4.1.359-.163.01-3.516.181-3.654.194a21.858,21.858,0,0,0-3,.535,18.524,18.524,0,0,0-2.239.694A12.875,12.875,0,0,0,2960.261,468.77Z" transform="translate(-2959.717 -457.008)" fill="#405260"/></g><path d="M2977.483,239.393c-.077.4-.464,1.491-.889,1.662a.611.611,0,0,1-.412.025l.024.042c-.8-.008-.807-.928-1.112-1.455a6.2,6.2,0,0,0-1.6-1.569c-1.541-1.338-.547-3.167,1.458-2.413C2976.423,236.237,2977.808,237.722,2977.483,239.393Z" transform="translate(-2949.326 -208.979)" fill="#f7f7f7"/><path d="M3159.347,522.391c-.312,1.244-2.286,1.31-3.277,1.362l-.173.009c-.959.186-2.053.241-2.76.374a3.66,3.66,0,0,1-2.252,0c-.781-.4-.988-1.193-.273-1.73.685-.515,2-.3,2.8-.407a21.511,21.511,0,0,0,2.387-.43C3156.578,521.378,3159.868,520.313,3159.347,522.391Z" transform="translate(-3116.092 -509.348)" fill="#f7f7f7"/></g><g transform="translate(5699.385 -5984.86) rotate(1)"><path d="M141.427,165.87H12.009A11.986,11.986,0,0,1,1.655,147.837L66.363,36.976a11.989,11.989,0,0,1,20.709,0l64.709,110.861A11.986,11.986,0,0,1,141.427,165.87Z" transform="translate(0 -0.007)" fill="#cf0622"/><path d="M98.969,65.879,34.261,176.74a1.809,1.809,0,0,0,1.566,2.727H165.244a1.809,1.809,0,0,0,1.566-2.727L102.1,65.879A1.809,1.809,0,0,0,98.969,65.879Z" transform="translate(-23.817 -23.78)" fill="#ee0a2a"/><g transform="translate(71.168 82.984)"><path d="M243.064,358.131a5.4,5.4,0,1,1,0,10.8,5.482,5.482,0,0,1-5.582-5.363A5.583,5.583,0,0,1,243.064,358.131Z" transform="translate(-237.482 -312.066)" fill="#e4eaf8"/><path d="M243.823,242.092c-3.1,0-5.258-1.5-5.258-3.646V208.134c0-1.8,2.113-3.717,5.258-3.717,2.835,0,5.323,1.737,5.323,3.717v30.312C249.145,240.558,246.907,242.092,243.823,242.092Z" transform="translate(-238.24 -204.417)" fill="#e4eaf8"/></g><path d="M7.831,147.831,72.54,36.969a11.865,11.865,0,0,1,7.267-5.55,11.959,11.959,0,0,0-13.442,5.55L1.656,147.831a11.986,11.986,0,0,0,10.354,18.033h6.175A11.986,11.986,0,0,1,7.831,147.831Z" transform="translate(-0.001)" fill="#e1363f"/><path d="M40.435,176.74,103.622,68.486,102.1,65.879a1.809,1.809,0,0,0-3.132,0L34.26,176.74a1.809,1.809,0,0,0,1.566,2.727H42A1.809,1.809,0,0,1,40.435,176.74Z" transform="translate(-23.817 -23.78)" fill="#b7161f"/><g transform="translate(71.168 82.984)"><path d="M243.658,363.565a5.444,5.444,0,0,1,2.477-4.485,5.484,5.484,0,0,0-3.069-.95,5.584,5.584,0,0,0-5.582,5.434,5.564,5.564,0,0,0,8.63,4.44A5.308,5.308,0,0,1,243.658,363.565Z" transform="translate(-237.483 -312.066)" fill="#d8dce5"/><path d="M244.74,238.446V208.134a3.641,3.641,0,0,1,2.161-2.985,6.772,6.772,0,0,0-3.078-.732c-3.145,0-5.258,1.922-5.258,3.717v30.312c0,2.147,2.162,3.646,5.258,3.646a7.387,7.387,0,0,0,3.086-.62A3.362,3.362,0,0,1,244.74,238.446Z" transform="translate(-238.241 -204.417)" fill="#d8dce5"/></g></g><g transform="translate(5745.755 -5710.45) rotate(-72)"><path d="M2829.507,1182.461c.251-4.669,2.043-7.378,6.369-9.5,4.252-2.089,6.391-1.281,10.2,1.12,1.094-5.388,7.972-6.895,12.258-4.55,4.889,2.675,6.736,9,7.031,14.369l-1.21,15.242a8.9,8.9,0,0,1-.474,7.261,7.264,7.264,0,0,1,3.807,2.129c.056.02,0-.091.04-.059,2.048,1.637,2.038,3.864,1.013,6.052a15.008,15.008,0,0,1-8.557,7.556c-5.588,1.852-15.334,3.617-20.366-.83a5.043,5.043,0,0,1-1.723-5.726,15.323,15.323,0,0,1-2.08-1.366c-3.347-2.588-4.4-5.167-6.257-8.5-1.12-2.009-1.889-1.417-3.81-2.277-1.815-.812-2.527-1.762-3.636-3.575C2818.581,1194.031,2819.729,1179.493,2829.507,1182.461Z" transform="translate(-2819.811 -1167.886)" fill="#fbfbfb"/><path d="M2842.64,1576.838c-2.1,1.464-3.986,3-6.151,4.327-1.056.647-3.556,1.882-2.04,3.237a1.836,1.836,0,0,0,.963.442c1.912.968,6.282-1.3,7.59-2.026,2.11-1.168,6.511-4.636,6.042-7.509C2848.532,1572.177,2843.775,1576.047,2842.64,1576.838Z" transform="translate(-2801.085 -1531.707)" fill="#f7f7f7"/><g transform="translate(17.328 38.968)"><path d="M2825.924,1558.527q.774,0,1.578-.051a31.216,31.216,0,0,0,8.406-1.763c4.474-1.524,8.257-4.176,10.111-7.092l.006-.009a6.417,6.417,0,0,0,.272-6.117,4.532,4.532,0,0,0-3.551-2.643.464.464,0,1,0-.1.923,3.625,3.625,0,0,1,2.818,2.133,5.481,5.481,0,0,1-.233,5.22c-1.746,2.742-5.346,5.25-9.633,6.71-4.355,1.573-11.128,2.688-15.909.664-1.008-.414-5.435-3.233-4.505-6.868.063-.248-.672-.543-.74-.3-.972,3.53,1.748,6.73,4.888,8.021A17.057,17.057,0,0,0,2825.924,1558.527Z" transform="translate(-2814.247 -1540.85)" fill="#405260"/></g><rect width="8" height="6" transform="matrix(0.309, 0.951, -0.951, 0.309, 28.938, 16.09)" fill="#405260"/><g transform="translate(26.505 24.484)"><path d="M2966.334,1411.147c-.019-.266-.245-2.138-.276-2.763a10.325,10.325,0,0,1,.084-2.051,8.077,8.077,0,0,1,2.382-4.046,5.949,5.949,0,0,1,1.957-1.161,14.119,14.119,0,0,1,2.985-.726c.546-.089.614.1.071.206a10.93,10.93,0,0,0-2.733.993,8.709,8.709,0,0,0-1.669,1.112,6.645,6.645,0,0,0-1.391,1.644,7.428,7.428,0,0,0-.79,1.911,11.645,11.645,0,0,0-.331,1.979c-.055.633-.083,2.634-.074,2.924C2966.565,1411.737,2966.37,1411.7,2966.334,1411.147Z" transform="translate(-2966.043 -1400.375)" fill="#405260"/></g><g transform="translate(8.745 36.056)"><path d="M2998.342,1512.648l1.319-.042s-.225.883,1.213,3.935c.307.569.848,2.017,4.165,5.558a13.546,13.546,0,0,0,2.075,1.521,14.059,14.059,0,0,0,9.28,1.875c3.728-.438,4.052-1.406,4.052-1.406.3-.236.167.253.125.289s.131.986-4.131,1.575c-4.963.685-6.343-.309-7.2-.572a13.291,13.291,0,0,1-2.521-1.056,14.43,14.43,0,0,1-2.268-1.541,21.5,21.5,0,0,1-4.584-5.672C2998.2,1513.713,2998.342,1512.648,2998.342,1512.648Z" transform="translate(-2998.338 -1512.607)" fill="#405260"/></g><g transform="translate(24.978 0)"><path d="M2885.989,1172.755l-1.408.019c-.481-2.062-.642-2.657-.634-2.634-2.271-5.391-5.2-5.8-5.645-5.966a9.853,9.853,0,0,0-7.125.62,6.782,6.782,0,0,0-1.163.854,7.234,7.234,0,0,0-.944,1.059,9.172,9.172,0,0,0-.732,1.18c-.214.4-.4.815-.564,1.223a11.648,11.648,0,0,0-.636,2.372,32.725,32.725,0,0,0-.482,3.71,6.712,6.712,0,0,0,.006,1.029c.029.673-.247.72-.288.42a12.67,12.67,0,0,1-.063-1.462,33.133,33.133,0,0,1,.373-3.771c.057-.388.121-.79.2-1.209.02-.1.151-.6.169-.654.071-.208.144-.418.223-.63.158-.424.336-.858.548-1.289a9.761,9.761,0,0,1,.741-1.279,7.888,7.888,0,0,1,.992-1.183,7.449,7.449,0,0,1,1.254-.981,8.907,8.907,0,0,1,3.012-1.141,11.65,11.65,0,0,1,6.23.843c.909.485,4.324,2.482,5.863,8.49Z" transform="translate(-2866.309 -1162.919)" fill="#405260"/></g><g transform="translate(9.591 3.501)"><path d="M3059.894,1198.952l-.71,1.268s-.759-1.216-4.186-2.032a8.429,8.429,0,0,0-3.207.094,9.12,9.12,0,0,0-3.5,1.651,9.316,9.316,0,0,0-2.878,3.19,10.58,10.58,0,0,0-.884,2.133,13.844,13.844,0,0,0-.492,2.343,15.174,15.174,0,0,0,.13,4.9c.1.613.521,2.216.578,2.415a21.415,21.415,0,0,0,.855,2.32s1.024,2.1,1.075,2.187a12.018,12.018,0,0,0,2.634,3.556,7.141,7.141,0,0,0,4.018,1.643,4.724,4.724,0,0,0,1.84-.351,6.134,6.134,0,0,0,2.576-2.038,6.037,6.037,0,0,0,.937-2.393,8.637,8.637,0,0,0,.1-1.679c-.012-.195-.055-.79-.052-.861l.006.025c0-.024.257-.059.257-.059.019.071.086.68.1.881a8.977,8.977,0,0,1-.072,1.748,6.412,6.412,0,0,1-.949,2.558,5.221,5.221,0,0,1-1.295,1.419,4.349,4.349,0,0,1-3.452,1.248,6.861,6.861,0,0,1-5.176-2.488c-.265-.3-1.146-1.492-1.383-1.828a37.669,37.669,0,0,1-2.748-5.656c-.064-.2-.648-2.5-.648-2.5l-.2-1.281c-.026-.215-.122-2.371-.12-2.586s.092-1.285.092-1.285a14.705,14.705,0,0,1,.478-2.5,11.568,11.568,0,0,1,.919-2.338,10.365,10.365,0,0,1,3.127-3.6,9.8,9.8,0,0,1,7.517-2.075,10.929,10.929,0,0,1,2.881.791A6.649,6.649,0,0,1,3059.894,1198.952Z" transform="translate(-3043.05 -1196.878)" fill="#405260"/></g><g transform="translate(0 13.584)"><path d="M3161.711,1295.331l-.553,1.2a12.742,12.742,0,0,0-1.589-.516,4.386,4.386,0,0,0-3.049.254,9.517,9.517,0,0,0-1.152.6,7,7,0,0,0-2.416,3.863,11.284,11.284,0,0,0-.34,1.741,13.767,13.767,0,0,0-.088,1.852c.008.631.054,1.272.125,1.918.141,1.293.386,2.608.637,3.924.016.081.489,1.7.556,1.846a9.568,9.568,0,0,0,.921,1.685,8.788,8.788,0,0,0,2.683,2.568,6.694,6.694,0,0,0,1.623.713,5.89,5.89,0,0,0,1.675.227,5.824,5.824,0,0,0,2.959-.865,5.325,5.325,0,0,0,1.82-1.884,6.96,6.96,0,0,0,.74-1.921,9.71,9.71,0,0,0,.208-1.325c.027-.31.033-.476.033-.476.014-.294.083-.442.159-.443s.149.151.142.453c0,0,0,.17-.022.489a9.927,9.927,0,0,1-.183,1.375,7.312,7.312,0,0,1-.732,2.041,5.751,5.751,0,0,1-1.917,2.079,6.411,6.411,0,0,1-1.47.7,6.176,6.176,0,0,1-1.723.31,6.451,6.451,0,0,1-1.841-.205,7.3,7.3,0,0,1-1.784-.734,9.448,9.448,0,0,1-2.954-2.7,10.284,10.284,0,0,1-1.036-1.792,24.769,24.769,0,0,1-1.392-5.967c-.09-.667-.154-1.336-.178-2a14.782,14.782,0,0,1,.048-1.981,12.224,12.224,0,0,1,.327-1.908,7.153,7.153,0,0,1,2.538-4.548c.225-.165,1.7-1.624,5.3-1.153A15.252,15.252,0,0,1,3161.711,1295.331Z" transform="translate(-3151.559 -1294.662)" fill="#405260"/></g><path d="M3069.426,1219.51a1.7,1.7,0,0,1,2.652-.041,1.968,1.968,0,0,1,.169.187c.591.717.833,1.707.4,2.086a3.1,3.1,0,0,1-.157.5c-.4.968-.928,1.819-1.252,2.832-.266.83-.626,1.629-1.658,1.674C3067.03,1226.857,3068.363,1220.613,3069.426,1219.51Z" transform="translate(-3049.018 -1213.083)" fill="#f7f7f7"/><path d="M3210.134,1313.458c.906-1.383,2.629-.56,2.965.86a6.743,6.743,0,0,1,.133,1.926c.217,1.979-.2,4.226-1.287,4.493-1.63.4-2.148-2.638-2.28-3.6A5.255,5.255,0,0,1,3210.134,1313.458Z" transform="translate(-3204.021 -1297.298)" fill="#f7f7f7"/><g transform="translate(21.663 8.098)"><path d="M2796.834,1251.089c1.854-.671,4.01-.889,5.97-1.661,2.235-.88,5.454-3.658,7.916-3.726,4.52-.125,10,3.53,11.938,7.491,3.02,6.161,1.178,26.836-12.945,26.914l1.093-19.586c-3.448,1.267-11.056,2.724-14.209.106C2793.188,1257.795,2792.052,1252.819,2796.834,1251.089Z" transform="translate(-2793.41 -1245.261)" fill="#fbfbfb"/><path d="M2805.456,1257.453c-.379.1-.8.2-1.266.3s-.97.2-1.515.288a23.806,23.806,0,0,1-3.728.333,10.6,10.6,0,0,1-4.456-.827,4.969,4.969,0,0,1-1.064-.695,9.02,9.02,0,0,1-.937-.9,8.516,8.516,0,0,1-1.5-2.259,6.514,6.514,0,0,1-.443-1.358,5.253,5.253,0,0,1,1.213-4.214,5.585,5.585,0,0,1,2.821-1.428,31.258,31.258,0,0,0,5.887-1.79c.913-.479,1.809-1.065,2.74-1.623.465-.28,2.7-1.406,2.976-1.5a4.55,4.55,0,0,1,1.736-.328,9.737,9.737,0,0,1,1.71.134,13.229,13.229,0,0,1,3.465,1.117,16.75,16.75,0,0,1,3.074,1.892,12.63,12.63,0,0,1,4.316,5.613,16.276,16.276,0,0,1,.686,3.389,26.164,26.164,0,0,1,.119,3.339,30.044,30.044,0,0,1-.828,6.264,24.78,24.78,0,0,1-1.969,5.392,16.418,16.418,0,0,1-2.9,4.079,12.118,12.118,0,0,1-3.34,2.411,11.223,11.223,0,0,1-5.455,1.1c-.023-.025.158-.055.547-.084a10.848,10.848,0,0,0,3.965-.868c.132-.048.659-.287.79-.358a11.651,11.651,0,0,0,3.179-2.363,15.752,15.752,0,0,0,2.693-3.861,23.318,23.318,0,0,0,1.819-5.042,28.238,28.238,0,0,0,.266-12.084,10.658,10.658,0,0,0-.485-1.514,8.528,8.528,0,0,0-.751-1.4,13.1,13.1,0,0,0-2.141-2.474,16.146,16.146,0,0,0-2.7-1.978,14.335,14.335,0,0,0-3.079-1.365,9.866,9.866,0,0,0-3.069-.461,4.7,4.7,0,0,0-1.455.307,11.6,11.6,0,0,0-1.434.644c-.943.492-1.856,1.069-2.793,1.623-.469.277-.945.549-1.444.8a21.351,21.351,0,0,1-4.665,1.374,23.691,23.691,0,0,0-2.857.93c-2.382,1.1-2.084,4.19-1.971,4.627a7.852,7.852,0,0,0,2.955,4.212,10.463,10.463,0,0,0,4.442,1.187,19.247,19.247,0,0,0,2.088-.034c.662-.044,1.286-.115,1.87-.2a28.33,28.33,0,0,0,2.986-.592c.795-.205,1.373-.375,1.75-.482s.554-.15.542-.116A9.022,9.022,0,0,1,2805.456,1257.453Z" transform="translate(-2790.486 -1241.455)" fill="#405260"/></g><path d="M2844.047,1273.37c1.166-.772,2.649-.35,4.051.138,1.292.45,6.94,2.908,5.152,5.133-1.907,2.372-5.093-.179-7.061-.471-1.206-.179-2.435-.01-3.168-1.25A2.736,2.736,0,0,1,2844.047,1273.37Z" transform="translate(-2806.505 -1261.6)" fill="#f7f7f7"/></g><g transform="translate(5882.459 -6027.863) rotate(39)"><path d="M135.073,126.259,127.879,123l-1,2.2a1.878,1.878,0,0,1-1.64,1.093,10.913,10.913,0,0,0-1.176.115,1.876,1.876,0,0,1-1.816-.752l-1.409-1.965-6.424,4.6,1.408,1.965a1.877,1.877,0,0,1,.128,1.962,11,11,0,0,0-.488,1.076,1.876,1.876,0,0,1-1.561,1.2l-2.407.236.776,7.861,2.415-.24a1.881,1.881,0,0,1,1.763.88c.1.163.213.323.326.482s.23.313.351.463a1.874,1.874,0,0,1,.268,1.944l-1,2.219,7.194,3.263,1-2.208a1.877,1.877,0,0,1,1.642-1.091,11.148,11.148,0,0,0,1.171-.113,1.875,1.875,0,0,1,1.815.752l1.409,1.966,6.424-4.6-1.409-1.967a1.878,1.878,0,0,1-.129-1.96,10.927,10.927,0,0,0,.484-1.073,1.878,1.878,0,0,1,1.561-1.2l2.412-.239-.776-7.861-2.413.238a1.875,1.875,0,0,1-1.757-.879q-.158-.245-.33-.485t-.351-.464a1.88,1.88,0,0,1-.268-1.953Zm-4.081,7.273a6.471,6.471,0,1,1-9.029-1.5A6.466,6.466,0,0,1,130.992,133.532Z" transform="translate(0 -11.904)" fill="#ebebeb"/><path d="M167.721,90.8l-4.4,3.361,1.03,1.346a1.316,1.316,0,0,1,.132,1.374,7.659,7.659,0,0,0-.319.764,1.314,1.314,0,0,1-1.065.873l-1.68.219.715,5.489,1.68-.219a1.315,1.315,0,0,1,1.253.571,7.665,7.665,0,0,0,.5.658,1.314,1.314,0,0,1,.224,1.362l-.651,1.564,5.11,2.124.651-1.571a1.318,1.318,0,0,1,1.128-.8q.2-.016.405-.043t.4-.062a1.312,1.312,0,0,1,1.288.478l1.037,1.355,4.4-3.361-1.031-1.35a1.316,1.316,0,0,1-.13-1.374,7.51,7.51,0,0,0,.317-.761,1.318,1.318,0,0,1,1.066-.871l1.68-.219-.715-5.489-1.68.219a1.317,1.317,0,0,1-1.253-.57,7.6,7.6,0,0,0-.5-.654,1.314,1.314,0,0,1-.226-1.362l.651-1.569-5.11-2.124-.652,1.569a1.316,1.316,0,0,1-1.125.794c-.135.01-.272.025-.408.043s-.27.038-.4.062a1.318,1.318,0,0,1-1.295-.481Zm3.139,4.928a4.533,4.533,0,1,1-3.913,5.079A4.53,4.53,0,0,1,170.86,95.727Z" transform="translate(-18.099)" fill="#ebebeb"/></g><g transform="translate(5628.685 -5928.782)"><g transform="translate(80.777 195.935)"><path d="M113.4,275.805a180.813,180.813,0,0,0-.263-19.19,244.38,244.38,0,0,0-6.012-39.1c-1.676-7.235-3.74-14.348-5.891-21.453-.065-.214-.407-.154-.348.07,6.651,25.045,12.109,50.892,11.733,76.928-.105,7.287-.948,14.443-1.64,21.683-.019.194.3.271.344.072A108.793,108.793,0,0,0,113.4,275.805Z" transform="translate(-92.732 -195.935)" fill="#ebebeb"/><path d="M96.7,196.242s-10.076,25.576-7.821,31.587,6.907,7.295,6.907,7.295-6.165,8.8-1.857,17.058,13.881,7.866,14.516,17.225C108.449,269.407,108.983,230.268,96.7,196.242Z" transform="translate(-88.554 -196.039)" fill="#ebebeb"/><path d="M110.777,256.011a.2.2,0,0,0-.01-.134,234.252,234.252,0,0,0-9.774-51.451c-.015-.05-.1-.033-.083.018q2.994,11.222,5.291,22.566a11.128,11.128,0,0,0-4.809-2.682.027.027,0,0,0-.019.052,12.732,12.732,0,0,1,4.966,3.318q.442,2.223.857,4.45c-2.252-2.516-5.375-3.765-8.5-4.952a.036.036,0,0,0-.024.069c3.254,1.325,6.5,3.032,8.7,5.837q1.153,6.367,2.024,12.776a12.183,12.183,0,0,0-6.009-3.443c-.07-.017-.109.087-.038.107a12.693,12.693,0,0,1,6.094,3.9.166.166,0,0,0,.038.028q.3,2.254.57,4.514a15.517,15.517,0,0,0-4.211-2.54c-.041-.017-.063.047-.022.064a14.484,14.484,0,0,1,4.218,2.792c.017.017.036.015.054.021.168,1.433.335,2.865.48,4.3a20.472,20.472,0,0,0-8.546-6.1c-.066-.025-.1.075-.036.1a22.268,22.268,0,0,1,8.423,6.481.187.187,0,0,0,.212.067q.326,3.3.574,6.614c0,.03.052.033.05,0Q111.054,259.4,110.777,256.011Z" transform="translate(-91.977 -198.804)" fill="#fff"/><path d="M101.624,229.74a12.6,12.6,0,0,0-6.054-1.887c-.05,0-.054.069-.005.077a23.978,23.978,0,0,1,5.986,1.955C101.637,229.922,101.7,229.792,101.624,229.74Z" transform="translate(-90.919 -206.758)" fill="#fff"/><path d="M104.247,270.881a12.747,12.747,0,0,0-4.544-1.554c-.056-.009-.06.076-.006.086a17.033,17.033,0,0,1,4.495,1.576C104.254,271.02,104.306,270.917,104.247,270.881Z" transform="translate(-92.319 -220.821)" fill="#fff"/></g><g transform="translate(101.982 227.598)"><path d="M146.586,244.642a68.465,68.465,0,0,0-11.663,10.2,41.876,41.876,0,0,0-8.179,13.871,103.7,103.7,0,0,0-6.093,33.175,80.574,80.574,0,0,0,1.8,18.657.177.177,0,0,0,.348-.065,104.64,104.64,0,0,1,.183-32.613c1.732-10.581,4.45-22.091,11.176-30.69,3.662-4.683,8.228-8.366,12.742-12.173C147.133,244.8,146.83,244.471,146.586,244.642Z" transform="translate(-120.638 -244.098)" fill="#ebebeb"/><path d="M122.9,294.01a62.694,62.694,0,0,1,8.5-10.867c5.041-5.039,9.286-8.622,9.941-11.955s-5.049-5.788-5.049-5.788,6.976,1.252,8.885-1.675,2.83-19.884,2.83-19.884-12.691,9.06-18.6,21.761S122.9,294.01,122.9,294.01Z" transform="translate(-121.405 -243.843)" fill="#ebebeb"/><path d="M143.588,250.387c-5.34,5.244-10.713,10.833-13.858,17.723a68.026,68.026,0,0,0-2.8,7.308s0,.008,0,.011c-.162.5-.326,1-.479,1.506a.189.189,0,0,0-.026.082,143.844,143.844,0,0,0-3.6,15.666c-.007.034.044.051.052.017.547-2.646,1.15-5.317,1.824-7.981a.188.188,0,0,0,.075-.015,11.1,11.1,0,0,1,3.33-.846c.076-.007.07-.139-.007-.135a12.488,12.488,0,0,0-3.294.6c.615-2.4,1.284-4.8,2.034-7.157a35.422,35.422,0,0,1,7.526-.984c.026,0,.03-.039,0-.04a28.458,28.458,0,0,0-7.4.628c.131-.405.267-.808.4-1.211a38.1,38.1,0,0,1,5.008-.849c.03,0,.028-.055,0-.054a24.316,24.316,0,0,0-4.9.6c.691-2.042,1.437-4.057,2.264-6.019a36.468,36.468,0,0,1,2.4-4.652,30.648,30.648,0,0,1,4.063-.724c.039,0,.034-.065,0-.067a10.955,10.955,0,0,0-3.8.375c.668-1.079,1.369-2.134,2.12-3.157h0c2.846-.63,5.731-1.215,8.641-.668.05.009.069-.075.019-.089-2.771-.728-5.522-.308-8.279.237.3-.4.609-.8.919-1.188a18.879,18.879,0,0,1,5.317-.835.03.03,0,0,0,.005-.059,13.875,13.875,0,0,0-4.958.44c2.354-2.923,4.952-5.669,7.521-8.384C143.808,250.336,143.715,250.263,143.588,250.387Z" transform="translate(-121.375 -246.04)" fill="#fff"/><path d="M152.7,267.843a11.6,11.6,0,0,0-2.523-.088.091.091,0,0,0,.009.18c.835.024,1.67-.038,2.506.008A.05.05,0,0,0,152.7,267.843Z" transform="translate(-130.63 -251.938)" fill="#fff"/><path d="M138.2,292.8a11.435,11.435,0,0,0-3.911.785c-.031.011-.013.063.018.056,1.292-.307,2.6-.432,3.9-.648A.1.1,0,0,0,138.2,292.8Z" transform="translate(-125.26 -260.442)" fill="#fff"/><path d="M135.2,284.2a8.293,8.293,0,0,0-1.66.15.05.05,0,0,0,.005.1,8.329,8.329,0,0,0,1.664-.078A.087.087,0,0,0,135.2,284.2Z" transform="translate(-124.998 -257.524)" fill="#fff"/></g><g transform="translate(65.62 245.848)"><path d="M66.468,271.886a57.654,57.654,0,0,1,11.795,5.555,35.246,35.246,0,0,1,9.826,9.335,87.262,87.262,0,0,1,12.6,25.439,67.847,67.847,0,0,1,2.859,15.514.149.149,0,0,1-.3.027,88.1,88.1,0,0,0-7.686-26.351c-3.848-8.162-8.708-16.849-16.138-22.254-4.046-2.942-8.593-4.868-13.126-6.906C66.061,272.14,66.23,271.8,66.468,271.886Z" transform="translate(-65.811 -271.598)" fill="#ebebeb"/><path d="M97.535,306.252a52.816,52.816,0,0,0-9.392-6.829c-5.244-2.913-9.508-4.831-10.809-7.376s2.749-5.851,2.749-5.851-5.356,2.626-7.577.7-6.886-15.437-6.886-15.437,12.364,4.4,20.085,13.311S97.535,306.252,97.535,306.252Z" transform="translate(-65.62 -271.456)" fill="#ebebeb"/><path d="M99.724,304.989c-6.184-11.607-14.436-22.108-25.743-29.039a0,0,0,0,0-.005.007,56.8,56.8,0,0,1,8.276,6.476,13.107,13.107,0,0,0-6.647,1.4.039.039,0,0,0,.034.069,18.211,18.211,0,0,1,6.84-1.156.138.138,0,0,0,.077-.029q.6.571,1.189,1.158a21.034,21.034,0,0,0-3.552.471.025.025,0,0,0,.01.049,18.151,18.151,0,0,1,3.752-.309,77.647,77.647,0,0,1,5.832,6.622,5.931,5.931,0,0,0-2.484.18.048.048,0,0,0,.018.094,13.276,13.276,0,0,1,2.652-.036c.338.43.681.859,1.013,1.3a23.987,23.987,0,0,0-7.5.73.029.029,0,0,0,.011.058,30.215,30.215,0,0,1,7.708-.5c.315.418.614.849.923,1.272a16.275,16.275,0,0,0-4.467.512c-.056.014-.04.1.017.089a17.086,17.086,0,0,1,4.624-.36c1.33,1.833,2.6,3.706,3.829,5.6a4.173,4.173,0,0,0-1.96.118.028.028,0,0,0,.011.054,8.533,8.533,0,0,1,2.122.1q1.652,2.572,3.186,5.188C99.569,305.253,99.806,305.143,99.724,304.989Z" transform="translate(-68.453 -272.98)" fill="#fff"/><path d="M96.526,305.306a9.591,9.591,0,0,0-3.592.439c-.033.011-.025.06.01.054a27.79,27.79,0,0,1,3.572-.366A.064.064,0,0,0,96.526,305.306Z" transform="translate(-74.875 -282.924)" fill="#fff"/><path d="M81.191,283.9a6.165,6.165,0,0,0-1.656.1c-.065.01-.044.105.019.1.545-.058,1.082-.038,1.627-.054A.071.071,0,0,0,81.191,283.9Z" transform="translate(-70.325 -275.669)" fill="#fff"/></g><g transform="translate(85.573 279.809)"><g transform="translate(0 2.593)"><path d="M123.72,363.389H95.81l3.98-29.151,1.017-7.474h17.917l1.017,7.474Z" transform="translate(-95.81 -326.764)" fill="#dbdbdb"/><path d="M121.782,334.238H101.831l1.017-7.474h17.917Z" transform="translate(-97.852 -326.764)" fill="#c7c7c7"/></g><rect width="23.041" height="6.33" transform="translate(2.434 0)" fill="#dbdbdb"/></g></g></g></svg>