<svg xmlns="http://www.w3.org/2000/svg" width="312.192" height="262.255" viewBox="0 0 312.192 262.255"><g transform="translate(-5644.305 5870.361)"><g transform="translate(-94 1)"><g transform="matrix(0.899, -0.438, 0.438, 0.899, 5213.187, -5667.448)"><path d="M641.88,139.88l-7.566,36.64-4.867-4.748-8.288,5.907-6.33-7.859-14.2,10.325-12.13-20.3-13.538,7.928-5.366-7.4L552.4,170.06l-5.172-11.071,12.048-58.356,64.6,13.336Z" transform="translate(-3.343 0)" fill="#ebebeb"/><path d="M643.007,117.5l18.009,25.906-22.4-4.625Z" transform="translate(-22.479 -3.532)" fill="#dbdbdb"/><path d="M629.361,201.238,618.265,255l-87-17.958,11.013-53.33,5.172,11.071,17.189-9.685L570,192.5l13.538-7.928,12.13,20.3,14.2-10.325,6.33,7.859,8.288-5.907Z" transform="translate(0 -17.395)" fill="#ebebeb"/></g><g transform="matrix(0.966, 0.259, -0.259, 0.966, 5615.477, -5990.768)"><path d="M465.3,159.7l-82.011,5.075L376.774,59.5l60.893-3.768,22.359,18.753Z" fill="#ebebeb"/><path d="M460.045,55.734,482.4,74.487l-21.118,1.307Z" transform="translate(-22.379)" fill="#dbdbdb"/><g transform="translate(404.345 80.945)"><path d="M425.065,135.831l-.317-2.374c-.827-4.922.521-10.426,4.8-16.186,3.855-5.092,5.948-8.8,5.717-12.925-.262-4.679-3.371-7.632-9.155-7.4a16.326,16.326,0,0,0-9.1,3.362l-2.525-5.656c2.9-2.371,8.05-4.131,12.91-4.4,10.548-.591,15.682,5.654,16.072,12.624.349,6.238-2.884,10.926-6.994,16.4-3.768,5-5.01,9.113-4.473,13.775l.225,2.38Zm-1.3,12.954a5.431,5.431,0,0,1,5.18-6.086c3.21-.18,5.545,2.082,5.735,5.476a5.47,5.47,0,1,1-10.914.611Z" transform="translate(-414.478 -90.211)" fill="#dbdbdb"/></g></g><g transform="translate(-914 -495)"><path d="M7166.279-5281.227l10.118-3.913s10.894-28.4,38.82-28.9a33.357,33.357,0,0,1,9.519,1.205c21.037,5.688,30.246,31.61,30.246,31.61h7.918s-.836-16.151-15.682-30.317-43.663-17.4-61.313-1.428S7166.279-5281.227,7166.279-5281.227Z" transform="translate(-379 -7.542)" fill="#ee0a2a" stroke="#212121" stroke-width="1"/><path d="M7167.027-5285.14h9.412s10.942-28.4,39-28.9,40.7,28.9,40.7,28.9h7.954s-1.591-12.238-16.5-26.4-43.86-17.4-61.589-1.428S7167.027-5285.14,7167.027-5285.14Z" transform="translate(-407 -7.542)" fill="#ee0a2a" stroke="#212121" stroke-width="1"/><path d="M44.608,20.9s-6.027-9.094-15.877-8.765S5.208,22.22,5.208,22.22L0,14.184S17.3,1.764,28.731.182a17.491,17.491,0,0,1,17,7.672Z" transform="translate(6707.595 -5235.449) rotate(-20)" fill="#ee0a2a" stroke="#212121" stroke-width="1"/><path d="M7193.73-5153.65l-.747,15.355h14.023v-15.355Z" transform="translate(-415 -7)" fill="#ee0a2a" stroke="#070707" stroke-width="1"/><path d="M7206.258-5153.65l.747,15.355h-14.023v-15.355Z" transform="translate(-366 -7)" fill="#ee0a2a" stroke="#070707" stroke-width="1"/><path d="M7061.789-5118.762l9.182,84.246s.868,6.026,4.693,9.6,10.608,4.708,10.608,4.708a364.286,364.286,0,0,0,47.353,2.853c23.2-.392,43.029-3.645,45.446-4.42,5.036-1.615,18.369-5.3,22.926-43.292s10.5-83.044,10.5-83.044l-6.882,2.946-8.272-6.461-119-2.589s1.321,7.651-.1,13.325c-.993,3.979-4.569,6.11-5.924,6.881-3.059,1.74-4.423,2.351-4.423,2.351s.61,4.661.61,6.9S7067.514-5121,7061.789-5118.762Z" transform="translate(-320 -142)" fill="#c0000f" stroke="#212121" stroke-width="1"/><path d="M7061.789-5118.762l8.237,84.246s.779,6.026,4.21,9.6,9.516,4.708,9.516,4.708a293.73,293.73,0,0,0,42.479,2.853c20.812-.392,41.223-2.077,43.391-2.853,8.987-1.476,12.775-1.77,17.943-44.86s10.2-87.361,10.2-87.361l-118.717-2.954s-1.225,8.818-2.5,14.492c-.891,3.979-4.1,6.11-5.314,6.881-2.744,1.74-3.968,2.351-3.968,2.351s.548,4.661.548,6.9S7066.925-5121,7061.789-5118.762Z" transform="translate(-321 -141)" fill="#ee0a2a" stroke="#212121" stroke-width="1"/><path d="M7206.726-5148.175" transform="translate(-414 3)" fill="#fff" stroke="#000" stroke-width="1"/><path d="M7194.247-5148.478s-2.794.013-2.468,1.737,1.366,2,1.366,2v13l16.519-.409-.241-12.593a1.611,1.611,0,0,0,1.33-1.12,1.656,1.656,0,0,0-1.089-2.113C7208.676-5148.415,7194.247-5148.478,7194.247-5148.478Z" transform="translate(-416 -4)" fill="#fff" stroke="#212121" stroke-width="1"/><path d="M7194.247-5148.478s-2.794.013-2.468,1.737,1.366,2,1.366,2v13l16.519-.409-.241-12.593a1.611,1.611,0,0,0,1.33-1.12,1.656,1.656,0,0,0-1.089-2.113C7208.676-5148.415,7194.247-5148.478,7194.247-5148.478Z" transform="translate(-367 -4)" fill="#fff" stroke="#212121" stroke-width="1"/><path d="M7152.673-5123.868s-2.608,2.755-2.157,5.04.52,2.687,1.569,3.206,6.637,1.814,13.04,1.951a162.9,162.9,0,0,0,17.9-.451c4.255-.46,16.413-1.275,19.55-2.451s5.109-1.176,5.755-2.157a5.961,5.961,0,0,0,.715-2.549v-1.706l-.715-1.167Z" transform="translate(-414 -2)" fill="#fff" stroke="#000" stroke-width="1"/><path d="M7206.84-5123.868s2.608,2.755,2.157,5.04-.52,2.687-1.569,3.206-6.637,1.814-13.04,1.951a162.9,162.9,0,0,1-17.9-.451c-4.255-.46-16.413-1.275-19.55-2.451s-5.109-1.176-5.755-2.157a5.961,5.961,0,0,1-.715-2.549v-1.706l.715-1.167Z" transform="translate(-324 -1)" fill="#fff" stroke="#000" stroke-width="1"/><path d="M7191.552-5143.667s-1.124.2-1.365,1.932a15.2,15.2,0,0,1-.451,2.352s-1.245-.42-1.513.326-.6,1.223-1.312-.326-.594-2.294-2.2-2.562-2.494.33-3.182.209-7.042-6.359-11.206-7.881-9.59-2.767-13.191-.8-9.532,5.7-10.277,12.6.32,12.191,2.851,15.557,3.29,4.347,7.516,4.793a214.179,214.179,0,0,0,23.384,0c6.368-.4,11.541-.714,14.071-1.16s12.054-2.589,13.183-3.57,2.231-2,2.111-3.155a5.861,5.861,0,0,0-1.5-3.467c-1.013-1.129,0-1.575,0-1.575a26.639,26.639,0,0,1,2.83-3.9c1.16-1.133,2.3-1.789,1.423-2.293s-4.855-.151-6.466,0-.808.991-3.187-.531-3.691-2.8-5.98-2.95-4.311-2.647-4.877-3.151S7191.552-5143.667,7191.552-5143.667Z" transform="translate(-414 -1)" fill="#212121"/><path d="M7168.1-5143.667s1.124.2,1.365,1.932a15.2,15.2,0,0,0,.451,2.352s1.245-.42,1.513.326.6,1.223,1.312-.326.594-2.294,2.2-2.562,2.494.33,3.182.209,7.042-6.359,11.206-7.881,9.59-2.767,13.191-.8,9.532,5.7,10.277,12.6-.32,12.191-2.851,15.557-3.29,4.347-7.516,4.793a214.179,214.179,0,0,1-23.384,0c-6.368-.4-11.541-.714-14.071-1.16s-12.054-2.589-13.183-3.57-2.231-2-2.111-3.155a5.861,5.861,0,0,1,1.5-3.467c1.013-1.129,0-1.575,0-1.575a26.639,26.639,0,0,0-2.83-3.9c-1.16-1.133-2.3-1.789-1.423-2.293s4.855-.151,6.466,0,.808.991,3.187-.531,3.691-2.8,5.98-2.95,4.311-2.647,4.877-3.151S7168.1-5143.667,7168.1-5143.667Z" transform="translate(-324)" fill="#212121"/><path d="M7184.094-5132.167s-1.795,3.508.3,3.965,2.52-.409,2.792-1.3a4.734,4.734,0,0,1,.464-1.16s.638.438-.464,2.785-5.875.464-4.873-2.164S7184.094-5132.167,7184.094-5132.167Z" transform="translate(-419 -4)" fill="#fff"/><path d="M7183.713-5132.174s-1.438,2.812.24,3.178,2.019-.328,2.237-1.039a3.758,3.758,0,0,1,.373-.93s.511.351-.373,2.232-4.708.372-3.905-1.734S7183.713-5132.174,7183.713-5132.174Z" transform="matrix(0.899, -0.438, 0.438, 0.899, 2563.802, 2628.07)" fill="#fff"/><path d="M7181.155-5141.9a11.279,11.279,0,0,1,3.481,0,4.941,4.941,0,0,1,2.321,2.866c.389,1.276,1.479,4.369.777,6.805a12.262,12.262,0,0,1-1.665,3.713,1.263,1.263,0,0,1-1.433,0,1.8,1.8,0,0,1-.928-2.164,7.932,7.932,0,0,0,.928-4.8c-.423-2.129-.772-3.638-1.856-4.566A8.131,8.131,0,0,1,7181.155-5141.9Z" transform="translate(-419 -4)" fill="#fff" stroke="#212121" stroke-width="1"/><path d="M7181.155-5141.927a9.134,9.134,0,0,1,2.82,0,4,4,0,0,1,1.881,2.323c.315,1.034,1.2,3.54.629,5.514a9.937,9.937,0,0,1-1.349,3.009,1.024,1.024,0,0,1-1.161,0,1.46,1.46,0,0,1-.752-1.754,6.427,6.427,0,0,0,.752-3.888c-.343-1.726-.625-2.948-1.5-3.7A6.591,6.591,0,0,1,7181.155-5141.927Z" transform="translate(-411.868 -0.711)" fill="#fff" stroke="#212121" stroke-width="1"/><path d="M7191.851-5136.951l-.861-.834s1.5-2.3,3.613-2.48a12.471,12.471,0,0,1,6.573.861c2.2,1.04,6.19,7.657,4.878,9.8a4.84,4.84,0,0,1-5.561,2.232,5.913,5.913,0,0,1-4.6-3.419c-1.134-2.115-3.1-6.159-3.1-6.159l1.995-.33a27.222,27.222,0,0,0,2.275,4.2c1.008,1.313,2.173,3.981,4.105,3.775s3.022-.144,2.755-1.991-2.723-6.385-6.547-6.814-3.329,0-4.967.83Z" transform="translate(-417 -3)" fill="#fff" stroke="#212121" stroke-width="1"/><path d="M7185.915-5132.167s1.795,3.508-.3,3.965-2.52-.409-2.792-1.3a4.734,4.734,0,0,0-.464-1.16s-.638.438.464,2.785,5.875.464,4.873-2.164S7185.915-5132.167,7185.915-5132.167Z" transform="translate(-328.54 -3)" fill="#fff"/><path d="M1.538,4.3S.1,1.485,1.778,1.119,3.8,1.447,4.016,2.158a3.758,3.758,0,0,0,.373.93S4.9,2.737,4.016.856-.692.484.11,2.59,1.538,4.3,1.538,4.3Z" transform="matrix(-0.899, -0.438, 0.438, -0.899, 6851.284, -5128.294)" fill="#fff"/><path d="M7187.964-5141.9a11.279,11.279,0,0,0-3.481,0,4.941,4.941,0,0,0-2.321,2.866c-.389,1.276-1.479,4.369-.777,6.805a12.262,12.262,0,0,0,1.665,3.713,1.263,1.263,0,0,0,1.433,0,1.8,1.8,0,0,0,.928-2.164,7.932,7.932,0,0,1-.928-4.8c.423-2.129.772-3.638,1.856-4.566A8.131,8.131,0,0,0,7187.964-5141.9Z" transform="translate(-327.65 -3)" fill="#fff" stroke="#212121" stroke-width="1"/><path d="M7186.673-5141.928a9.134,9.134,0,0,0-2.82,0,4,4,0,0,0-1.881,2.323c-.315,1.034-1.2,3.54-.629,5.514a9.937,9.937,0,0,0,1.349,3.009,1.024,1.024,0,0,0,1.161,0,1.46,1.46,0,0,0,.752-1.754,6.427,6.427,0,0,1-.752-3.888c.343-1.726.625-2.948,1.5-3.7A6.591,6.591,0,0,0,7186.673-5141.928Z" transform="translate(-333.491 0.289)" fill="#fff" stroke="#212121" stroke-width="1"/><path d="M7205.454-5136.951l.861-.834s-1.5-2.3-3.613-2.48a12.471,12.471,0,0,0-6.573.861c-2.2,1.04-6.19,7.657-4.878,9.8a4.84,4.84,0,0,0,5.561,2.232,5.913,5.913,0,0,0,4.6-3.419c1.134-2.115,3.1-6.159,3.1-6.159l-1.995-.33a27.222,27.222,0,0,1-2.275,4.2c-1.008,1.313-2.173,3.981-4.105,3.775s-3.022-.144-2.755-1.991,2.723-6.385,6.547-6.814,3.329,0,4.967.83Z" transform="translate(-357.835 -2)" fill="#fff" stroke="#212121" stroke-width="1"/><path d="M6883.947-5227.606s2.783-6.673,12.75-6.375,23.522,10.081,23.522,10.081l5.209-8.037s-15.19-9.836-26.831-11.432-23.469,6.059-23.469,6.059Z" transform="translate(-1610.594 -6853.37) rotate(48)" fill="#ee0a2a" stroke="#212121" stroke-width="1"/><path d="M6885.631-5287.307s-5.432,61.213-11.346,91.167-16.157,31.172-17.753,32.469" fill="none" stroke="#212121" stroke-width="1"/><g transform="matrix(0.999, 0.052, -0.052, 0.999, 6452.393, -5578.905)"><path d="M391.4,336.234l-.517-.988c-.048-.089-4.92-9.1-14.726-9.1-8.942,0-11.122,8.481-11.211,8.842l-.265,1.081-2.163-.523.26-1.081c.025-.106,2.657-10.548,13.378-10.548,11.177,0,16.48,9.871,16.7,10.291l.518.987Z" transform="translate(-9.375 25.179)" fill="#313131"/></g></g><g transform="translate(5991.745 -5729.271) rotate(45)"><path d="M3117.583,365.305a10.6,10.6,0,0,1,3.558,5.812c.39,1.824.477,3.552,2.442,4.359,5.018,2.058,6.549-7.983,4.312-8.671Z" transform="translate(-3073.449 -342.309)" fill="#fff"/><g transform="translate(44.742 23.783)"><path d="M3125.89,359.981a5.233,5.233,0,0,1,1.93,3.495c.115.556.211,1.152.333,1.763.514,2.422,1.434,3.184,1.688,3.4,2.872,2.053,4.531-1.331,4.641-1.642a4.348,4.348,0,0,0,.323-1.535c.013-.31.686-.255.468.44-.083.908-.771,4.046-3.646,4.135a4.984,4.984,0,0,1-1.873-.576,4.665,4.665,0,0,1-2.186-3.06c-.1-.333-.187-.659-.262-.974-.148-.631-.264-1.219-.392-1.746-.063-.264-.129-.511-.2-.741a3.5,3.5,0,0,0-1.431-2.3C3124.236,359.652,3125.89,359.981,3125.89,359.981Z" transform="translate(-3124.935 -359.929)" fill="#405260"/></g><path d="M2597.35,482.3c.9-3.169,2.363-6.564,2.677-9.826.051-.529.029-1.048.05-1.577.011-.269.12-.781.1-1.04,1.488-3.358-3.326-5.666-6.061-4.8-5.128,1.621-7.935,9.039-8.969,13.639a12.017,12.017,0,0,0,1.658,8.991c1.08,1.606,2.6,2.531,4.573,1.8.04-.017-.061-.022-.024-.052C2594.517,488.827,2596.554,485.1,2597.35,482.3Z" transform="translate(-2584.735 -464.51)" fill="#fff"/><path d="M2681.1,455.75c-1.8-1.923-1-6.378-.421-8.625.893-3.481,1.2-6.9,3.046-9.937,2.024-3.332,3.583-3.479,8.832-4.041,4-.429,11.755,1.3,15.354,3.1,6.167,3.09,7.224,10.029,2.771,15.364-4.592,5.5-14.484,9.106-22.5,7.368-1.876-.407-6.764-2.238-7.265-3.608Z" transform="translate(-2671.996 -431.576)" fill="#fff"/><path d="M2970.191,426.99c8.08-.2,15.4,5.08,18.3,6.548,2.391,1.211,7.716,2.8,7.953-2.048.389-7.981-9.411-12.315-13.7-15.571-3.536-2.686-10.1-6.674-14.615-5.24Z" transform="translate(-2936.335 -405.066)" fill="#fff"/><g transform="translate(9.316 1.357)"><path d="M2725.752,428.352s.8-.548,1.11-.463a23.785,23.785,0,0,1,2.673.851,33.436,33.436,0,0,1,3.943,1.817c.737.4,1.511.836,2.308,1.329.2.12,2.252,1.423,2.472,1.538a13.312,13.312,0,0,0,2.907,1.1,5.442,5.442,0,0,0,3.248.191c3.438-.968,2.116-5.123,1.932-5.714a8.355,8.355,0,0,0-1.631-2.934c-.792-1.021-13.818-11.234-16.127-12.583a49.965,49.965,0,0,0-7.04-3.454c-.3-.115-2.969-1.006-3.557-1.179-1.177-.348-2.335-.668-3.472-.932a52.641,52.641,0,0,0-6.5-.78,21.049,21.049,0,0,0-5.469.832,12.62,12.62,0,0,0-3.837,1.82,8.465,8.465,0,0,0-1.182,1.037,10.462,10.462,0,0,0-1.6,2.559,9.439,9.439,0,0,1,1.477-2.678,8.662,8.662,0,0,1,1.2-1.066,12.819,12.819,0,0,1,3.885-1.873,21.275,21.275,0,0,1,5.523-.876,53.16,53.16,0,0,1,6.573.747c1.146.259,2.312.573,3.494.914.592.17,3.291,1.052,3.591,1.166a50.337,50.337,0,0,1,7.112,3.434c2.332,1.343,15.576,11.448,16.4,12.5a9.935,9.935,0,0,1,2.064,5.1,6.376,6.376,0,0,1-.079,1.939,2.943,2.943,0,0,1-1.732,2.284,4.027,4.027,0,0,1-2.675.559,10.6,10.6,0,0,1-3.323-.916,13.413,13.413,0,0,1-1.465-.645c-.233-.121-2.318-1.425-2.517-1.543-.791-.482-1.557-.91-2.285-1.3a32.776,32.776,0,0,0-3.874-1.757,23.114,23.114,0,0,0-2.6-.811C2726.387,428.485,2725.752,428.352,2725.752,428.352Z" transform="translate(-2695.922 -406.89)" fill="#405260"/></g><g transform="translate(0 0)"><path d="M2594.045,461.356a7.048,7.048,0,0,0-4.1,1.461,14.667,14.667,0,0,0-4.136,5.146,25.018,25.018,0,0,0-2.257,6.5c-.8,3.7-.538,7.391.7,9.866l0,.008a4.843,4.843,0,0,0,3.945,2.518,4.07,4.07,0,0,0,3.637-1.458.372.372,0,1,0-.593-.448,3.336,3.336,0,0,1-2.985,1.165,4.1,4.1,0,0,1-3.345-2.122c-1.163-2.329-1.4-5.835-.634-9.38.716-3.639,2.744-8.748,6.106-11.2.7-.521,4.51-2.795,7.439.583.135.155.8-.2.661-.358A6.293,6.293,0,0,0,2594.045,461.356Z" transform="translate(-2583.097 -461.356)" fill="#405260"/></g><path d="M2609.137,488.344c-.138-2.046-.417-3.974-.433-6.007-.009-.992.174-3.218-1.38-2.735a1.468,1.468,0,0,0-.7.479c-1.453.913-1.7,4.85-1.74,6.046-.068,1.93.5,6.382,2.663,7.244C2609.907,494.312,2609.212,489.45,2609.137,488.344Z" transform="translate(-2603.079 -469.479)" fill="#f7f7f7"/><path d="M2671.935,206.871c-2.252.777-.932,7.337-.087,8.784a15.327,15.327,0,0,0,8.081,6.7c4.047,1.407,8.286,1.947,12.3,3.7a10.585,10.585,0,0,1,4.554,3c.887,1.123,1.43,2.793,2.7,3.472,2.607,1.4,4.548-1.5,5.01-3.989a12.66,12.66,0,0,0-1.276-7.5c-1.12-2.355-3.146-4.183-4.854-6.014-.733-.786-3.105-2.677-3.724-3.578-.409-.595,1.359-.282,1.028-.9-.122-.227-.889-1.73-.472-.947Z" transform="translate(-2663.454 -186.366)" fill="#fff"/><path d="M2928.015,481.551c-2.916-.011-14.535.6-17.28,2.09-2.646,1.44-8.866.919-11.623,1.687l2.7-10.328c1.072-2.157,7.261-3.046,9.329-3.441a47.615,47.615,0,0,1,8.916-.638c2.619,0,6.488.229,8.977,1.354,1.943.879,5.8,1.96,6.54,4.9C2936.546,481.048,2929.771,481.558,2928.015,481.551Z" transform="translate(-2873.017 -460.605)" fill="#fff"/><g transform="translate(7.117 20.88)"><path d="M2696.337,210.275c.807.782,1.675,1.652,2.568,2.622.223.243,1.223,1.427,1.324,1.569.412.57.818,1.168,1.208,1.8a20.8,20.8,0,0,1,1.094,2.006,14.985,14.985,0,0,1,.854,2.235,11.119,11.119,0,0,1,.426,2.458,7.578,7.578,0,0,1-.253,2.586c-.132.427-1.294,3.806-4.069,3.8a3.109,3.109,0,0,1-2.523-1.128,10.41,10.41,0,0,0-5.594-5.565,32.975,32.975,0,0,0-5.251-1.895l-2.648-.745c-.219-.063-2.155-.642-2.576-.774-.843-.265-3.817-1.237-4.553-1.607a20.28,20.28,0,0,1-2.3-1.469,12.211,12.211,0,0,1-1.729-1.486,10.869,10.869,0,0,1-2.2-3.422,8.767,8.767,0,0,1-.546-1.693,11.308,11.308,0,0,1-.224-1.566c-.038-.492-.053-.949-.054-1.37s0-.8.01-1.146c.015-.661.04-1.166.061-1.512a2.193,2.193,0,0,1,.063-.549c.021-.018.039.13.052.452s.01.817,0,1.488c-.005.37-.009.773,0,1.2s.03.893.073,1.379a11.226,11.226,0,0,0,.241,1.524,8.1,8.1,0,0,0,.541,1.6,11.393,11.393,0,0,0,.863,1.636,10.321,10.321,0,0,0,1.223,1.556,11.094,11.094,0,0,0,1.593,1.379,14.92,14.92,0,0,0,1.912,1.15,37.136,37.136,0,0,0,6.937,2.438c.832.229,7.672,2.3,7.781,2.348a19.533,19.533,0,0,1,2.548,1.27,10.887,10.887,0,0,1,4.609,5.014c1.045,1.194,2.794.523,3.133.306a4.561,4.561,0,0,0,.915-.808,8.642,8.642,0,0,0,1.243-5.786,12.786,12.786,0,0,0-.661-2.308,22.028,22.028,0,0,0-2.152-4.044,34.65,34.65,0,0,0-3.918-4.56,37.894,37.894,0,0,0-4.247-3.836,9.373,9.373,0,0,0-1.223-.784c-.274-.138-.4-.168-.384-.188a1,1,0,0,1,.518.125A24.054,24.054,0,0,1,2696.337,210.275Z" transform="translate(-2669.282 -203.426)" fill="#405260"/></g><g transform="translate(31.099 9.712)"><path d="M2960.464,473.168l-.747-.747a21.339,21.339,0,0,1,2.68-1.484,26.409,26.409,0,0,1,3.211-.954,30.974,30.974,0,0,1,4.271-.706c.2-.016,4.833-.2,5.056-.207,9.121-.636,10.623-1.094,11.6-1.351a11.112,11.112,0,0,0,2.671-1.12c1.265-.559,1.37-1.259,1.447-1.466a3.757,3.757,0,0,0-.948-3.274,6.436,6.436,0,0,0-1.118-.967,9.783,9.783,0,0,0-1.3-.748,17.048,17.048,0,0,0-2.808-1.036c-.957-.268-1.921-.476-2.876-.644a52.4,52.4,0,0,0-5.565-.643c-1.781-.118-6.556-.177-7.267-.169-.177,0-3.094.046-3.167.046s-2.594-.208-2.795-.232-2.2-.208-2.2-.208c-.921-.071-.908-.3.017-.241,0,0,4.912.378,4.984.378l3.158-.085c.712-.017,5.506-.016,7.3.08a52.918,52.918,0,0,1,5.623.58c.97.159,1.951.358,2.933.62a17.6,17.6,0,0,1,2.914,1.035,10.394,10.394,0,0,1,1.383.777,7.071,7.071,0,0,1,1.237,1.046,6.17,6.17,0,0,1,.981,1.583,2.746,2.746,0,0,1-.3,3.1,4.59,4.59,0,0,1-1.292,1.068,10.247,10.247,0,0,1-1.458.679c-.249.089-1.374.447-1.5.482-1,.278-2.012.485-3.01.66-.25.041-2.719.4-2.963.429-1.95.231-3.839.382-5.632.493-.224.014-4.831.249-5.02.266a30.03,30.03,0,0,0-4.126.734,25.462,25.462,0,0,0-3.076.954A17.686,17.686,0,0,0,2960.464,473.168Z" transform="translate(-2959.717 -457.008)" fill="#405260"/></g><path d="M2979.255,240.846c-.106.545-.638,2.049-1.222,2.284a.84.84,0,0,1-.567.034l.033.057c-1.1-.012-1.109-1.276-1.528-2a8.515,8.515,0,0,0-2.194-2.156c-2.117-1.838-.752-4.351,2-3.315C2977.8,236.509,2979.7,238.55,2979.255,240.846Z" transform="translate(-2940.569 -199.058)" fill="#f7f7f7"/><path d="M3162.777,522.863c-.429,1.709-3.141,1.8-4.5,1.872l-.239.013c-1.318.255-2.821.331-3.792.514a5.027,5.027,0,0,1-3.094.007c-1.073-.55-1.358-1.638-.375-2.377.941-.707,2.745-.413,3.85-.56a29.538,29.538,0,0,0,3.28-.59C3158.973,521.472,3163.494,520.009,3162.777,522.863Z" transform="translate(-3103.347 -504.943)" fill="#f7f7f7"/></g><g transform="translate(5882.459 -6027.863) rotate(39)"><path d="M135.073,126.259,127.879,123l-1,2.2a1.878,1.878,0,0,1-1.64,1.093,10.913,10.913,0,0,0-1.176.115,1.876,1.876,0,0,1-1.816-.752l-1.409-1.965-6.424,4.6,1.408,1.965a1.877,1.877,0,0,1,.128,1.962,11,11,0,0,0-.488,1.076,1.876,1.876,0,0,1-1.561,1.2l-2.407.236.776,7.861,2.415-.24a1.881,1.881,0,0,1,1.763.88c.1.163.213.323.326.482s.23.313.351.463a1.874,1.874,0,0,1,.268,1.944l-1,2.219,7.194,3.263,1-2.208a1.877,1.877,0,0,1,1.642-1.091,11.148,11.148,0,0,0,1.171-.113,1.875,1.875,0,0,1,1.815.752l1.409,1.966,6.424-4.6-1.409-1.967a1.878,1.878,0,0,1-.129-1.96,10.927,10.927,0,0,0,.484-1.073,1.878,1.878,0,0,1,1.561-1.2l2.412-.239-.776-7.861-2.413.238a1.875,1.875,0,0,1-1.757-.879q-.158-.245-.33-.485t-.351-.464a1.88,1.88,0,0,1-.268-1.953Zm-4.081,7.273a6.471,6.471,0,1,1-9.029-1.5A6.466,6.466,0,0,1,130.992,133.532Z" transform="translate(0 -11.904)" fill="#ebebeb"/><path d="M167.721,90.8l-4.4,3.361,1.03,1.346a1.316,1.316,0,0,1,.132,1.374,7.659,7.659,0,0,0-.319.764,1.314,1.314,0,0,1-1.065.873l-1.68.219.715,5.489,1.68-.219a1.315,1.315,0,0,1,1.253.571,7.665,7.665,0,0,0,.5.658,1.314,1.314,0,0,1,.224,1.362l-.651,1.564,5.11,2.124.651-1.571a1.318,1.318,0,0,1,1.128-.8q.2-.016.405-.043t.4-.062a1.312,1.312,0,0,1,1.288.478l1.037,1.355,4.4-3.361-1.031-1.35a1.316,1.316,0,0,1-.13-1.374,7.51,7.51,0,0,0,.317-.761,1.318,1.318,0,0,1,1.066-.871l1.68-.219-.715-5.489-1.68.219a1.317,1.317,0,0,1-1.253-.57,7.6,7.6,0,0,0-.5-.654,1.314,1.314,0,0,1-.226-1.362l.651-1.569-5.11-2.124-.652,1.569a1.316,1.316,0,0,1-1.125.794c-.135.01-.272.025-.408.043s-.27.038-.4.062a1.318,1.318,0,0,1-1.295-.481Zm3.139,4.928a4.533,4.533,0,1,1-3.913,5.079A4.53,4.53,0,0,1,170.86,95.727Z" transform="translate(-18.099)" fill="#ebebeb"/></g><g transform="translate(5672.685 -5928.782)"><g transform="translate(80.777 195.935)"><path d="M113.4,275.805a180.813,180.813,0,0,0-.263-19.19,244.38,244.38,0,0,0-6.012-39.1c-1.676-7.235-3.74-14.348-5.891-21.453-.065-.214-.407-.154-.348.07,6.651,25.045,12.109,50.892,11.733,76.928-.105,7.287-.948,14.443-1.64,21.683-.019.194.3.271.344.072A108.793,108.793,0,0,0,113.4,275.805Z" transform="translate(-92.732 -195.935)" fill="#ebebeb"/><path d="M96.7,196.242s-10.076,25.576-7.821,31.587,6.907,7.295,6.907,7.295-6.165,8.8-1.857,17.058,13.881,7.866,14.516,17.225C108.449,269.407,108.983,230.268,96.7,196.242Z" transform="translate(-88.554 -196.039)" fill="#ebebeb"/><path d="M110.777,256.011a.2.2,0,0,0-.01-.134,234.252,234.252,0,0,0-9.774-51.451c-.015-.05-.1-.033-.083.018q2.994,11.222,5.291,22.566a11.128,11.128,0,0,0-4.809-2.682.027.027,0,0,0-.019.052,12.732,12.732,0,0,1,4.966,3.318q.442,2.223.857,4.45c-2.252-2.516-5.375-3.765-8.5-4.952a.036.036,0,0,0-.024.069c3.254,1.325,6.5,3.032,8.7,5.837q1.153,6.367,2.024,12.776a12.183,12.183,0,0,0-6.009-3.443c-.07-.017-.109.087-.038.107a12.693,12.693,0,0,1,6.094,3.9.166.166,0,0,0,.038.028q.3,2.254.57,4.514a15.517,15.517,0,0,0-4.211-2.54c-.041-.017-.063.047-.022.064a14.484,14.484,0,0,1,4.218,2.792c.017.017.036.015.054.021.168,1.433.335,2.865.48,4.3a20.472,20.472,0,0,0-8.546-6.1c-.066-.025-.1.075-.036.1a22.268,22.268,0,0,1,8.423,6.481.187.187,0,0,0,.212.067q.326,3.3.574,6.614c0,.03.052.033.05,0Q111.054,259.4,110.777,256.011Z" transform="translate(-91.977 -198.804)" fill="#fff"/><path d="M101.624,229.74a12.6,12.6,0,0,0-6.054-1.887c-.05,0-.054.069-.005.077a23.978,23.978,0,0,1,5.986,1.955C101.637,229.922,101.7,229.792,101.624,229.74Z" transform="translate(-90.919 -206.758)" fill="#fff"/><path d="M104.247,270.881a12.747,12.747,0,0,0-4.544-1.554c-.056-.009-.06.076-.006.086a17.033,17.033,0,0,1,4.495,1.576C104.254,271.02,104.306,270.917,104.247,270.881Z" transform="translate(-92.319 -220.821)" fill="#fff"/></g><g transform="translate(101.982 227.598)"><path d="M146.586,244.642a68.465,68.465,0,0,0-11.663,10.2,41.876,41.876,0,0,0-8.179,13.871,103.7,103.7,0,0,0-6.093,33.175,80.574,80.574,0,0,0,1.8,18.657.177.177,0,0,0,.348-.065,104.64,104.64,0,0,1,.183-32.613c1.732-10.581,4.45-22.091,11.176-30.69,3.662-4.683,8.228-8.366,12.742-12.173C147.133,244.8,146.83,244.471,146.586,244.642Z" transform="translate(-120.638 -244.098)" fill="#ebebeb"/><path d="M122.9,294.01a62.694,62.694,0,0,1,8.5-10.867c5.041-5.039,9.286-8.622,9.941-11.955s-5.049-5.788-5.049-5.788,6.976,1.252,8.885-1.675,2.83-19.884,2.83-19.884-12.691,9.06-18.6,21.761S122.9,294.01,122.9,294.01Z" transform="translate(-121.405 -243.843)" fill="#ebebeb"/><path d="M143.588,250.387c-5.34,5.244-10.713,10.833-13.858,17.723a68.026,68.026,0,0,0-2.8,7.308s0,.008,0,.011c-.162.5-.326,1-.479,1.506a.189.189,0,0,0-.026.082,143.844,143.844,0,0,0-3.6,15.666c-.007.034.044.051.052.017.547-2.646,1.15-5.317,1.824-7.981a.188.188,0,0,0,.075-.015,11.1,11.1,0,0,1,3.33-.846c.076-.007.07-.139-.007-.135a12.488,12.488,0,0,0-3.294.6c.615-2.4,1.284-4.8,2.034-7.157a35.422,35.422,0,0,1,7.526-.984c.026,0,.03-.039,0-.04a28.458,28.458,0,0,0-7.4.628c.131-.405.267-.808.4-1.211a38.1,38.1,0,0,1,5.008-.849c.03,0,.028-.055,0-.054a24.316,24.316,0,0,0-4.9.6c.691-2.042,1.437-4.057,2.264-6.019a36.468,36.468,0,0,1,2.4-4.652,30.648,30.648,0,0,1,4.063-.724c.039,0,.034-.065,0-.067a10.955,10.955,0,0,0-3.8.375c.668-1.079,1.369-2.134,2.12-3.157h0c2.846-.63,5.731-1.215,8.641-.668.05.009.069-.075.019-.089-2.771-.728-5.522-.308-8.279.237.3-.4.609-.8.919-1.188a18.879,18.879,0,0,1,5.317-.835.03.03,0,0,0,.005-.059,13.875,13.875,0,0,0-4.958.44c2.354-2.923,4.952-5.669,7.521-8.384C143.808,250.336,143.715,250.263,143.588,250.387Z" transform="translate(-121.375 -246.04)" fill="#fff"/><path d="M152.7,267.843a11.6,11.6,0,0,0-2.523-.088.091.091,0,0,0,.009.18c.835.024,1.67-.038,2.506.008A.05.05,0,0,0,152.7,267.843Z" transform="translate(-130.63 -251.938)" fill="#fff"/><path d="M138.2,292.8a11.435,11.435,0,0,0-3.911.785c-.031.011-.013.063.018.056,1.292-.307,2.6-.432,3.9-.648A.1.1,0,0,0,138.2,292.8Z" transform="translate(-125.26 -260.442)" fill="#fff"/><path d="M135.2,284.2a8.293,8.293,0,0,0-1.66.15.05.05,0,0,0,.005.1,8.329,8.329,0,0,0,1.664-.078A.087.087,0,0,0,135.2,284.2Z" transform="translate(-124.998 -257.524)" fill="#fff"/></g><g transform="translate(65.62 245.848)"><path d="M66.468,271.886a57.654,57.654,0,0,1,11.795,5.555,35.246,35.246,0,0,1,9.826,9.335,87.262,87.262,0,0,1,12.6,25.439,67.847,67.847,0,0,1,2.859,15.514.149.149,0,0,1-.3.027,88.1,88.1,0,0,0-7.686-26.351c-3.848-8.162-8.708-16.849-16.138-22.254-4.046-2.942-8.593-4.868-13.126-6.906C66.061,272.14,66.23,271.8,66.468,271.886Z" transform="translate(-65.811 -271.598)" fill="#ebebeb"/><path d="M97.535,306.252a52.816,52.816,0,0,0-9.392-6.829c-5.244-2.913-9.508-4.831-10.809-7.376s2.749-5.851,2.749-5.851-5.356,2.626-7.577.7-6.886-15.437-6.886-15.437,12.364,4.4,20.085,13.311S97.535,306.252,97.535,306.252Z" transform="translate(-65.62 -271.456)" fill="#ebebeb"/><path d="M99.724,304.989c-6.184-11.607-14.436-22.108-25.743-29.039a0,0,0,0,0-.005.007,56.8,56.8,0,0,1,8.276,6.476,13.107,13.107,0,0,0-6.647,1.4.039.039,0,0,0,.034.069,18.211,18.211,0,0,1,6.84-1.156.138.138,0,0,0,.077-.029q.6.571,1.189,1.158a21.034,21.034,0,0,0-3.552.471.025.025,0,0,0,.01.049,18.151,18.151,0,0,1,3.752-.309,77.647,77.647,0,0,1,5.832,6.622,5.931,5.931,0,0,0-2.484.18.048.048,0,0,0,.018.094,13.276,13.276,0,0,1,2.652-.036c.338.43.681.859,1.013,1.3a23.987,23.987,0,0,0-7.5.73.029.029,0,0,0,.011.058,30.215,30.215,0,0,1,7.708-.5c.315.418.614.849.923,1.272a16.275,16.275,0,0,0-4.467.512c-.056.014-.04.1.017.089a17.086,17.086,0,0,1,4.624-.36c1.33,1.833,2.6,3.706,3.829,5.6a4.173,4.173,0,0,0-1.96.118.028.028,0,0,0,.011.054,8.533,8.533,0,0,1,2.122.1q1.652,2.572,3.186,5.188C99.569,305.253,99.806,305.143,99.724,304.989Z" transform="translate(-68.453 -272.98)" fill="#fff"/><path d="M96.526,305.306a9.591,9.591,0,0,0-3.592.439c-.033.011-.025.06.01.054a27.79,27.79,0,0,1,3.572-.366A.064.064,0,0,0,96.526,305.306Z" transform="translate(-74.875 -282.924)" fill="#fff"/><path d="M81.191,283.9a6.165,6.165,0,0,0-1.656.1c-.065.01-.044.105.019.1.545-.058,1.082-.038,1.627-.054A.071.071,0,0,0,81.191,283.9Z" transform="translate(-70.325 -275.669)" fill="#fff"/></g><g transform="translate(85.573 279.809)"><g transform="translate(0 2.593)"><path d="M123.72,363.389H95.81l3.98-29.151,1.017-7.474h17.917l1.017,7.474Z" transform="translate(-95.81 -326.764)" fill="#dbdbdb"/><path d="M121.782,334.238H101.831l1.017-7.474h17.917Z" transform="translate(-97.852 -326.764)" fill="#c7c7c7"/></g><rect width="23.041" height="6.33" transform="translate(2.434 0)" fill="#dbdbdb"/></g></g><g transform="translate(5840.187 -5702.171) rotate(135)"><path d="M0,10.448A10.6,10.6,0,0,0,3.558,4.636C3.948,2.812,4.034,1.084,6,.278c5.018-2.058,6.549,7.983,4.312,8.671Z" transform="translate(44.135 13.367)" fill="#fff"/><g transform="translate(44.742 12.923)"><path d="M.955,10.054a5.233,5.233,0,0,0,1.93-3.495C3,6,3.1,5.407,3.218,4.8c.514-2.422,1.434-3.184,1.688-3.4C7.778-.655,9.437,2.729,9.547,3.04A4.348,4.348,0,0,1,9.87,4.575c.013.31.686.255.468-.44C10.255,3.226,9.567.088,6.692,0A4.984,4.984,0,0,0,4.819.576a4.665,4.665,0,0,0-2.186,3.06c-.1.333-.187.659-.262.974-.148.631-.264,1.219-.392,1.746-.063.264-.129.511-.2.741a3.5,3.5,0,0,1-1.431,2.3C-.7,10.383.955,10.054.955,10.054Z" fill="#405260"/></g><path d="M12.468,7.439c.9,3.169,2.363,6.564,2.677,9.826.051.529.029,1.048.05,1.577.011.269.12.781.1,1.04,1.488,3.358-3.326,5.666-6.061,4.8C4.1,23.063,1.3,15.644.262,11.044A12.017,12.017,0,0,1,1.92,2.054C3,.448,4.525-.477,6.493.254c.04.017-.061.022-.024.052C9.634.906,11.671,4.638,12.468,7.439Z" transform="translate(0.148 21.588)" fill="#fff"/><path d="M1.106,3.674C-.69,5.6.108,10.051.685,12.3c.893,3.481,1.2,6.9,3.046,9.937,2.024,3.332,3.583,3.479,8.832,4.041,4,.429,11.754-1.3,15.354-3.1,6.167-3.09,7.224-10.029,2.771-15.364C26.1,2.308,16.2-1.3,8.184.44,6.307.847,1.42,2.679.918,4.049Z" transform="translate(8.001 18.964)" fill="#fff"/><path d="M2.062,7.8c8.08.2,15.4-5.08,18.3-6.548,2.391-1.211,7.716-2.8,7.953,2.048.389,7.981-9.411,12.315-13.7,15.571C11.079,21.556,4.512,25.544,0,24.11Z" transform="translate(31.794 17.089)" fill="#fff"/><g transform="translate(9.316 16.801)"><path d="M29.829,7.192s.8.548,1.11.463A23.785,23.785,0,0,0,33.612,6.8a33.44,33.44,0,0,0,3.943-1.817c.737-.4,1.511-.836,2.308-1.329.2-.12,2.252-1.423,2.472-1.538a13.312,13.312,0,0,1,2.907-1.1A5.442,5.442,0,0,1,48.49.83c3.438.968,2.116,5.123,1.932,5.714a8.355,8.355,0,0,1-1.631,2.934C48,10.5,34.973,20.712,32.663,22.061a49.965,49.965,0,0,1-7.04,3.454c-.3.115-2.969,1.006-3.557,1.179-1.177.348-2.335.668-3.472.932a52.641,52.641,0,0,1-6.5.78,21.049,21.049,0,0,1-5.469-.832,12.616,12.616,0,0,1-3.837-1.82A8.465,8.465,0,0,1,1.6,24.718,10.462,10.462,0,0,1,0,22.159a9.439,9.439,0,0,0,1.477,2.678,8.662,8.662,0,0,0,1.2,1.066,12.817,12.817,0,0,0,3.885,1.873,21.275,21.275,0,0,0,5.523.876,53.159,53.159,0,0,0,6.573-.747c1.146-.259,2.312-.573,3.494-.914.592-.17,3.291-1.052,3.591-1.166a50.337,50.337,0,0,0,7.112-3.434c2.332-1.343,15.576-11.448,16.4-12.5A9.13,9.13,0,0,0,50.93,6.7a9.216,9.216,0,0,0,.393-1.914,6.376,6.376,0,0,0-.079-1.939A2.943,2.943,0,0,0,49.511.568,4.027,4.027,0,0,0,46.837.009a10.6,10.6,0,0,0-3.323.916,13.413,13.413,0,0,0-1.465.645c-.233.121-2.318,1.425-2.517,1.543-.791.482-1.557.91-2.285,1.3a32.78,32.78,0,0,1-3.874,1.757,23.114,23.114,0,0,1-2.6.811C30.465,7.058,29.829,7.192,29.829,7.192Z" fill="#405260"/></g><g transform="translate(0 21.298)"><path d="M10.949,25.513a7.048,7.048,0,0,1-4.1-1.461,14.667,14.667,0,0,1-4.136-5.146,25.018,25.018,0,0,1-2.257-6.5c-.8-3.7-.538-7.39.7-9.866l0-.008A4.843,4.843,0,0,1,5.1.016,4.07,4.07,0,0,1,8.741,1.474a.372.372,0,1,1-.593.448A3.336,3.336,0,0,0,5.163.757,4.1,4.1,0,0,0,1.818,2.879c-1.163,2.329-1.4,5.835-.634,9.38C1.9,15.9,3.928,21.007,7.29,23.454c.7.521,4.51,2.795,7.439-.583.135-.155.8.2.661.358A6.293,6.293,0,0,1,10.949,25.513Z" fill="#405260"/></g><path d="M4.26,5.147c-.138,2.046-.417,3.974-.433,6.007-.009.992.174,3.218-1.38,2.735a1.468,1.468,0,0,1-.7-.479C.292,12.5.048,8.561.005,7.364-.063,5.434.5.983,2.668.12,5.03-.82,4.335,4.041,4.26,5.147Z" transform="translate(1.799 22.799)" fill="#f7f7f7"/><path d="M1.248,26.021C-1,25.244.315,18.684,1.16,17.237a15.327,15.327,0,0,1,8.081-6.7c4.047-1.407,8.286-1.947,12.3-3.7a10.585,10.585,0,0,0,4.554-3c.887-1.123,1.43-2.793,2.7-3.472,2.606-1.4,4.547,1.5,5.01,3.989a12.66,12.66,0,0,1-1.276,7.5c-1.12,2.355-3.146,4.183-4.854,6.014-.733.786-3.105,2.677-3.724,3.578-.409.595,1.359.282,1.028.9-.122.227-.889,1.73-.472.947Z" transform="translate(7.233 0.285)" fill="#fff"/><path d="M28.9,3.777c-2.916.011-14.535-.6-17.28-2.09C8.976.247,2.756.768,0,0L2.7,10.328c1.072,2.157,7.261,3.046,9.329,3.441a47.615,47.615,0,0,0,8.916.638c2.619,0,6.488-.229,8.977-1.354,1.943-.879,5.8-1.96,6.54-4.9C37.434,4.28,30.659,3.771,28.9,3.777Z" transform="translate(26.095 22.088)" fill="#fff"/><g transform="translate(7.117 0)"><path d="M27.055,19.082c.807-.782,1.675-1.652,2.568-2.622.223-.243,1.223-1.427,1.324-1.569.412-.57.818-1.168,1.208-1.8a20.8,20.8,0,0,0,1.094-2.006A14.985,14.985,0,0,0,34.1,8.85a11.119,11.119,0,0,0,.426-2.458,7.578,7.578,0,0,0-.253-2.586C34.145,3.379,32.983,0,30.208,0a3.109,3.109,0,0,0-2.523,1.128A10.41,10.41,0,0,1,22.09,6.7a32.975,32.975,0,0,1-5.251,1.895l-2.648.745c-.219.063-2.155.642-2.576.774-.843.265-3.817,1.237-4.553,1.607a20.28,20.28,0,0,0-2.3,1.469,12.211,12.211,0,0,0-1.729,1.486,10.869,10.869,0,0,0-2.2,3.422A8.767,8.767,0,0,0,.28,19.787a11.308,11.308,0,0,0-.224,1.566C.018,21.844,0,22.3,0,22.722s0,.8.01,1.146c.015.661.04,1.166.061,1.512a2.193,2.193,0,0,0,.063.549c.021.018.039-.13.052-.452s.01-.817,0-1.488c-.005-.37-.009-.773,0-1.2s.03-.893.073-1.379A11.226,11.226,0,0,1,.5,19.883a8.1,8.1,0,0,1,.541-1.6A11.393,11.393,0,0,1,1.9,16.644a10.321,10.321,0,0,1,1.223-1.556,11.093,11.093,0,0,1,1.593-1.379,14.92,14.92,0,0,1,1.912-1.15,37.136,37.136,0,0,1,6.937-2.438c.832-.229,7.672-2.3,7.781-2.348A19.533,19.533,0,0,0,23.9,6.5,10.887,10.887,0,0,0,28.5,1.489C29.55.3,31.3.966,31.637,1.183a4.561,4.561,0,0,1,.915.808A8.642,8.642,0,0,1,33.8,7.777a12.786,12.786,0,0,1-.661,2.308,22.027,22.027,0,0,1-2.152,4.044,34.633,34.633,0,0,1-3.918,4.56,37.894,37.894,0,0,1-4.247,3.836,9.373,9.373,0,0,1-1.223.784c-.274.138-.4.168-.384.188a1,1,0,0,0,.518-.125A24.054,24.054,0,0,0,27.055,19.082Z" fill="#405260"/></g><g transform="translate(31.099 20.939)"><path d="M.747,0,0,.747A21.339,21.339,0,0,0,2.68,2.231a26.409,26.409,0,0,0,3.211.954,30.974,30.974,0,0,0,4.271.706c.2.016,4.833.2,5.056.207,9.121.636,10.623,1.094,11.6,1.351a11.112,11.112,0,0,1,2.671,1.12c1.265.559,1.37,1.259,1.447,1.466a3.757,3.757,0,0,1-.948,3.274,6.436,6.436,0,0,1-1.118.967,9.783,9.783,0,0,1-1.3.748,17.048,17.048,0,0,1-2.808,1.036c-.957.268-1.921.476-2.876.644a52.4,52.4,0,0,1-5.565.643c-1.781.118-6.556.177-7.267.169-.177,0-3.094-.046-3.167-.046s-2.594.208-2.795.232-2.2.208-2.2.208c-.921.071-.908.3.017.241,0,0,4.912-.378,4.984-.378l3.158.085c.712.017,5.506.016,7.3-.08a52.918,52.918,0,0,0,5.623-.58c.97-.159,1.951-.358,2.933-.62a17.6,17.6,0,0,0,2.914-1.035,10.394,10.394,0,0,0,1.383-.777,7.071,7.071,0,0,0,1.237-1.046,6.17,6.17,0,0,0,.981-1.583,2.746,2.746,0,0,0-.3-3.1A4.59,4.59,0,0,0,29.83,5.974,10.247,10.247,0,0,0,28.372,5.3c-.249-.089-1.374-.447-1.5-.482-1-.278-2.012-.485-3.01-.66-.25-.041-2.719-.4-2.963-.429-1.95-.231-3.839-.382-5.632-.493-.224-.014-4.831-.249-5.02-.266a30.03,30.03,0,0,1-4.126-.734,25.462,25.462,0,0,1-3.076-.954A17.686,17.686,0,0,1,.747,0Z" fill="#405260"/></g><path d="M6.511,2.375C6.4,1.83,5.874.326,5.289.091A.84.84,0,0,0,4.723.057L4.755,0c-1.1.012-1.109,1.276-1.528,2A8.515,8.515,0,0,1,1.034,4.156c-2.117,1.838-.752,4.351,2,3.315C5.054,6.711,6.958,4.671,6.511,2.375Z" transform="translate(32.175 2.649)" fill="#f7f7f7"/><path d="M12.6,2.658C12.175.949,9.463.858,8.1.786L7.864.774C6.545.519,5.043.443,4.072.259A5.027,5.027,0,0,0,.978.252C-.1.8-.38,1.891.6,2.63c.941.707,2.745.413,3.85.56a29.538,29.538,0,0,1,3.28.59C8.8,4.049,13.321,5.512,12.6,2.658Z" transform="translate(46.826 26.234)" fill="#f7f7f7"/></g></g><path d="M7191.354-5278.436s4.11-.558,5.174,0,2.421,1.87,2.368,2.971-.2,2.209-1.606,2.511-8.711.354-11.924.807a29.773,29.773,0,0,0-10.928,4.6,16.933,16.933,0,0,0-3.424,3.221l.86-3.221a12.657,12.657,0,0,1,6.78-7.919C7184.082-5277.856,7191.354-5278.436,7191.354-5278.436Z" transform="translate(-1423 -483)" fill="#212121"/><g transform="translate(5750 -5744)" fill="#fff" stroke="#212121" stroke-width="1"><rect width="28" height="13" rx="3" stroke="none"/><rect x="0.5" y="0.5" width="27" height="12" rx="2.5" fill="none"/></g><g transform="translate(5814 -5743)" fill="#fff" stroke="#212121" stroke-width="1"><rect width="28" height="13" rx="3" stroke="none"/><rect x="0.5" y="0.5" width="27" height="12" rx="2.5" fill="none"/></g><path d="M7178.556-5278.436s-4.11-.558-5.174,0-2.421,1.87-2.368,2.971.2,2.209,1.606,2.511,8.711.354,11.924.807a29.773,29.773,0,0,1,10.928,4.6,16.933,16.933,0,0,1,3.424,3.221l-.86-3.221a12.657,12.657,0,0,0-6.78-7.919C7185.828-5277.856,7178.556-5278.436,7178.556-5278.436Z" transform="translate(-1351 -481)" fill="#212121"/><path d="M6.5,0A6.5,6.5,0,1,1,0,6.5,6.5,6.5,0,0,1,6.5,0Z" transform="translate(5758 -5744)" fill="#212121"/><circle cx="6.5" cy="6.5" r="6.5" transform="translate(5822 -5743)" fill="#212121"/><circle cx="2.5" cy="2.5" r="2.5" transform="translate(5760 -5742)" fill="#fff"/><circle cx="2.5" cy="2.5" r="2.5" transform="translate(5824 -5741)" fill="#fff"/><circle cx="1" cy="1" r="1" transform="translate(5766 -5736)" fill="#fff"/><circle cx="1" cy="1" r="1" transform="translate(5830 -5735)" fill="#fff"/></g></svg>