<svg xmlns="http://www.w3.org/2000/svg" width="126" height="126" viewBox="0 0 126 126">
  <g id="gambarhapus" transform="translate(-119 -194)">
    <path id="Path_97" data-name="Path 97" d="M54,0A54,54,0,1,1,0,54,54,54,0,0,1,54,0Z" transform="translate(128 205)" fill="#fff3f5"/>
    <g id="gambarhapus-2" data-name="gambarhapus">
      <g id="gambarhapusproduk" transform="translate(10.005 9.627)">
        <path id="Path_17" data-name="Path 17" d="M970.922,2368.629l.821,5.792-1.593,2.413s2.365,1.834,2.51,1.834h2.848l3.282-1.834.386,1.544,2.269.532,3.137-2.8-1.207-2.558,1.931-3.186s-1.4-2.655-1.5-2.8a22.681,22.681,0,0,0-4.055-1.834,11.76,11.76,0,0,1-1.979-.482l-.435.482,1.448,3.185-5.213-3.668L970.632,2368Z" transform="translate(-792.995 -2145.018)" fill="#8e8e8e"/>
        <g id="delete_2_" data-name="delete (2)" transform="translate(143.52 198.373)">
          <path id="Path_11" data-name="Path 11" d="M157.288,137.25H122.417a5.454,5.454,0,0,0-5.441,5.759l2.526,44.435a7.771,7.771,0,0,0,7.753,7.325h25.194a7.771,7.771,0,0,0,7.753-7.325l2.526-44.435A5.454,5.454,0,0,0,157.288,137.25Zm2.376,5.585-2.526,44.435a4.7,4.7,0,0,1-4.688,4.429H127.255a4.7,4.7,0,0,1-4.688-4.429l-2.526-44.435a2.378,2.378,0,0,1,2.376-2.515h34.871A2.378,2.378,0,0,1,159.664,142.835Z" transform="translate(-111.126 -98.059)" fill="#eb2843"/>
          <path id="Path_12" data-name="Path 12" d="M48.828,10.57l-.449-2.628A5.057,5.057,0,0,0,42.54,3.805L31.37,5.711l-.447-2.621A3.713,3.713,0,0,0,26.636.054L17.969,1.533A3.713,3.713,0,0,0,14.932,5.82l.447,2.621L4.21,10.347A5.057,5.057,0,0,0,.073,16.186l.449,2.628A1.535,1.535,0,0,0,2.293,20.07l45.28-7.729A1.535,1.535,0,0,0,48.828,10.57ZM17.958,5.3a.645.645,0,0,1,.528-.745l8.667-1.479a.645.645,0,0,1,.744.528l.447,2.621-9.939,1.7ZM3.29,16.785,3.1,15.67a1.989,1.989,0,0,1,1.627-2.3C45.828,6.358,43.132,6.8,43.4,6.8a1.99,1.99,0,0,1,1.957,1.656l.19,1.116Z" transform="translate(0 14.282) rotate(-17)" fill="#eb2843"/>
          <path id="Path_13" data-name="Path 13" d="M242.04,175.217a4.362,4.362,0,0,0-4.357,4.358v2.209a1.535,1.535,0,1,0,3.07,0v-2.209a1.288,1.288,0,1,1,2.576,0v36.6a1.288,1.288,0,0,1-2.576,0V194.063a1.535,1.535,0,1,0-3.07,0v22.115a4.357,4.357,0,0,0,8.715,0v-36.6A4.363,4.363,0,0,0,242.04,175.217Z" transform="translate(-213.315 -130.199)" fill="#eb2843"/>
          <path id="Path_14" data-name="Path 14" d="M162.7,179.514a4.357,4.357,0,0,0-8.7.481l2.018,36.547a4.357,4.357,0,0,0,8.7-.481Zm-2.262,38.073a1.294,1.294,0,0,1-1.357-1.215l-2.018-36.547a1.287,1.287,0,0,1,1.215-1.357l.073,0a1.287,1.287,0,0,1,1.284,1.217l2.018,36.547A1.288,1.288,0,0,1,160.434,217.588Z" transform="translate(-142.465 -130.351)" fill="#eb2843"/>
          <path id="Path_15" data-name="Path 15" d="M314.844,175.407a4.362,4.362,0,0,0-4.591,4.11l-2.018,36.547a4.357,4.357,0,1,0,8.7.48L318.955,180A4.355,4.355,0,0,0,314.844,175.407Zm1.046,4.422-2.018,36.547a1.288,1.288,0,0,1-2.572-.142l2.018-36.547a1.288,1.288,0,0,1,2.572.142Z" transform="translate(-273.033 -130.354)" fill="#eb2843"/>
          <path id="Path_16" data-name="Path 16" d="M239.217,251.088a1.535,1.535,0,0,0,1.535-1.535v0a1.535,1.535,0,1,0-1.535,1.539Z" transform="translate(-213.314 -191.824)" fill="#eb2843"/>
        </g>
        <path id="Shape" d="M42.28,35.762l-1.395-2.781a1.513,1.513,0,0,0-.772-.719l-4.192-1.741a1.509,1.509,0,0,0-1.42.139l-1.765,1.179-1.579-1.225a1.518,1.518,0,0,0-1.916.05L27.2,32.429a1.513,1.513,0,0,0-.51,1.333l.323,2.558-1.926,1.727a1.513,1.513,0,0,0-.388,1.7l1.518,3.676a1.513,1.513,0,0,0,.9.852l3.855,1.356a1.523,1.523,0,0,0,1.342-.169l1.853-1.238,2.79,1.391a1.513,1.513,0,0,0,1.636-.186l2.7-2.225a1.508,1.508,0,0,0,.3-2.008L40.6,39.72l1.6-2.455A1.519,1.519,0,0,0,42.28,35.762Zm-.929.953-1.778,2.733-1.53,2.23a.5.5,0,0,0,.831.571l1.115-1.625.76,1.137a.5.5,0,0,1-.1.669l-2.7,2.225a.5.5,0,0,1-.545.062L35.13,43.582l.535-.357a.5.5,0,1,0-.561-.839l-1.258.84-2.094,1.4a.511.511,0,0,1-.447.056l-3.856-1.356a.5.5,0,0,1-.3-.283l-1.519-3.676a.5.5,0,0,1,.13-.568l1.453-1.3.539,2.893a.5.5,0,0,0,.5.412.489.489,0,0,0,.093-.009.5.5,0,0,0,.4-.588l-.7-3.763-.353-2.8a.5.5,0,0,1,.17-.444l2.04-1.765a.5.5,0,0,1,.639-.017l1.86,1.443,2.789,2.365a.5.5,0,0,0,.652-.769l-2.29-1.942L35.064,31.5a.5.5,0,0,1,.474-.046L39.729,33.2a.5.5,0,0,1,.258.239l1.4,2.778a.508.508,0,0,1-.031.5Z" transform="translate(150.315 189.102)" fill="#405260"/>
      </g>
      <rect id="Rectangle_235" data-name="Rectangle 235" width="126" height="126" transform="translate(119 194)" fill="none"/>
    </g>
  </g>
</svg>
