<svg xmlns="http://www.w3.org/2000/svg" width="112" height="112" viewBox="0 0 112 112"><defs><style>.a{fill:#f8e8e6;}.b{fill:#405260;}.c{fill:#eb2843;}</style></defs><g transform="translate(-128 -201)"><circle class="a" cx="56" cy="56" r="56" transform="translate(128 201)"/><g transform="translate(145.706 211.396)"><path class="b" d="M0,66.8V79.783a2.164,2.164,0,0,0,2.164,2.164H32.458a2.164,2.164,0,0,0,2.164-2.164V66.8a2.164,2.164,0,0,0-2.164-2.164H30.295V62.5a15.133,15.133,0,0,1,.479-3.778L34.11,45.758a10.923,10.923,0,0,0-.294-5.585L22.269,4.7A6.418,6.418,0,0,0,16.034,0,6.124,6.124,0,0,0,14.3.24a6.059,6.059,0,0,0-1.948.926A6.418,6.418,0,0,0,9.781,8.182l4.068,15.24a6.5,6.5,0,0,0-4.406,4.544L2.75,47.426a10.782,10.782,0,0,0-.586,3.508v5.442a15.106,15.106,0,0,0,2.463,8.26H2.164A2.164,2.164,0,0,0,0,66.8Zm25.967-4.3v2.136H9.813l-1.5-2.257a10.791,10.791,0,0,1-1.818-6V50.934a6.45,6.45,0,0,1,.353-2.108l6.736-19.6a2.192,2.192,0,0,1,2.571-1.705,2.73,2.73,0,0,1,.288.093,2.1,2.1,0,0,1,1.435,2.012,1.811,1.811,0,0,1-.063.511L13.879,44.817a2.164,2.164,0,0,0,4.181,1.121l3.917-14.632a5.955,5.955,0,0,0,.216-1.681,6.431,6.431,0,0,0-3.778-5.886L13.948,7.055a2.127,2.127,0,0,1,.866-2.335,1.913,1.913,0,0,1,.662-.316,2.138,2.138,0,0,1,2.642,1.5L29.7,41.51a6.492,6.492,0,0,1,.193,3.283L26.584,57.644A19.544,19.544,0,0,0,25.967,62.5ZM4.328,68.964H30.295v8.656H4.328Z" transform="translate(81.835 57.357) rotate(87)"/><path class="c" d="M67.1,13.05,42.143,2.131a1.56,1.56,0,0,0-1.248,0L15.936,13.05A1.56,1.56,0,0,0,15,14.479v31.2a1.56,1.56,0,0,0,.852,1.39l24.959,12.7a1.56,1.56,0,0,0,.708.17,1.577,1.577,0,0,0,.7-.165L67.178,47.228a1.56,1.56,0,0,0,.86-1.395V14.479A1.56,1.56,0,0,0,67.1,13.05ZM41.519,5.262l21.067,9.218L41.519,23.7l-5.475-2.4,8.332-3.646a1.56,1.56,0,0,0,0-2.858l-6.694-2.919a1.56,1.56,0,0,0-1.248,0L25.466,16.672,20.46,14.479Zm-14.039,15.7,3.12,1.365v6.79l-3.12-1.56Zm1.872-2.583,7.7-3.365,2.792,1.218L32.159,19.6ZM18.12,16.864l6.24,2.73v8.924a1.56,1.56,0,0,0,.863,1.4l6.24,3.12a1.56,1.56,0,0,0,2.257-1.4V23.683l6.24,2.73V55.831L18.12,44.721ZM43.079,55.845V26.419l21.839-9.555V44.871Z" transform="translate(0.713 -2.001)"/><path class="c" d="M41.11,29.293l-6.251,3.142a1.561,1.561,0,0,0,1.4,2.788l6.251-3.142a1.561,1.561,0,0,0-1.4-2.788Z" transform="translate(11.352 13.187)"/><path class="c" d="M35.561,31.371a1.56,1.56,0,0,0,.7-.165l6.162-3.1a1.561,1.561,0,0,0-1.4-2.788l-6.16,3.1a1.56,1.56,0,0,0,.7,2.953Z" transform="translate(11.351 10.964)"/></g><path class="b" d="M929.066,3201.375h12.011l2.266,29.006H930.2Z" transform="translate(-780.897 -2925.624)"/></g></svg>