<svg xmlns="http://www.w3.org/2000/svg" width="126" height="126" viewBox="0 0 126 126"><defs><style>.a{fill:#f8e8e6;}.b{fill:#ffc107;}.c{fill:#eb2843;}.d{fill:#fafafa;}.e{fill:#455a64;}.f{fill:none;}</style></defs><g transform="translate(-122 -211)"><g transform="translate(9.202 0.047)"><path class="a" d="M163.876,102.818a46.837,46.837,0,0,1-21.143,39.131H91.465a46.778,46.778,0,1,1,72.411-39.131Z" transform="translate(66.881 170.714)"/><g transform="translate(116.843 254.802)"><g transform="translate(0 7.12)"><path class="b" d="M28.478,147.56a3.561,3.561,0,0,0-3.56-3.56H3.56a3.56,3.56,0,0,0,0,7.12H24.919A3.561,3.561,0,0,0,28.478,147.56Z" transform="translate(0 -144)"/><path class="b" d="M49.8,208H35.56a3.56,3.56,0,0,0,0,7.12H49.8a3.56,3.56,0,0,0,0-7.12Z" transform="translate(-24.88 -193.761)"/><path class="b" d="M74.679,272H67.56a3.56,3.56,0,0,0,0,7.12h7.12a3.56,3.56,0,0,0,0-7.12Z" transform="translate(-49.761 -243.522)"/></g><path class="c" d="M362.212,195.529l-10.679-17.8a3.552,3.552,0,0,0-3.054-1.73H323.56a3.561,3.561,0,0,0-3.56,3.56v35.6a3.561,3.561,0,0,0,3.56,3.56h35.6a3.561,3.561,0,0,0,3.56-3.56v-17.8A3.507,3.507,0,0,0,362.212,195.529Z" transform="translate(-248.804 -161.761)"/><path class="d" d="M384,208h12.224l8.543,14.239H384Z" transform="translate(-298.565 -186.641)"/><path class="b" d="M149.4,112H99.56A3.561,3.561,0,0,0,96,115.56V165.4a3.561,3.561,0,0,0,3.56,3.56h53.4v-53.4A3.561,3.561,0,0,0,149.4,112Z" transform="translate(-74.641 -112)"/><circle class="d" cx="7.294" cy="7.294" r="7.294" transform="translate(88.699 45.591)"/><path class="e" d="M394.679,325.359a10.679,10.679,0,1,1,10.679-10.679A10.692,10.692,0,0,1,394.679,325.359Zm0-14.239a3.56,3.56,0,1,0,3.56,3.56A3.57,3.57,0,0,0,394.679,311.12Z" transform="translate(-298.565 -261.282)"/><path class="c" d="M152.957,318.239H99.56A3.561,3.561,0,0,1,96,314.68V304h56.957Z" transform="translate(-74.641 -261.282)"/><circle class="d" cx="7.294" cy="7.294" r="7.294" transform="translate(38.686 45.591)"/><path class="e" d="M170.679,325.359a10.679,10.679,0,1,1,10.679-10.679A10.692,10.692,0,0,1,170.679,325.359Zm0-14.239a3.56,3.56,0,1,0,3.56,3.56A3.566,3.566,0,0,0,170.679,311.12Z" transform="translate(-124.402 -261.282)"/></g></g><rect class="f" width="126" height="126" transform="translate(122 211)"/></g></svg>