<svg id="Capa_1" enable-background="new 0 0 512 512" height="512" viewBox="0 0 512 512" width="512" xmlns="http://www.w3.org/2000/svg"><g><g><g><g><g><g><g><path d="m6.497 313.562c-4.251-18.502-6.497-37.77-6.497-57.562 0-141.385 114.615-256 256-256s256 114.615 256 256-114.615 256-256 256c-89.011 0-167.411-45.428-213.282-114.363z" fill="#ff6c52"/></g></g></g></g></g></g><path d="m509.339 293.042-219.793-219.793-54.011 54.01 101.941 101.94-9.812 13.642 75.576 75.576-22.346 17.316-67.962-67.963-7.966 3.188-146.12-146.118-15 38.251-49.164 25.913 125.095 125.095-177.059 83.537 71.645 71.645c40.562 26.991 89.263 42.719 141.637 42.719 128.805 0 235.392-95.126 253.339-218.958z" fill="#f92814"/><g><path d="m391.041 299.159-92.656 57.914-65.348-36.226 72.507-19.471c9.459-4.715 14.256-15.472 11.443-25.663-2.947-10.68-13.344-17.526-24.316-16.012l-92.833 2.652c-12.448.355-24.814 2.139-36.856 5.314l-156.485 45.894c6.998 30.458 19.43 58.842 36.221 84.076 48.091-18.444 95.811-36.194 95.811-36.194l120.379 45.451c21.24 7.944 45.024 4.97 63.654-7.96l112.438-80.217-6.853-11.365c-7.879-12.659-24.629-16.358-37.106-8.193z" fill="#ffdecf"/></g><g fill="#ffcdbe"><path d="m305.544 301.376c9.459-4.715 14.256-15.472 11.443-25.663-2.947-10.68-13.344-17.526-24.316-16.012l-36.609 1.046v53.916z"/><path d="m428.147 307.352c-7.879-12.659-24.629-16.357-37.106-8.193l-92.656 57.914-42.323-23.462v72.207l2.846 1.075c21.24 7.944 45.024 4.97 63.654-7.96l112.438-80.216z"/></g><path d="m313.557 97.259h-24.011v-24.01h-30v24.01h-24.011v30h24.011v24.011h30v-24.011h24.011z" fill="#ffce00"/><path d="m193.01 159.004h-34.164v-34.164h-30v34.164h-34.164v30h34.164v34.164h30v-34.164h34.164z" fill="#ffce00"/><path d="m415.032 212.841h-28.683v-28.684h-30v28.684h-28.685v30h28.685v28.684h30v-28.684h28.683z" fill="#a3d4ff"/></g></svg>