<svg xmlns="http://www.w3.org/2000/svg" width="16.842" height="20" viewBox="0 0 16.842 20">
  <g id="icon-account-red" transform="translate(-3.55 -2)">
    <g id="Group">
      <g id="Vector">
        <path id="Path_939" data-name="Path 939" d="M20.392,22H18.365a6.305,6.305,0,0,0-6.395-6.2A6.305,6.305,0,0,0,5.577,22H3.55a8.334,8.334,0,0,1,8.421-8.226A8.334,8.334,0,0,1,20.392,22Z" fill="red"/>
        <path id="Path_940" data-name="Path 940" d="M20.392,22H18.365a6.305,6.305,0,0,0-6.395-6.2A6.305,6.305,0,0,0,5.577,22H3.55a8.334,8.334,0,0,1,8.421-8.226A8.334,8.334,0,0,1,20.392,22Z" fill="none"/>
      </g>
      <g id="Vector_2">
        <path id="Path_941" data-name="Path 941" d="M11.971,13.116A5.558,5.558,0,1,1,17.53,7.558,5.565,5.565,0,0,1,11.971,13.116Zm0-9.089A3.531,3.531,0,1,0,15.5,7.558,3.535,3.535,0,0,0,11.971,4.027Z" fill="red"/>
        <path id="Path_942" data-name="Path 942" d="M11.971,13.116A5.558,5.558,0,1,1,17.53,7.558,5.565,5.565,0,0,1,11.971,13.116Zm0-9.089A3.531,3.531,0,1,0,15.5,7.558,3.535,3.535,0,0,0,11.971,4.027Z" fill="none"/>
      </g>
    </g>
  </g>
</svg>
