<svg xmlns="http://www.w3.org/2000/svg" width="19.995" height="20" viewBox="0 0 19.995 20">
  <g id="icon-heart-red" transform="translate(-2 -2)">
    <g id="Group_17" data-name="Group 17">
      <g id="Group">
        <g id="Group_2">
          <g id="Vector">
            <path id="Path_935" data-name="Path 935" d="M17.708,3.132a3.337,3.337,0,0,0-5.294.372c-.053.074-.1.148-.148.221-.046-.073-.1-.147-.148-.221a3.337,3.337,0,0,0-5.294-.372,3.906,3.906,0,0,0-.956,2.609A4.721,4.721,0,0,0,7.179,8.863a28.345,28.345,0,0,0,3.2,2.962c.48.4.975.823,1.5,1.28a.586.586,0,0,0,.767,0c.527-.457,1.023-.875,1.5-1.28.833-.7,1.553-1.311,2.178-1.9,1.213-1.144,2.335-2.443,2.335-4.183A3.906,3.906,0,0,0,17.708,3.132ZM15.525,9.072c-.6.567-1.309,1.165-2.13,1.857-.365.308-.739.624-1.13.959-.391-.335-.766-.651-1.131-.959-2.555-2.156-4.1-3.458-4.1-5.188A2.4,2.4,0,0,1,9.359,3.172a2.156,2.156,0,0,1,1.787.989,3.941,3.941,0,0,1,.555,1.1.586.586,0,0,0,1.129,0c.006-.021.6-2.089,2.342-2.089a2.4,2.4,0,0,1,2.321,2.569C17.492,6.8,16.941,7.736,15.525,9.072Z" fill="red"/>
            <path id="Path_936" data-name="Path 936" d="M17.708,3.132a3.337,3.337,0,0,0-5.294.372c-.053.074-.1.148-.148.221-.046-.073-.1-.147-.148-.221a3.337,3.337,0,0,0-5.294-.372,3.906,3.906,0,0,0-.956,2.609A4.721,4.721,0,0,0,7.179,8.863a28.345,28.345,0,0,0,3.2,2.962c.48.4.975.823,1.5,1.28a.586.586,0,0,0,.767,0c.527-.457,1.023-.875,1.5-1.28.833-.7,1.553-1.311,2.178-1.9,1.213-1.144,2.335-2.443,2.335-4.183A3.906,3.906,0,0,0,17.708,3.132ZM15.525,9.072c-.6.567-1.309,1.165-2.13,1.857-.365.308-.739.624-1.13.959-.391-.335-.766-.651-1.131-.959-2.555-2.156-4.1-3.458-4.1-5.188A2.4,2.4,0,0,1,9.359,3.172a2.156,2.156,0,0,1,1.787.989,3.941,3.941,0,0,1,.555,1.1.586.586,0,0,0,1.129,0c.006-.021.6-2.089,2.342-2.089a2.4,2.4,0,0,1,2.321,2.569C17.492,6.8,16.941,7.736,15.525,9.072Z" fill="none"/>
          </g>
        </g>
      </g>
      <g id="Group_3">
        <g id="Group_4">
          <g id="Vector_2">
            <path id="Path_937" data-name="Path 937" d="M20.238,13.8a1.763,1.763,0,0,0-1.286.56L17.23,16.207a1.761,1.761,0,0,0-1.679-1.237H12.845a1.556,1.556,0,0,1-1.029-.388,4.109,4.109,0,0,0-5.374-.037A1.756,1.756,0,0,0,5.007,13.8H2.586A.586.586,0,0,0,2,14.384v7.03A.586.586,0,0,0,2.586,22H5.007a1.753,1.753,0,0,0,1.321-.6l.347.1a13.471,13.471,0,0,0,3.646.5h5.231a4.12,4.12,0,0,0,3.28-1.64l2.813-3.75h0A1.757,1.757,0,0,0,20.238,13.8ZM5.593,20.243a.586.586,0,0,1-.586.586H3.172V14.97H5.007a.586.586,0,0,1,.586.586Zm15.114-4.336h0l-2.812,3.75a2.943,2.943,0,0,1-2.343,1.172H10.321a12.3,12.3,0,0,1-3.329-.459l-.229-.064c0-.021,0-.042,0-.062V15.821l.408-.359a2.935,2.935,0,0,1,3.87,0,2.727,2.727,0,0,0,1.8.68h2.706a.586.586,0,0,1,0,1.172H11.388a.586.586,0,1,0,0,1.172h4.556a1.763,1.763,0,0,0,1.286-.56l2.579-2.769a.58.58,0,0,1,.429-.187.586.586,0,0,1,.586.586A.58.58,0,0,1,20.707,15.907Z" fill="red"/>
            <path id="Path_938" data-name="Path 938" d="M20.238,13.8a1.763,1.763,0,0,0-1.286.56L17.23,16.207a1.761,1.761,0,0,0-1.679-1.237H12.845a1.556,1.556,0,0,1-1.029-.388,4.109,4.109,0,0,0-5.374-.037A1.756,1.756,0,0,0,5.007,13.8H2.586A.586.586,0,0,0,2,14.384v7.03A.586.586,0,0,0,2.586,22H5.007a1.753,1.753,0,0,0,1.321-.6l.347.1a13.471,13.471,0,0,0,3.646.5h5.231a4.12,4.12,0,0,0,3.28-1.64l2.813-3.75h0A1.757,1.757,0,0,0,20.238,13.8ZM5.593,20.243a.586.586,0,0,1-.586.586H3.172V14.97H5.007a.586.586,0,0,1,.586.586Zm15.114-4.336h0l-2.812,3.75a2.943,2.943,0,0,1-2.343,1.172H10.321a12.3,12.3,0,0,1-3.329-.459l-.229-.064c0-.021,0-.042,0-.062V15.821l.408-.359a2.935,2.935,0,0,1,3.87,0,2.727,2.727,0,0,0,1.8.68h2.706a.586.586,0,0,1,0,1.172H11.388a.586.586,0,1,0,0,1.172h4.556a1.763,1.763,0,0,0,1.286-.56l2.579-2.769a.58.58,0,0,1,.429-.187.586.586,0,0,1,.586.586A.58.58,0,0,1,20.707,15.907Z" fill="none"/>
          </g>
        </g>
      </g>
    </g>
  </g>
</svg>
