<svg width="16.842" height="20" viewBox="0 0 16 16" fill="none" xmlns="http://www.w3.org/2000/svg">
<path d="M11.7292 6.22921H10.7907V4.0878C10.7907 2.569 9.52902 1.33337 7.97821 1.33337C6.4274 1.33337 5.16571 2.569 5.16571 4.0878V6.22921H4.22917C3.36761 6.22921 2.66667 6.93015 2.66667 7.79171V13.1042C2.66667 13.9658 3.36761 14.6667 4.22917 14.6667H11.7292C12.5907 14.6667 13.2917 13.9658 13.2917 13.1042V7.79171C13.2917 6.93015 12.5907 6.22921 11.7292 6.22921ZM6.20737 4.0878C6.20737 3.14337 7.00178 2.37504 7.97821 2.37504C8.95464 2.37504 9.74904 3.14337 9.74904 4.0878V6.22921H6.20737V4.0878ZM12.25 13.1042C12.25 13.3914 12.0164 13.625 11.7292 13.625H4.22917C3.94198 13.625 3.70834 13.3914 3.70834 13.1042V7.79171C3.70834 7.50452 3.94198 7.27087 4.22917 7.27087H11.7292C12.0164 7.27087 12.25 7.50452 12.25 7.79171V13.1042Z" fill="#7A7A7A"/>
<path d="M7.97917 8.78125C7.44701 8.78125 7.01562 9.21263 7.01562 9.74479C7.01562 10.0846 7.19167 10.3831 7.45737 10.5546V11.6979C7.45737 11.9855 7.69055 12.2188 7.9782 12.2188C8.26583 12.2188 8.49904 11.9855 8.49904 11.6979V10.5559C8.76581 10.3845 8.94271 10.0854 8.94271 9.74479C8.94271 9.21263 8.51133 8.78125 7.97917 8.78125Z" fill="#7A7A7A"/>
</svg>
