<svg width="16" height="16" viewBox="0 0 16 16" fill="none" xmlns="http://www.w3.org/2000/svg">
<path d="M11.6967 9.81687C11.3385 9.81687 11.049 10.1064 11.049 10.4646V12.499C11.049 12.8566 10.7588 13.1467 10.4013 13.1467H3.27645C2.9189 13.1467 2.62875 12.8566 2.62875 12.499V4.07883C2.62875 3.72128 2.91893 3.43113 3.27645 3.43113H7.03963C7.3978 3.43113 7.68733 3.14161 7.68733 2.78344C7.68733 2.42527 7.3978 2.13574 7.03963 2.13574H3.27645C2.20514 2.13569 1.33333 3.00752 1.33333 4.07883V12.499C1.33333 13.5703 2.20514 14.4421 3.27645 14.4421H10.4012C11.4725 14.4421 12.3443 13.571 12.3443 12.499V10.4646C12.3444 10.1064 12.0548 9.81687 11.6967 9.81687Z" fill="#7A7A7A"/>
<path d="M13.9423 2.05386C13.4721 1.58364 12.858 1.34656 12.2395 1.33362C11.5885 1.31937 10.9337 1.55512 10.4414 2.04803L6.05641 6.43302C5.41648 7.07556 5.06411 7.92794 5.06411 8.83342V10.2843C5.06411 10.6424 5.35364 10.932 5.71181 10.932H7.16267C8.06817 10.932 8.92055 10.5796 9.56372 9.93902L13.9429 5.55986C14.908 4.59418 14.908 3.02025 13.9423 2.05386ZM8.64855 9.02258C8.2515 9.41833 7.72297 9.63661 7.16272 9.63661H6.35953V8.83345C6.35953 8.27317 6.57781 7.74464 6.97291 7.34824L9.86364 4.45752L11.5386 6.13248L8.64855 9.02258ZM13.0264 4.6447L12.4545 5.21664L10.7795 3.54167L11.3514 2.96976C11.8139 2.50729 12.5652 2.50859 13.0264 2.96976C13.4876 3.43155 13.4876 4.18288 13.0264 4.6447Z" fill="#7A7A7A"/>
</svg>
