<svg width="104" height="104" viewBox="0 0 104 104" fill="none" xmlns="http://www.w3.org/2000/svg">
<circle cx="52" cy="52" r="52" fill="url(#paint0_linear)"/>
<g clip-path="url(#clip0)">
<path d="M63.968 35.7192C66.6556 35.7155 69.3424 35.8715 72.0299 36.188C73.6311 36.3763 74.8713 37.6846 74.9723 39.2945C75.5048 47.7651 75.5048 56.2357 74.9723 64.7063C74.8713 66.3164 73.6311 67.6246 72.0299 67.8128C69.3424 68.1292 66.6556 68.2853 63.968 68.2816C61.8109 68.2779 59.6537 68.1717 57.4957 67.9615C57.0349 67.9168 56.5735 67.867 56.1121 67.8128C54.5108 67.6246 53.2707 66.3163 53.1696 64.7063C52.6371 56.2357 52.6371 47.7651 53.1696 39.2945C53.2707 37.6845 54.5108 36.3763 56.1121 36.188C56.5735 36.1338 57.035 36.084 57.4957 36.0393C59.6537 35.8291 61.8109 35.7228 63.968 35.7192Z" fill="#FFC248"/>
<path d="M74.9761 64.6429C74.9753 64.6642 74.9739 64.6854 74.9724 64.7066C74.8714 66.3167 73.6312 67.6249 72.03 67.8131C69.3425 68.1295 66.6557 68.2856 63.9681 68.2819C61.811 68.2782 59.6538 68.172 57.4958 67.9618C57.035 67.9171 56.5736 67.8673 56.1122 67.8131C54.5109 67.6249 53.2708 66.3166 53.1697 64.7066C53.1682 64.6847 53.1668 64.6634 53.1661 64.6415C53.7118 65.5278 54.6435 66.1534 55.7349 66.2815C56.2176 66.3386 56.7011 66.3907 57.1838 66.4375C59.4443 66.6573 61.7041 66.7687 63.9631 66.7723C66.778 66.7767 69.5923 66.6134 72.4073 66.2815C73.4986 66.1533 74.4296 65.5284 74.9761 64.6429Z" fill="#F5A300"/>
<path d="M71.2214 65.8245H68.7724C68.3723 65.8245 68.0481 65.5002 68.0481 65.1002C68.0481 64.7001 68.3724 64.3759 68.7724 64.3759H71.2214C71.6215 64.3759 71.9457 64.7001 71.9457 65.1002C71.9458 65.5002 71.6215 65.8245 71.2214 65.8245Z" fill="#292929"/>
<path d="M71.2214 63.8985H68.7724C68.3723 63.8985 68.0481 63.5742 68.0481 63.1741C68.0481 62.7741 68.3724 62.4498 68.7724 62.4498H71.2214C71.6215 62.4498 71.9457 62.7741 71.9457 63.1741C71.9457 63.5742 71.6215 63.8985 71.2214 63.8985Z" fill="#292929"/>
<path d="M71.2214 61.9728H68.7724C68.3723 61.9728 68.0481 61.6485 68.0481 61.2485C68.0481 60.8484 68.3724 60.5242 68.7724 60.5242H71.2214C71.6215 60.5242 71.9457 60.8484 71.9457 61.2485C71.9458 61.6484 71.6215 61.9728 71.2214 61.9728Z" fill="#292929"/>
<path d="M71.2214 58.9149H68.7724C68.3723 58.9149 68.0481 58.5907 68.0481 58.1906C68.0481 57.7906 68.3724 57.4663 68.7724 57.4663H71.2214C71.6215 57.4663 71.9457 57.7906 71.9457 58.1906C71.9458 58.5906 71.6215 58.9149 71.2214 58.9149Z" fill="#292929"/>
<path d="M71.2214 56.9889H68.7724C68.3723 56.9889 68.0481 56.6646 68.0481 56.2646C68.0481 55.8646 68.3724 55.5403 68.7724 55.5403H71.2214C71.6215 55.5403 71.9457 55.8646 71.9457 56.2646C71.9458 56.6646 71.6215 56.9889 71.2214 56.9889Z" fill="#292929"/>
<path d="M71.2214 55.0632H68.7724C68.3723 55.0632 68.0481 54.739 68.0481 54.3389C68.0481 53.9389 68.3724 53.6146 68.7724 53.6146H71.2214C71.6215 53.6146 71.9457 53.9389 71.9457 54.3389C71.9458 54.7389 71.6215 55.0632 71.2214 55.0632Z" fill="#292929"/>
<path d="M71.2214 52.006H68.7724C68.3723 52.006 68.0481 51.6817 68.0481 51.2817C68.0481 50.8816 68.3724 50.5574 68.7724 50.5574H71.2214C71.6215 50.5574 71.9457 50.8816 71.9457 51.2817C71.9457 51.6817 71.6215 52.006 71.2214 52.006Z" fill="#292929"/>
<path d="M71.2214 50.08H68.7724C68.3723 50.08 68.0481 49.7557 68.0481 49.3557C68.0481 48.9556 68.3724 48.6313 68.7724 48.6313H71.2214C71.6215 48.6313 71.9457 48.9556 71.9457 49.3557C71.9457 49.7557 71.6215 50.08 71.2214 50.08Z" fill="#292929"/>
<path d="M71.2214 48.1543H68.7724C68.3723 48.1543 68.0481 47.83 68.0481 47.43C68.0481 47.03 68.3724 46.7057 68.7724 46.7057H71.2214C71.6215 46.7057 71.9457 47.03 71.9457 47.43C71.9457 47.83 71.6215 48.1543 71.2214 48.1543Z" fill="#292929"/>
<path d="M57.4882 75.41C49.9015 76.197 42.3148 76.197 34.7281 75.41C31.7118 75.0971 29.3629 72.6454 29.175 69.6187C28.4462 57.873 28.4462 46.1274 29.175 34.3818C29.3629 31.3552 31.7118 28.9035 34.7281 28.5905C42.3148 27.8035 49.9015 27.8035 57.4883 28.5905C60.5046 28.9035 62.8535 31.3551 63.0413 34.3818C63.7701 46.1275 63.7701 57.8731 63.0413 69.6187C62.8535 72.6454 60.5045 75.0971 57.4882 75.41Z" fill="#ED0A2A"/>
<path d="M35.5996 75.4965C35.3088 75.4685 35.0181 75.4395 34.7274 75.4096C31.7112 75.0967 29.3624 72.6446 29.1751 69.6177C28.4459 57.8727 28.4459 46.1267 29.1751 34.3817C29.3625 31.3549 31.7113 28.9028 34.7275 28.5898C35.0182 28.5599 35.3089 28.531 35.5997 28.5029C33.7395 29.5469 32.4588 31.4833 32.3197 33.724C31.5635 45.9074 31.5635 58.0919 32.3197 70.2754C32.4588 72.5161 33.7395 74.4525 35.5996 75.4965Z" fill="#C40823"/>
<path d="M59.424 41.8488C59.2221 43.7234 57.6845 45.1712 55.8003 45.2484C53.4998 45.3421 51.1993 45.402 48.8987 45.4281C45.8719 45.4648 42.8462 45.4426 39.8193 45.3615C38.6855 45.3325 37.5507 45.2948 36.4169 45.2485C34.5326 45.1712 32.9941 43.7235 32.7922 41.8489C32.7459 41.4201 32.7101 40.9922 32.684 40.5644C32.5875 39.0065 32.6241 37.4488 32.7922 35.8909C32.9941 34.0153 34.5326 32.5676 36.4169 32.4913C37.91 32.4304 39.4031 32.3841 40.8972 32.3512C44.8618 32.2634 48.8273 32.2759 52.7928 32.3889C53.7953 32.4159 54.7979 32.4507 55.8003 32.4913C57.4026 32.556 58.7528 33.6125 59.2472 35.0796V35.0807C59.3341 35.3386 59.3941 35.6099 59.424 35.8909C59.6384 37.8765 59.6384 39.8622 59.424 41.8488Z" fill="#D3EFFB"/>
<path d="M52.7928 32.3889L39.8193 45.3615C38.6855 45.3325 37.5507 45.2948 36.4169 45.2485C34.5326 45.1712 32.994 43.7235 32.7922 41.8489C32.7459 41.4201 32.7101 40.9923 32.684 40.5644L40.8972 32.3512C44.8617 32.2634 48.8273 32.2759 52.7928 32.3889Z" fill="#ECF9F9"/>
<path d="M59.424 41.8486C59.2221 43.7231 57.6845 45.1709 55.8004 45.2482C53.4998 45.3418 51.1993 45.4017 48.8988 45.4279L59.2473 35.0803C59.3342 35.3382 59.3941 35.6095 59.424 35.8906C59.6384 37.8762 59.6384 39.862 59.424 41.8486Z" fill="#ECF9F9"/>
<path d="M46.1083 46.1687C42.8603 46.1687 39.6123 46.103 36.3871 45.9716C34.1295 45.8797 32.3146 44.1782 32.072 41.9259C31.8535 39.8977 31.8535 37.841 32.072 35.8128C32.3147 33.5605 34.1295 31.859 36.3872 31.7672C42.8375 31.5044 49.3789 31.5044 55.8294 31.7672C58.087 31.859 59.9019 33.5605 60.1445 35.8128C60.363 37.841 60.363 39.8977 60.1445 41.9259C59.9018 44.1782 58.087 45.8797 55.8293 45.9716C52.6042 46.103 49.3562 46.1687 46.1083 46.1687ZM46.1083 33.0188C42.88 33.0188 39.6518 33.0841 36.4462 33.2147C34.9113 33.2771 33.6775 34.4351 33.5124 35.968C33.3049 37.8932 33.3049 39.8455 33.5124 41.7707C33.6776 43.3037 34.9114 44.4616 36.4461 44.5241C42.8575 44.7852 49.3591 44.7852 55.7704 44.5241C57.3052 44.4616 58.539 43.3036 58.7042 41.7707C58.9117 39.8454 58.9117 37.8932 58.7042 35.968C58.539 34.435 57.3052 33.277 55.7705 33.2146C55.7705 33.2146 55.7705 33.2146 55.7704 33.2146C52.5647 33.0841 49.3365 33.0188 46.1083 33.0188Z" fill="#C40823"/>
<path d="M55.8826 49.1257C49.3663 48.6567 42.8501 48.6567 36.3339 49.1257C34.5796 49.252 33.1649 50.6223 33.0015 52.3737C32.5084 57.6569 32.5084 62.9401 33.0015 68.2234C33.1649 69.9747 34.5796 71.3451 36.3339 71.4714C42.8502 71.9404 49.3664 71.9404 55.8826 71.4714C57.6369 71.3451 59.0516 69.9748 59.215 68.2234C59.708 62.9402 59.708 57.6569 59.215 52.3738C59.0516 50.6223 57.6369 49.252 55.8826 49.1257Z" fill="#407093"/>
<path d="M59.9363 52.3061C59.7395 50.1972 58.0566 48.5557 55.9346 48.403C49.4144 47.9337 42.8023 47.9337 36.282 48.403C34.1601 48.5557 32.4771 50.1972 32.2803 52.3061C31.7853 57.6093 31.7853 62.9872 32.2803 68.2904C32.4771 70.3992 34.1601 72.0408 36.282 72.1935C39.5421 72.4281 42.8252 72.5455 46.1083 72.5455C49.3914 72.5455 52.6745 72.4281 55.9346 72.1935C58.0566 72.0409 59.7396 70.3993 59.9363 68.2904C60.4312 62.9872 60.4312 57.6093 59.9363 52.3061ZM58.4939 52.4406C58.5938 53.5117 58.6721 54.586 58.731 55.6621C56.3846 55.6045 54.0182 55.5629 51.6717 55.538C51.6415 53.5586 51.5917 51.572 51.5232 49.6087C52.9621 49.6661 54.3987 49.7449 55.8306 49.848C57.2432 49.9495 58.3631 51.04 58.4939 52.4406ZM33.4185 57.1128C35.7801 57.0543 38.1632 57.0122 40.5267 56.9869C40.5029 59.1888 40.5029 61.4083 40.5267 63.6093C38.1634 63.584 35.7802 63.5419 33.4185 63.4834C33.3388 61.3615 33.3388 59.2348 33.4185 57.1128ZM41.9756 63.6229C41.9515 61.413 41.9515 59.1841 41.9756 56.9734C44.7222 56.9504 47.4944 56.9504 50.2416 56.9734C50.2656 59.1839 50.2656 61.4127 50.2416 63.6229C47.4949 63.6459 44.7229 63.6459 41.9756 63.6229ZM51.6904 56.9869C54.0534 57.0122 56.4363 57.0543 58.798 57.1129C58.8777 59.2348 58.8777 61.3615 58.798 63.4834C56.4365 63.5419 54.0537 63.5841 51.6904 63.6094C51.7142 61.4081 51.7142 59.1887 51.6904 56.9869ZM50.0719 49.5583C50.1415 51.5329 50.192 53.5323 50.2227 55.5245C47.4879 55.5018 44.7287 55.5018 41.9945 55.5245C42.0251 53.5324 42.0756 51.533 42.1453 49.5583C43.4653 49.5199 44.7867 49.4996 46.1083 49.4996C47.43 49.4996 48.7517 49.5199 50.0719 49.5583ZM33.7227 52.4406C33.8534 51.0399 34.9734 49.9495 36.3859 49.8479C37.818 49.7448 39.2548 49.6659 40.6939 49.6086C40.6253 51.572 40.5756 53.5587 40.5454 55.5379C38.1984 55.5628 35.8319 55.6044 33.4855 55.662C33.5445 54.5861 33.6228 53.5117 33.7227 52.4406ZM33.7227 68.1558C33.6228 67.0846 33.5445 66.0103 33.4855 64.9341C35.8321 64.9918 38.1986 65.0334 40.5454 65.0582C40.5756 67.0384 40.6253 69.025 40.6939 70.9877C39.2548 70.9304 37.818 70.8515 36.3859 70.7484C34.9734 70.6468 33.8535 69.5564 33.7227 68.1558ZM42.1453 71.038C42.0756 69.0639 42.0252 67.0646 41.9945 65.0717C43.3617 65.0831 44.7344 65.09 46.1085 65.09C47.4828 65.09 48.8555 65.0831 50.2227 65.0717C50.1921 67.0645 50.1415 69.0639 50.0719 71.038C47.4317 71.1149 44.7855 71.1149 42.1453 71.038ZM58.4939 68.1558C58.3632 69.5565 57.2432 70.6468 55.8307 70.7485C54.3988 70.8516 52.9622 70.9304 51.5233 70.9877C51.5918 69.0249 51.6416 67.0383 51.6718 65.0583C54.0186 65.0334 56.3848 64.9918 58.7311 64.9341C58.6721 66.0102 58.5938 67.0846 58.4939 68.1558Z" fill="#FAFAFA"/>
<path d="M55.6105 38.1343C54.8234 37.9052 53.9516 37.6276 53.4538 37.306C53.2748 37.1903 53.2636 37.0081 53.2856 36.8756C53.3268 36.6281 53.5336 36.3233 53.99 36.21C54.1707 36.1652 54.3401 36.142 54.4974 36.1339C54.4979 36.1339 54.4983 36.134 54.4987 36.134C54.5068 36.134 54.5146 36.1331 54.5225 36.1328C55.2106 36.1044 55.6589 36.3707 55.7573 36.4357C56.0909 36.6564 56.5404 36.5648 56.761 36.2311C56.9817 35.8974 56.89 35.448 56.5563 35.2274C56.3769 35.1087 55.9069 34.8386 55.2231 34.729V34.4843C55.2231 34.0843 54.8988 33.76 54.4988 33.76C54.0988 33.76 53.7745 34.0843 53.7745 34.4843V34.7733C53.7304 34.7827 53.6861 34.7929 53.6413 34.8039C52.7041 35.0364 52.0035 35.756 51.8567 36.6373C51.7303 37.3954 52.0411 38.1179 52.6678 38.5228C53.1953 38.8635 53.9306 39.1538 55.2055 39.5251C55.809 39.7008 56.1207 40.0474 56.0608 40.476C55.9896 40.9844 55.4167 41.5274 54.4948 41.5324C53.6261 41.5368 53.3306 41.4986 52.6535 41.1338C52.301 40.944 51.8619 41.0758 51.6723 41.4279C51.4825 41.7801 51.6141 42.2194 51.9663 42.4092C52.6744 42.7907 53.1717 42.9227 53.7745 42.9641V43.2536C53.7745 43.6536 54.0988 43.9779 54.4988 43.9779C54.8988 43.9779 55.2231 43.6536 55.2231 43.2536V42.9073C56.5508 42.6352 57.3595 41.6493 57.4954 40.6765C57.6191 39.793 57.1995 38.5969 55.6105 38.1343Z" fill="#292929"/>
</g>
<defs>
<linearGradient id="paint0_linear" x1="52" y1="0" x2="52" y2="104" gradientUnits="userSpaceOnUse">
<stop stop-color="#ED0A2A" stop-opacity="0"/>
<stop offset="1" stop-color="#ED0A2A" stop-opacity="0.1"/>
</linearGradient>
<clipPath id="clip0">
<rect width="48" height="48" fill="white" transform="translate(28 28)"/>
</clipPath>
</defs>
</svg>
