<svg xmlns="http://www.w3.org/2000/svg" width="20" height="18.749" viewBox="0 0 20 18.749">
  <g id="icon-home" transform="translate(-2 -3)">
    <g id="Group">
      <g id="Vector">
        <path id="Path_929" data-name="Path 929" d="M18.641,21.749H5.359a1.8,1.8,0,0,1-1.8-1.8V10.5a.625.625,0,1,1,1.25,0v9.454a.547.547,0,0,0,.547.547H18.641a.547.547,0,0,0,.547-.547V10.5a.625.625,0,1,1,1.25,0v9.454A1.8,1.8,0,0,1,18.641,21.749Z" fill="#8b8b8b"/>
        <path id="Path_930" data-name="Path 930" d="M18.641,21.749H5.359a1.8,1.8,0,0,1-1.8-1.8V10.5a.625.625,0,1,1,1.25,0v9.454a.547.547,0,0,0,.547.547H18.641a.547.547,0,0,0,.547-.547V10.5a.625.625,0,1,1,1.25,0v9.454A1.8,1.8,0,0,1,18.641,21.749Z" fill="none"/>
      </g>
      <g id="Vector_2">
        <path id="Path_931" data-name="Path 931" d="M21.375,12.685a.623.623,0,0,1-.442-.183L13.16,4.729a1.642,1.642,0,0,0-2.32,0L3.067,12.5a.625.625,0,0,1-.884-.884L9.956,3.845a2.894,2.894,0,0,1,4.088,0l7.773,7.773a.625.625,0,0,1-.442,1.067Z" fill="#8b8b8b"/>
        <path id="Path_932" data-name="Path 932" d="M21.375,12.685a.623.623,0,0,1-.442-.183L13.16,4.729a1.642,1.642,0,0,0-2.32,0L3.067,12.5a.625.625,0,0,1-.884-.884L9.956,3.845a2.894,2.894,0,0,1,4.088,0l7.773,7.773a.625.625,0,0,1-.442,1.067Z" fill="none"/>
      </g>
      <g id="Vector_3">
        <path id="Path_933" data-name="Path 933" d="M14.5,21.749h-5a.625.625,0,0,1-.625-.625V15.577a1.955,1.955,0,0,1,1.953-1.953h2.344a1.955,1.955,0,0,1,1.953,1.953v5.547A.625.625,0,0,1,14.5,21.749ZM10.125,20.5h3.75V15.577a.7.7,0,0,0-.7-.7H10.828a.7.7,0,0,0-.7.7Z" fill="#8b8b8b"/>
        <path id="Path_934" data-name="Path 934" d="M14.5,21.749h-5a.625.625,0,0,1-.625-.625V15.577a1.955,1.955,0,0,1,1.953-1.953h2.344a1.955,1.955,0,0,1,1.953,1.953v5.547A.625.625,0,0,1,14.5,21.749ZM10.125,20.5h3.75V15.577a.7.7,0,0,0-.7-.7H10.828a.7.7,0,0,0-.7.7Z" fill="none"/>
      </g>
    </g>
  </g>
</svg>
