<svg xmlns="http://www.w3.org/2000/svg" width="18.028" height="20" viewBox="0 0 18.028 20">
  <g id="icon-bell" transform="translate(-3 -2)">
    <g id="Group_18" data-name="Group 18">
      <g id="Group">
        <g id="Group_2">
          <path id="Vector" d="M12.014,2A2.664,2.664,0,0,0,9.353,4.661v.8h1.376v-.8a1.285,1.285,0,0,1,2.569,0v.8h1.376v-.8A2.664,2.664,0,0,0,12.014,2Z" fill="#8b8b8b"/>
        </g>
      </g>
      <g id="Group_3">
        <g id="Group_4">
          <path id="Vector_2" d="M13.894,18.766a1.86,1.86,0,0,1-1.858,1.858h-.046a1.86,1.86,0,0,1-1.858-1.858H8.757A3.238,3.238,0,0,0,11.991,22h.046a3.238,3.238,0,0,0,3.234-3.234Z" fill="#8b8b8b"/>
        </g>
      </g>
      <g id="Group_5">
        <g id="Group_6">
          <path id="Vector_3" d="M20.918,18.509l-1.955-3.041v-3.9a6.95,6.95,0,1,0-13.9,0v3.9L3.109,18.509a.688.688,0,0,0,.579,1.06H20.34a.688.688,0,0,0,.579-1.06Zm-15.97-.316,1.383-2.151a.688.688,0,0,0,.109-.372V11.564a5.574,5.574,0,1,1,11.147,0V15.67a.688.688,0,0,0,.109.372l1.383,2.151Z" fill="#8b8b8b"/>
        </g>
      </g>
    </g>
  </g>
</svg>
