<svg width="104" height="104" viewBox="0 0 104 104" fill="none" xmlns="http://www.w3.org/2000/svg">
<circle cx="52" cy="52" r="52" fill="url(#paint0_linear)"/>
<g clip-path="url(#clip0)">
<path d="M64.9892 44.3864C59.3742 44.3864 60.3636 49.0184 54.7484 49.0184C53.3923 49.0184 45.4317 44.3864 44.0757 44.3864C40.5091 44.3864 36.9425 44.3864 33.3759 44.3864C31.5506 54.8451 31.5506 65.5409 33.3759 75.9997H64.9892C66.8145 65.5409 66.8145 54.8451 64.9892 44.3864Z" fill="#FFB41F"/>
<path d="M38.4843 76.0004H33.3759C31.5521 65.5408 31.5521 54.8459 33.3759 44.3864H38.4843C36.6581 54.8459 36.6581 65.5408 38.4843 76.0004Z" fill="#F5A300"/>
<path d="M54.2893 57.6802L49.658 54.7604C49.3675 54.5774 48.9976 54.5774 48.7072 54.7604L45.4427 56.8184C44.8491 57.1927 44.0758 56.766 44.0758 56.0643V44.3864H54.2894V57.6802H54.2893Z" fill="#ED0A2A"/>
<path d="M69.7657 28.0677C64.8976 27.8905 60.0302 28.0613 55.1628 28.5793C53.8087 28.723 52.7486 29.8073 52.6405 31.1641C51.939 39.9612 51.939 48.7582 52.6405 57.5559C52.7487 58.9127 53.8088 59.997 55.1628 60.1408C62.423 60.9135 69.6838 60.9135 76.9447 60.1408C78.298 59.997 79.3589 58.9127 79.467 57.5559C79.9907 50.9851 80.1237 44.4151 79.8647 37.8451" fill="#EDEDED"/>
<path d="M79.8648 37.8455C77.472 37.7594 75.0792 37.5886 72.6857 37.3339C71.3324 37.1901 70.2715 36.1058 70.1634 34.749C69.9856 32.522 69.8532 30.295 69.7657 28.068C72.1584 28.1541 79.7772 35.6184 79.8648 37.8455Z" fill="#DBDBDB"/>
<path d="M57.3952 42.3477C57.1357 42.3477 56.8955 42.2088 56.7664 41.9828L55.5874 39.9194C55.3889 39.5721 55.5096 39.1296 55.8569 38.9311C56.2041 38.7326 56.6466 38.8533 56.8452 39.2006L57.3602 40.1018L58.912 37.0686C59.0944 36.7123 59.5309 36.5716 59.8868 36.7537C60.2429 36.9359 60.3839 37.3723 60.2017 37.7284L58.0402 41.9532C57.919 42.19 57.6779 42.3413 57.4121 42.3475C57.4064 42.3476 57.4008 42.3477 57.3952 42.3477Z" fill="#31B057"/>
<path d="M68.8399 39.5966H61.9148C61.5147 39.5966 61.1905 39.2723 61.1905 38.8723C61.1905 38.4722 61.5148 38.1479 61.9148 38.1479H68.8399C69.24 38.1479 69.5642 38.4722 69.5642 38.8723C69.5642 39.2723 69.2399 39.5966 68.8399 39.5966Z" fill="#525252"/>
<path d="M75.277 42.1511H61.9148C61.5147 42.1511 61.1905 41.8269 61.1905 41.4268C61.1905 41.0268 61.5148 40.7025 61.9148 40.7025H75.277C75.6771 40.7025 76.0013 41.0268 76.0013 41.4268C76.0013 41.8269 75.677 42.1511 75.277 42.1511Z" fill="#525252"/>
<path d="M57.3952 49.422C57.1357 49.422 56.8955 49.283 56.7664 49.057L55.5874 46.9937C55.3889 46.6463 55.5096 46.2038 55.8569 46.0053C56.2041 45.8069 56.6466 45.9275 56.8452 46.2749L57.3602 47.176L58.912 44.1428C59.0944 43.7866 59.5309 43.6458 59.8868 43.8279C60.2429 44.0102 60.3839 44.4466 60.2017 44.8026L58.0402 49.0275C57.919 49.2642 57.6779 49.4156 57.4121 49.4217C57.4064 49.422 57.4008 49.422 57.3952 49.422Z" fill="#31B057"/>
<path d="M68.8398 46.6708H61.9147C61.5146 46.6708 61.1904 46.3465 61.1904 45.9465C61.1904 45.5465 61.5147 45.2222 61.9147 45.2222H68.8398C69.2399 45.2222 69.5641 45.5465 69.5641 45.9465C69.5641 46.3465 69.2398 46.6708 68.8398 46.6708Z" fill="#525252"/>
<path d="M75.0534 49.2249H61.9145C61.5144 49.2249 61.1902 48.9006 61.1902 48.5006C61.1902 48.1005 61.5145 47.7762 61.9145 47.7762H75.0535C75.4536 47.7762 75.7778 48.1005 75.7778 48.5006C75.7778 48.9006 75.4535 49.2249 75.0534 49.2249Z" fill="#525252"/>
<path d="M57.3952 56.496C57.1357 56.496 56.8955 56.357 56.7664 56.131L55.5874 54.0677C55.3889 53.7203 55.5096 53.2778 55.8569 53.0794C56.2041 52.8808 56.6466 53.0015 56.8452 53.3489L57.3602 54.25L58.912 51.2168C59.0944 50.8606 59.5309 50.7198 59.8868 50.9019C60.2429 51.0842 60.3839 51.5206 60.2017 51.8766L58.0402 56.1015C57.919 56.3382 57.6779 56.4895 57.4121 56.4957C57.4064 56.496 57.4008 56.496 57.3952 56.496Z" fill="#31B057"/>
<path d="M68.8398 53.745H61.9147C61.5146 53.745 61.1904 53.4207 61.1904 53.0207C61.1904 52.6207 61.5147 52.2964 61.9147 52.2964H68.8398C69.2399 52.2964 69.5641 52.6207 69.5641 53.0207C69.5641 53.4206 69.2398 53.745 68.8398 53.745Z" fill="#525252"/>
<path d="M69.8431 56.2998H61.9145C61.5144 56.2998 61.1902 55.9755 61.1902 55.5755C61.1902 55.1755 61.5145 54.8512 61.9145 54.8512H69.8431C70.2432 54.8512 70.5674 55.1755 70.5674 55.5755C70.5674 55.9755 70.2432 56.2998 69.8431 56.2998Z" fill="#525252"/>
<path d="M44.497 72.2374C42.0348 72.4438 39.5725 72.4438 37.1103 72.2374C36.4364 72.1809 35.9034 71.6479 35.8469 70.974C35.6405 68.5118 35.6405 66.0495 35.8469 63.5873C35.9035 62.9134 36.4364 62.3803 37.1103 62.3239C39.5725 62.1175 42.0348 62.1175 44.497 62.3239C45.1709 62.3804 45.704 62.9134 45.7604 63.5873C45.9669 66.0495 45.9669 68.5118 45.7604 70.974C45.704 71.6479 45.1709 72.1809 44.497 72.2374Z" fill="#EDEDED"/>
<path d="M43.3861 66.5658H38.2213C37.8213 66.5658 37.497 66.2415 37.497 65.8415C37.497 65.4415 37.8213 65.1172 38.2213 65.1172H43.3861C43.7861 65.1172 44.1104 65.4415 44.1104 65.8415C44.1104 66.2414 43.7861 66.5658 43.3861 66.5658Z" fill="#DBDBDB"/>
<path d="M43.3861 69.4442H38.2213C37.8213 69.4442 37.497 69.1199 37.497 68.7199C37.497 68.3199 37.8213 67.9956 38.2213 67.9956H43.3861C43.7861 67.9956 44.1104 68.3199 44.1104 68.7199C44.1104 69.1199 43.7861 69.4442 43.3861 69.4442Z" fill="#DBDBDB"/>
</g>
<defs>
<linearGradient id="paint0_linear" x1="52" y1="0" x2="52" y2="104" gradientUnits="userSpaceOnUse">
<stop stop-color="#ED0A2A" stop-opacity="0"/>
<stop offset="1" stop-color="#ED0A2A" stop-opacity="0.1"/>
</linearGradient>
<clipPath id="clip0">
<rect width="48" height="48" fill="white" transform="translate(32 28)"/>
</clipPath>
</defs>
</svg>
