<svg width="104" height="104" viewBox="0 0 104 104" fill="none" xmlns="http://www.w3.org/2000/svg">
<circle cx="52" cy="52" r="52" fill="url(#paint0_linear)"/>
<g clip-path="url(#clip0)">
<path d="M48.7242 47.8317L52.2382 54.0804C52.5177 54.5774 53.1474 54.7537 53.6444 54.4742L57.5538 52.2757C58.0512 51.996 58.2276 51.3663 57.9482 50.8693L54.4341 44.6206C54.1547 44.1236 53.5249 43.9473 53.0275 44.227L49.1181 46.4255C48.6211 46.705 48.4447 47.3348 48.7242 47.8317Z" fill="#F84F67"/>
<path d="M48.7244 47.8323L52.2382 54.0806C52.518 54.578 53.1474 54.7539 53.6444 54.4744L56.0097 53.1442C55.5127 53.4237 54.8833 53.2478 54.6035 52.7504L51.0898 46.5021C50.81 46.0047 50.9867 45.3754 51.4836 45.0959L49.1183 46.4262C48.6214 46.7056 48.4447 47.3349 48.7244 47.8323Z" fill="#F62845"/>
<path d="M48.2251 47.6525C48.3454 47.6525 48.4672 47.6225 48.5795 47.5595L54.2763 44.3557C54.6249 44.1596 54.7487 43.7181 54.5526 43.3693C54.3565 43.0207 53.9149 42.8971 53.5661 43.093L47.8693 46.2967C47.5206 46.4929 47.3969 46.9344 47.593 47.2832C47.726 47.5195 47.9719 47.6525 48.2251 47.6525Z" fill="#F84F67"/>
<path d="M52.7516 55.7017C52.8719 55.7017 52.9937 55.6717 53.106 55.6086L58.8028 52.4049C59.1514 52.2087 59.2752 51.7672 59.0791 51.4184C58.883 51.0698 58.4414 50.9461 58.0926 51.1422L52.3958 54.3459C52.0472 54.542 51.9234 54.9836 52.1195 55.3323C52.2525 55.5687 52.4984 55.7017 52.7516 55.7017Z" fill="#F84F67"/>
<path d="M50.8688 45.0684L47.3548 51.3171C47.0753 51.8141 46.4456 51.9904 45.9486 51.711L42.0392 49.5124C41.5418 49.2327 41.3654 48.603 41.6448 48.106L45.1589 41.8573C45.4383 41.3603 46.0681 41.184 46.5655 41.4637L50.4749 43.6622C50.9719 43.9417 51.1483 44.5714 50.8688 45.0684Z" fill="#2A93F4"/>
<path d="M50.8685 45.069L47.3548 51.3173C47.075 51.8147 46.4456 51.9906 45.9486 51.7111L43.5833 50.3809C44.0803 50.6604 44.7097 50.4845 44.9895 49.987L48.5032 43.7388C48.783 43.2414 48.6062 42.6121 48.1094 42.3326L50.4747 43.6629C50.9716 43.9423 51.1483 44.5716 50.8685 45.069Z" fill="#0A6AC2"/>
<path d="M51.7888 45.1259C51.6685 45.1259 51.5467 45.0959 51.4345 45.0328L44.8959 41.3558C44.5472 41.1597 44.4235 40.7181 44.6196 40.3695C44.8156 40.0207 45.2572 39.8971 45.606 40.0931L52.1446 43.7701C52.4933 43.9662 52.617 44.4077 52.4209 44.7564C52.2879 44.9929 52.042 45.1259 51.7888 45.1259Z" fill="#0C80EB"/>
<path d="M47.2624 53.175C47.1421 53.175 47.0202 53.145 46.908 53.0819L40.3694 49.4048C40.0208 49.2087 39.897 48.7671 40.0931 48.4184C40.2892 48.0697 40.7307 47.9462 41.0796 48.1421L47.6182 51.8192C47.9668 52.0153 48.0906 52.4569 47.8944 52.8056C47.7615 53.042 47.5156 53.175 47.2624 53.175Z" fill="black"/>
<path d="M61.8822 44.6093L65.5314 50.7802C65.8217 51.2709 65.659 51.9043 65.1682 52.1946L61.3076 54.4777C60.8164 54.7682 60.1829 54.6055 59.8927 54.1147L56.2435 47.9439C55.9533 47.4531 56.1159 46.8198 56.6072 46.5292L60.4678 44.2461C60.9586 43.956 61.5921 44.1186 61.8822 44.6093Z" fill="#0C80EB"/>
<path d="M61.8825 44.6101L65.5314 50.7804C65.822 51.2716 65.659 51.9045 65.1683 52.1948L62.8324 53.5761C63.3232 53.2858 63.4861 52.6529 63.1956 52.1617L59.5466 45.9914C59.2561 45.5002 58.623 45.338 58.1322 45.6282L60.4681 44.2469C60.9589 43.9567 61.5921 44.1189 61.8825 44.6101Z" fill="#08559B"/>
<path d="M55.6201 47.768C55.4109 47.7375 55.217 47.6161 55.101 47.4199C54.8974 47.0756 55.0114 46.6313 55.3557 46.4278L60.9815 43.101C61.3257 42.8973 61.77 43.0114 61.9736 43.3557C62.1772 43.7 62.0632 44.1443 61.7189 44.3478L56.0931 47.6746C55.945 47.7624 55.7782 47.7912 55.6201 47.768Z" fill="#51A7F6"/>
<path d="M60.3206 55.7165C60.1114 55.6859 59.9174 55.5645 59.8015 55.3684C59.5978 55.0241 59.7118 54.5799 60.0562 54.3762L65.6819 51.0493C66.0263 50.8457 66.4705 50.9598 66.6741 51.3041C66.8777 51.6484 66.7637 52.0926 66.4194 52.2962L60.7936 55.6231C60.6455 55.7109 60.4786 55.7397 60.3206 55.7165Z" fill="#51A7F6"/>
<path d="M43.567 39.559L47.5959 53.6052C47.8461 54.4775 47.3417 55.3875 46.4695 55.6377L39.3431 57.6817C38.4707 57.9319 37.5608 57.4275 37.3106 56.5553L33.2817 42.5093C33.1206 41.9476 33.2323 41.343 33.5834 40.876L33.8406 40.534C34.7991 39.2593 35.1628 37.6337 34.8388 36.0721L34.3731 33.8275L38.0406 32.7755L38.8356 34.9261C39.3885 36.4218 40.5582 37.6073 42.0463 38.1803L42.4455 38.334C42.9908 38.544 43.4059 38.9974 43.567 39.559Z" fill="#F84F67"/>
<path d="M42.4457 38.3341L42.0459 38.1803C40.5578 37.6071 39.3884 36.422 38.8354 34.9265L38.0401 32.7756L34.3735 33.8273L34.839 36.0719C34.9271 36.4972 34.9645 36.9284 34.9523 37.3554L35.689 37.5995C36.0828 37.7301 36.4939 37.7767 36.9011 37.7388C37.0853 37.7216 37.2687 37.6871 37.4494 37.6353C37.5564 37.6045 37.6606 37.5671 37.7625 37.5251C38.3159 38.0952 38.9908 38.5469 39.7493 38.839L40.149 38.9928C40.6938 39.2028 41.1088 39.6565 41.2699 40.2179L45.2987 54.2639C45.5488 55.1359 45.0453 56.046 44.1723 56.2964L46.469 55.6376C47.342 55.3872 47.8455 54.4771 47.5954 53.6051L43.5666 39.5592C43.4055 38.9978 42.9905 38.5442 42.4457 38.3341Z" fill="#F62845"/>
<path d="M39.3413 47.4685C40.9762 47.4685 42.3015 46.1431 42.3015 44.5082C42.3015 42.8733 40.9762 41.548 39.3413 41.548C37.7064 41.548 36.3811 42.8733 36.3811 44.5082C36.3811 46.1431 37.7064 47.4685 39.3413 47.4685Z" fill="#F2EFF2"/>
<path d="M42.1866 43.692C42.6373 45.2635 41.7289 46.9027 40.1573 47.3535C39.5187 47.5367 38.8691 47.4956 38.2916 47.2757C38.3303 47.2664 38.3689 47.2563 38.4071 47.2453C39.9787 46.7945 40.8871 45.1552 40.4363 43.5838C40.1688 42.6509 39.4824 41.9523 38.6406 41.6324C40.1767 41.2571 41.7468 42.1587 42.1866 43.692Z" fill="#E1DDE1"/>
<path d="M36.402 42.4508L39.1083 45.3971C39.4007 45.7154 39.9309 45.5633 40.0101 45.1384L40.7433 41.2055C40.8148 40.8223 40.458 40.4978 40.0832 40.6053L36.6437 41.592C36.2688 41.6995 36.1383 42.1637 36.402 42.4508Z" fill="#FFCF70"/>
<path d="M40.7436 41.2058L40.0096 45.1382C39.9309 45.563 39.4001 45.7152 39.1082 45.3968L38.3307 44.5503L38.8532 41.748C38.9246 41.3649 38.5674 41.0404 38.1932 41.1476L40.0836 40.6054C40.4577 40.498 40.815 40.8227 40.7436 41.2058Z" fill="#FFB41F"/>
<path d="M38.3413 34.1621L37.3445 35.3649C37.0996 35.6605 36.6984 35.7755 36.334 35.6547L34.8519 35.1631C34.56 35.0662 34.3346 34.8315 34.2499 34.5358L33.3643 31.4484L37.6339 30.2238L38.5195 33.311C38.6044 33.6066 38.5377 33.9252 38.3413 34.1621Z" fill="#E1DDE1"/>
<path d="M37.6339 30.2236L37.6338 30.2237V30.2236L33.3643 31.4484L33.9848 33.6118L35.9817 33.0389C36.2968 32.9486 36.6209 33.195 36.5927 33.5217C36.5918 33.5319 36.5905 33.5412 36.5888 33.5493C36.5582 33.6955 36.4924 33.8342 36.394 33.9526L35.3972 35.1562C35.3531 35.2086 35.3045 35.2555 35.2523 35.2965L36.3339 35.655C36.6979 35.7753 37.0999 35.66 37.3448 35.365L38.3411 34.1625C38.5375 33.925 38.6041 33.6064 38.5193 33.311L37.6339 30.2236Z" fill="#CBC5CB"/>
<path d="M37.4548 30.9924L33.9238 32.0052C33.4292 32.147 32.9134 31.8611 32.7716 31.3666L32.4374 30.2014C32.2955 29.7069 32.5815 29.1911 33.0759 29.0492L36.6069 28.0363C37.1014 27.8945 37.6172 28.1804 37.7591 28.6749L38.0933 29.8401C38.2352 30.3346 37.9493 30.8505 37.4548 30.9924Z" fill="#FFC248"/>
<path d="M37.7593 28.6749L38.0934 29.8398C38.2354 30.335 37.9491 30.8502 37.4549 30.992L35.6158 31.5195C36.11 31.3778 36.3963 30.8624 36.2543 30.3673L35.9202 29.2024C35.7784 28.7081 35.2622 28.422 34.768 28.5639L36.6071 28.0363C37.1013 27.8945 37.6175 28.1805 37.7593 28.6749Z" fill="#F5A300"/>
<path d="M63.2997 47.4765C62.3246 47.2445 61.3288 47.0589 60.3577 46.7985L59.9175 50.6676L66.1931 52.1476L67.5202 48.5109C66.1149 48.1602 64.7089 47.8116 63.2997 47.4765Z" fill="#F84F67"/>
<path d="M70.1062 41.4257L69.2946 43.6495L60.9401 41.6793L61.2073 39.3265C61.2707 38.772 61.8036 38.3971 62.347 38.5252L69.4447 40.1997C69.9883 40.3277 70.2973 40.9009 70.1062 41.4257Z" fill="#292929"/>
<path d="M65.2867 47.9578L63.9507 51.6192L66.1927 52.1479L67.5201 48.511C66.776 48.3253 66.0316 48.1406 65.2867 47.9578Z" fill="#F62845"/>
<path d="M70.1062 41.4257L69.2946 43.6496L67.0514 43.1209L67.863 40.8971C68.055 40.3722 67.746 39.8 67.2025 39.671L69.4448 40.1997C69.9883 40.3277 70.2973 40.9009 70.1062 41.4257Z" fill="black"/>
<path d="M69.2946 43.6492L67.364 48.9381L60.3032 47.2729L60.9401 41.679L69.2946 43.6492Z" fill="#FFCF70"/>
<path d="M69.2949 43.6489L67.3642 48.9378L65.1221 48.409L67.0527 43.1201L69.2949 43.6489Z" fill="#FFB41F"/>
<path d="M60.2179 53.4521L64.6802 54.5044C65.1809 54.6226 65.6826 54.3123 65.8006 53.8116L66.1931 52.1477L59.9175 50.6677L59.5251 52.3317C59.407 52.8324 59.7172 53.3341 60.2179 53.4521Z" fill="#292929"/>
<path d="M66.1927 52.1479L65.8003 53.8116C65.6823 54.312 65.1813 54.6226 64.6799 54.5044L62.4378 53.9756C62.9383 54.0937 63.4402 53.7833 63.5582 53.2828L63.9506 51.6191L66.1927 52.1479Z" fill="#525252"/>
<path d="M64.1982 76.0001H37.7422C36.8014 76.0001 36.0081 75.2986 35.8932 74.3647L33.5457 55.2954H68.3946L66.0472 74.3647C65.9323 75.2986 65.1391 76.0001 64.1982 76.0001Z" fill="#F62845"/>
<path d="M33.5457 55.2957L33.962 58.677H47.2529C47.9404 58.677 48.5855 59.0456 48.9026 59.6555C49.2907 60.4018 50.0708 60.9116 50.9703 60.9116C51.8697 60.9116 52.6498 60.4018 53.0379 59.6555C53.3551 59.0456 54.0002 58.677 54.6876 58.677H61.5548C63.0897 58.677 64.2782 60.0207 64.0907 61.5441L62.5125 74.3643C62.397 75.2986 61.6042 76.0001 60.6635 76.0001H64.1985C65.1393 76.0001 65.932 75.2986 66.0475 74.3643L68.3949 55.2957H33.5457Z" fill="#ED0A2A"/>
<path d="M47.8623 71.6575C46.9449 71.7216 46.1491 71.0299 46.085 70.1125L45.5928 63.0736C45.5287 62.1561 46.2204 61.3604 47.1378 61.2962C48.0553 61.2321 48.851 61.9238 48.9151 62.8412L49.4073 69.8802C49.4715 70.7976 48.7798 71.5933 47.8623 71.6575Z" fill="#F2EFF2"/>
<path d="M41.2366 71.6196C40.3259 71.7476 39.4838 71.1131 39.3558 70.2024L38.3737 63.215C38.2458 62.3043 38.8803 61.4622 39.791 61.3342C40.7016 61.2062 41.5437 61.8407 41.6718 62.7514L42.6538 69.7388C42.7819 70.6495 42.1474 71.4916 41.2366 71.6196Z" fill="#F2EFF2"/>
<path d="M54.1625 71.6575C55.0799 71.7216 55.8757 71.0299 55.9398 70.1125L56.432 63.0736C56.4961 62.1561 55.8044 61.3604 54.887 61.2962C53.9695 61.2321 53.1738 61.9238 53.1097 62.8412L52.6175 69.8802C52.5534 70.7976 53.245 71.5933 54.1625 71.6575Z" fill="#F2EFF2"/>
<path d="M60.7882 71.6196C61.6989 71.7476 62.541 71.1131 62.669 70.2024L63.651 63.215C63.779 62.3043 63.1445 61.4622 62.2338 61.3342C61.3231 61.2062 60.4811 61.8407 60.353 62.7514L59.371 69.7388C59.2429 70.6495 59.8774 71.4916 60.7882 71.6196Z" fill="#F2EFF2"/>
<path d="M69.0131 56.3488H32.9273C31.6 56.3488 30.5239 55.2727 30.5239 53.9454C30.5239 52.6181 31.6 51.542 32.9273 51.542H69.0132C70.3405 51.542 71.4166 52.6181 71.4166 53.9454C71.4165 55.2727 70.3405 56.3488 69.0131 56.3488Z" fill="#292929"/>
<path d="M71.4165 53.9449C71.4165 54.609 71.1473 55.2089 70.7122 55.6439C70.2782 56.0789 69.6764 56.3482 69.0132 56.3482H65.7027C66.3659 56.3482 66.9677 56.079 67.4017 55.6439C67.8367 55.2089 68.106 54.609 68.106 53.9449C68.106 52.6175 67.0301 51.5416 65.7027 51.5416H69.0132C70.3406 51.5416 71.4165 52.6175 71.4165 53.9449Z" fill="black"/>
<path d="M50.9702 58.8374C49.6834 58.8374 48.6402 57.7942 48.6402 56.5074V38.4927C48.6402 37.2059 49.6834 36.1627 50.9702 36.1627C52.257 36.1627 53.3002 37.2059 53.3002 38.4927V56.5074C53.3002 57.7942 52.257 58.8374 50.9702 58.8374Z" fill="#FFCF70"/>
<path d="M53.2998 38.4924V56.5075C53.2998 57.7939 52.2566 58.8372 50.9701 58.8372C50.5519 58.8372 50.1579 58.7264 49.8188 58.5326C50.5221 58.1312 50.9962 57.3748 50.9962 56.5075V38.4924C50.9962 37.8497 50.7354 37.2665 50.3134 36.8455C50.1672 36.6983 50.0005 36.5707 49.8188 36.4673C50.1579 36.2735 50.5519 36.1627 50.9701 36.1627C51.6129 36.1627 52.196 36.4235 52.6171 36.8455C53.039 37.2666 53.2998 37.8497 53.2998 38.4924Z" fill="#FFB41F"/>
</g>
<defs>
<linearGradient id="paint0_linear" x1="52" y1="0" x2="52" y2="104" gradientUnits="userSpaceOnUse">
<stop stop-color="#ED0A2A" stop-opacity="0"/>
<stop offset="1" stop-color="#ED0A2A" stop-opacity="0.1"/>
</linearGradient>
<clipPath id="clip0">
<rect width="48" height="48" fill="white" transform="translate(28 28)"/>
</clipPath>
</defs>
</svg>
