<svg width="16" height="16" viewBox="0 0 16 16" fill="none" xmlns="http://www.w3.org/2000/svg">
<path d="M7.96794 1.33301C5.41243 1.33301 3.33333 3.41211 3.33333 5.96761C3.33333 9.17961 7.9725 14.6663 7.9725 14.6663C7.9725 14.6663 12.6025 9.02165 12.6025 5.96761C12.6025 3.41211 10.5235 1.33301 7.96794 1.33301ZM9.3663 7.32463C8.98072 7.71012 8.47437 7.90291 7.96794 7.90291C7.46159 7.90291 6.95508 7.71012 6.56966 7.32463C5.79858 6.55363 5.79858 5.29907 6.56966 4.52799C6.94303 4.15446 7.4397 3.94873 7.96794 3.94873C8.49618 3.94873 8.99276 4.15454 9.3663 4.52799C10.1374 5.29907 10.1374 6.55363 9.3663 7.32463Z" fill="#7A7A7A"/>
</svg>
