<svg xmlns="http://www.w3.org/2000/svg" width="26" height="26" viewBox="0 0 26 26"><defs><style>.a{fill:#fff;}.b{fill:#eb2843;}</style></defs><g transform="translate(-105 -137)"><circle class="a" cx="13" cy="13" r="13" transform="translate(105 137)"/><path class="b" d="M12.2,4.919v6.864a1.144,1.144,0,0,1-1.144,1.144H1.144A1.144,1.144,0,0,1,0,11.784V4.919A1.144,1.144,0,0,1,1.144,3.775h2.1l.293-.784A1.142,1.142,0,0,1,4.6,2.25H7.6a1.142,1.142,0,0,1,1.07.741l.3.784h2.1A1.144,1.144,0,0,1,12.2,4.919ZM8.962,8.352a2.86,2.86,0,1,0-2.86,2.86A2.862,2.862,0,0,0,8.962,8.352Zm-.763,0a2.1,2.1,0,1,1-2.1-2.1A2.1,2.1,0,0,1,8.2,8.352Z" transform="translate(112 142.75)"/></g></svg>