<svg width="32" height="32" viewBox="0 0 32 32" fill="none" xmlns="http://www.w3.org/2000/svg">
<path d="M18.3808 0.1742C18.2559 0.19154 18.0062 0.243557 17.8224 0.292107C16.1093 0.725585 14.7083 2.23062 14.202 4.17954L14.1223 4.49164L13.8032 4.50205C13.5189 4.50898 13.4877 4.51939 13.5085 4.5714C13.6437 4.89391 13.6749 5.06384 13.6784 5.46264C13.6784 5.81982 13.6645 5.91692 13.5848 6.15967C13.4287 6.63129 13.1339 7.02663 12.7317 7.31099C12.6034 7.39768 12.4924 7.47744 12.475 7.49132C12.4612 7.50172 12.4716 7.58148 12.5028 7.66124C12.5825 7.89358 12.5687 8.07738 12.4508 8.31319C12.2462 8.72239 11.8127 8.90619 11.3966 8.75707L11.2613 8.70852L11.2856 8.97554C11.2995 9.12119 11.3203 9.3258 11.3307 9.42289L11.3515 9.60669H17.6525H23.957L25.2332 8.70159C25.9371 8.20222 26.5232 7.78608 26.5371 7.77221C26.5544 7.75487 26.8769 4.70318 26.8769 4.55407C26.8769 4.51939 26.5232 4.50898 25.2783 4.50205L23.6796 4.49164L23.5998 4.17954C23.1421 2.42135 21.9422 0.999543 20.4268 0.427352C19.8476 0.205411 18.946 0.0944405 18.3808 0.1742ZM19.4384 1.16253C20.8741 1.41221 22.0532 2.52539 22.5768 4.12752C22.6323 4.30091 22.6809 4.46043 22.6809 4.47777C22.6809 4.49511 21.1481 4.50898 18.9009 4.50898C16.5428 4.50898 15.121 4.49511 15.121 4.47777C15.121 4.38761 15.3187 3.82929 15.4539 3.54146C16.2446 1.84569 17.8536 0.888573 19.4384 1.16253ZM16.3035 6.27411C16.3937 6.36774 16.4041 6.39895 16.4041 6.60702C16.4041 6.82549 16.3972 6.8463 16.2862 6.95727L16.1648 7.07864L15.2458 7.06824L14.3234 7.05784L14.2298 6.96074C14.1431 6.87404 14.1327 6.84283 14.1327 6.62089C14.1327 6.38855 14.1396 6.37121 14.2471 6.27411L14.3581 6.17354H15.2805H16.203L16.3035 6.27411ZM23.4923 6.21169C23.7108 6.31225 23.7594 6.77347 23.5686 6.96421L23.4785 7.05784L22.556 7.06824L21.637 7.07864L21.5157 6.95727C21.4047 6.8463 21.3978 6.82549 21.3978 6.60702C21.3978 6.39895 21.4082 6.36774 21.4983 6.27411L21.5989 6.17354H22.504C23.0935 6.17354 23.4368 6.18741 23.4923 6.21169Z" fill="#7A7A7A"/>
<path d="M1.67276 6.72146C1.44041 6.81509 1.23234 7.01276 1.11097 7.26244C1.01387 7.45664 1 7.526 1 7.75141C1 8.21263 1.23234 8.56635 1.66582 8.77095L1.85655 8.86111L3.4032 8.87152L4.94639 8.88192L5.01921 9.07958C5.06083 9.18709 5.28277 9.77662 5.51511 10.387C5.74746 10.9973 6.07343 11.8643 6.24335 12.3116C6.40981 12.7589 6.68377 13.4837 6.85022 13.9241C7.01668 14.3611 7.30451 15.1275 7.49177 15.6234C7.67903 16.1193 7.99114 16.9446 8.18534 17.4613C8.37954 17.9746 8.69511 18.8103 8.88584 19.3166C9.39908 20.676 9.76667 21.6505 10.162 22.6977C10.8209 24.4421 10.9249 24.7229 10.9249 24.7715C10.9249 24.7992 10.8278 24.8825 10.7099 24.9553C10.221 25.2535 9.6765 25.8881 9.45456 26.4152C9.24996 26.9042 9.20835 27.1262 9.20835 27.7434C9.20835 28.3954 9.2569 28.6347 9.50311 29.1583C9.92272 30.0565 10.7585 30.7223 11.7433 30.9546C11.9271 30.9962 12.1109 31.0067 12.5201 30.9962C13.0264 30.9824 13.0784 30.9754 13.4079 30.861C13.8726 30.698 14.2818 30.4518 14.6147 30.1362C15.0655 29.7062 15.3637 29.2138 15.5371 28.6104C15.6446 28.2463 15.6689 27.4833 15.5926 27.1192C15.5614 26.977 15.5267 26.8175 15.5129 26.762L15.4955 26.6684H18.8316H22.1711L22.1503 26.7828C22.1399 26.8418 22.1052 27.0117 22.074 27.1539C21.9873 27.5388 22.0185 28.2116 22.1399 28.6243C22.2682 29.0543 22.4277 29.3802 22.6705 29.7027C23.0207 30.1709 23.3571 30.4483 23.9015 30.7084C24.3697 30.9338 24.5604 30.9754 25.1603 30.9928C25.7638 31.0136 26.1036 30.9512 26.5509 30.7431C27.5081 30.3027 28.1323 29.5432 28.4062 28.4855C28.5172 28.0486 28.5207 27.4001 28.4062 26.9805C28.0733 25.7356 27.2514 24.8929 26.0169 24.5426L25.7499 24.4663L19.4662 24.4559C13.5501 24.449 13.179 24.4455 13.1478 24.3866C13.0888 24.2756 12.5895 22.9197 12.5895 22.8677C12.5895 22.826 13.5986 22.8191 19.8476 22.8122L27.1023 22.8018L27.2965 22.7116C27.5219 22.6041 27.7127 22.4272 27.8167 22.2261C27.8549 22.1464 27.9658 21.8238 28.0595 21.5048C28.1566 21.1892 28.3161 20.6621 28.4201 20.3396C28.5207 20.0136 28.812 19.0773 29.0617 18.2589C29.3113 17.437 29.6408 16.369 29.7899 15.8835C31.0834 11.6943 31.0106 11.9405 30.9932 11.7013C30.9551 11.1984 30.5979 10.7858 30.1089 10.6852C29.9772 10.6574 26.7902 10.647 18.9425 10.647H7.95646L7.83162 10.3072C7.61661 9.72807 7.25943 8.78829 6.94386 7.95948C6.65256 7.18962 6.63522 7.15494 6.45142 6.96768C6.13238 6.64517 6.23989 6.65904 3.87136 6.66251C2.02994 6.66251 1.808 6.66945 1.67276 6.72146ZM15.0655 13.0121C15.0759 13.0745 15.1071 13.4768 15.1383 13.9068C15.1938 14.694 15.277 15.7517 15.3152 16.154L15.336 16.369L12.7247 16.362L10.11 16.3516L9.9678 15.9702C9.89151 15.7586 9.60715 15.0026 9.33666 14.2848C9.06616 13.567 8.84422 12.9636 8.84422 12.9393C8.84422 12.9115 9.64182 12.9011 11.9479 12.9011H15.0482L15.0655 13.0121ZM21.5018 12.9774C21.5018 13.0468 21.4428 13.8236 21.2937 15.6927C21.2729 15.9389 21.2486 16.1956 21.2382 16.258L21.2209 16.369L18.8212 16.362L16.4249 16.3516L16.3139 14.9714C16.2515 14.212 16.1925 13.4352 16.1787 13.2444L16.1544 12.9011H18.8281H21.5018V12.9774ZM28.382 12.9774C28.3369 13.1231 27.9901 14.2536 27.6953 15.2246C27.5323 15.769 27.3798 16.2476 27.3624 16.2892L27.3277 16.369H24.8274H22.3237L22.3445 16.1678C22.3583 16.0603 22.4138 15.2974 22.4763 14.479C22.5352 13.6571 22.5907 12.967 22.5976 12.9427C22.608 12.9115 23.2184 12.9011 25.5071 12.9011H28.4062L28.382 12.9774ZM15.5094 18.7271C15.5579 19.4033 15.6134 20.1038 15.6273 20.2807L15.6516 20.5997L13.6784 20.5928L11.7052 20.5824L11.3653 19.6807C11.1781 19.1848 10.9249 18.5086 10.8035 18.1826C10.6787 17.8532 10.5781 17.5584 10.5781 17.5307C10.5781 17.4856 10.8521 17.4787 12.9987 17.4856L15.4158 17.496L15.5094 18.7271ZM21.155 17.5029C21.155 17.555 20.9469 20.135 20.9261 20.3639L20.9019 20.5997H18.8281H16.7543L16.737 20.4159C16.7197 20.246 16.5081 17.5619 16.5081 17.5029C16.5081 17.4891 17.5554 17.4787 18.8316 17.4787C20.1112 17.4787 21.155 17.4891 21.155 17.5029ZM26.981 17.5203C26.981 17.5411 26.8839 17.874 26.766 18.2555C26.6515 18.6404 26.4434 19.3201 26.3047 19.7674L26.055 20.5824L24.0402 20.5928L22.022 20.5997V20.5165C22.022 20.4714 22.067 19.8021 22.126 19.0322C22.1815 18.2659 22.23 17.6 22.23 17.555V17.4787H24.6055C26.4088 17.4787 26.981 17.4891 26.981 17.5203ZM12.8565 26.7932C13.0888 26.9042 13.3316 27.1747 13.4079 27.4036C13.5778 27.9203 13.2761 28.5584 12.7733 28.7283C12.3779 28.8635 11.9826 28.7699 11.6844 28.4751C11.2786 28.0694 11.2613 27.4729 11.6428 27.0499C11.9757 26.6788 12.423 26.5852 12.8565 26.7932ZM25.6771 26.7828C25.9059 26.8903 26.1001 27.0845 26.2111 27.3238C26.2839 27.4833 26.2943 27.5423 26.2805 27.792C26.2631 28.1145 26.2076 28.2463 25.9961 28.4647C25.7846 28.6867 25.625 28.7595 25.2991 28.7768C25.039 28.7907 25.0078 28.7838 24.7962 28.6728C24.1651 28.3468 24.0194 27.5666 24.4876 27.036C24.7928 26.6857 25.254 26.5886 25.6771 26.7828Z" fill="#A3A3A3"/>
</svg>
