<svg width="104" height="104" viewBox="0 0 104 104" fill="none" xmlns="http://www.w3.org/2000/svg">
<path d="M52 104C80.7188 104 104 80.7188 104 52C104 23.2812 80.7188 0 52 0C23.2812 0 0 23.2812 0 52C0 80.7188 23.2812 104 52 104Z" fill="url(#paint0_linear)"/>
<path d="M65.9863 28.4056C55.4252 27.2468 44.8643 27.2468 34.3032 28.4056C31.9027 28.6689 30.0316 30.6133 29.8554 33.0218C28.8316 47.0074 28.8316 60.9929 29.8554 74.9786C30.0316 77.3871 31.9026 79.3314 34.3032 79.5948C44.8643 80.7536 55.4252 80.7536 65.9863 79.5948C68.3869 79.3314 70.2579 77.3871 70.4341 74.9786C71.4579 60.9929 71.4579 47.0074 70.4341 33.0218C70.2579 30.6133 68.3869 28.6689 65.9863 28.4056Z" fill="#838383"/>
<path d="M32.8657 76.1999C32.9635 77.5331 33.5516 78.7311 34.4537 79.6101C34.4029 79.6053 34.3535 79.6004 34.3027 79.5944C31.902 79.3312 30.0316 77.3869 29.8552 74.9779C28.8313 60.993 28.8313 47.0069 29.8552 33.0221C30.0315 30.6129 31.902 28.6688 34.3027 28.4056C34.3535 28.3995 34.4029 28.3947 34.4537 28.3899C33.5516 29.269 32.9635 30.4669 32.8657 31.8C31.7825 46.6 31.7825 61.4 32.8657 76.1999Z" fill="#6B6B6B"/>
<path d="M56.4182 40.5255C52.2359 40.3553 48.0534 40.3553 43.8711 40.5255C42.582 40.578 41.5317 41.5758 41.4001 42.8592C41.2694 44.1328 41.2694 45.4064 41.4001 46.68C41.5317 47.9633 42.582 48.9611 43.8711 49.0136C48.0534 49.1839 52.2359 49.1839 56.4182 49.0136C57.7073 48.9611 58.7575 47.9634 58.8891 46.68C59.0198 45.4064 59.0198 44.1328 58.8891 42.8592C58.7575 41.5758 57.7073 40.578 56.4182 40.5255Z" fill="#EDEDED"/>
<path d="M32.3755 38.882H28.3694C27.0608 38.882 26 37.8211 26 36.5126C26 35.204 27.0608 34.1432 28.3694 34.1432H32.3755C33.6841 34.1432 34.7449 35.204 34.7449 36.5126C34.7449 37.8211 33.6841 38.882 32.3755 38.882Z" fill="#B1B1B1"/>
<path d="M30.9589 38.8818H28.3695C27.0609 38.8818 26.0009 37.8218 26.0009 36.5132C26.0009 35.8588 26.2662 35.2657 26.6948 34.8372C27.1233 34.4086 27.7152 34.1433 28.3695 34.1433H30.9588C30.3044 34.1433 29.7126 34.4086 29.284 34.8372C28.8555 35.2657 28.5902 35.8588 28.5902 36.5132C28.5902 37.8218 29.6501 38.8818 30.9589 38.8818Z" fill="#9EA09F"/>
<path d="M32.3755 73.8564H28.3694C27.0608 73.8564 26 72.7955 26 71.4868C26 70.1782 27.0608 69.1174 28.3694 69.1174H32.3755C33.6841 69.1174 34.7449 70.1782 34.7449 71.4868C34.7449 72.7955 33.6841 73.8564 32.3755 73.8564Z" fill="#B1B1B1"/>
<path d="M30.9589 73.8566H28.3695C27.0609 73.8566 26.0009 72.7967 26.0009 71.488C26.0009 70.8337 26.2662 70.2406 26.6948 69.812C27.1233 69.3835 27.7152 69.1182 28.3695 69.1182H30.9588C30.3044 69.1182 29.7126 69.3835 29.284 69.812C28.8555 70.2406 28.5902 70.8337 28.5902 71.488C28.5902 72.7967 29.6501 73.8566 30.9589 73.8566Z" fill="#9EA09F"/>
<path d="M32.3755 65.113H28.3694C27.0608 65.113 26 64.0521 26 62.7436C26 61.4349 27.0608 60.3741 28.3694 60.3741H32.3755C33.6841 60.3741 34.7449 61.4349 34.7449 62.7436C34.7449 64.0521 33.6841 65.113 32.3755 65.113Z" fill="#B1B1B1"/>
<path d="M30.9589 65.1129H28.3695C27.0609 65.1129 26.0009 64.0529 26.0009 62.7443C26.0009 62.0899 26.2662 61.4968 26.6948 61.0683C27.1233 60.6397 27.7152 60.3744 28.3695 60.3744H30.9588C30.3044 60.3744 29.7126 60.6397 29.284 61.0683C28.8555 61.4968 28.5902 62.0899 28.5902 62.7443C28.5902 64.0529 29.6501 65.1129 30.9589 65.1129Z" fill="#9EA09F"/>
<path d="M32.3755 56.3694H28.3694C27.0608 56.3694 26 55.3087 26 54C26 52.6914 27.0608 51.6306 28.3694 51.6306H32.3755C33.6841 51.6306 34.7449 52.6914 34.7449 54C34.7449 55.3087 33.6841 56.3694 32.3755 56.3694Z" fill="#B1B1B1"/>
<path d="M30.9589 56.3693H28.3695C27.0609 56.3693 26.0009 55.3094 26.0009 54.0007C26.0009 53.3464 26.2662 52.7533 26.6948 52.3247C27.1233 51.8962 27.7152 51.6309 28.3695 51.6309H30.9588C30.3044 51.6309 29.7126 51.8962 29.284 52.3247C28.8555 52.7533 28.5902 53.3464 28.5902 54.0007C28.5902 55.3094 29.6501 56.3693 30.9589 56.3693Z" fill="#9EA09F"/>
<path d="M32.3755 47.6255H28.3694C27.0608 47.6255 26 46.5648 26 45.2561C26 43.9475 27.0608 42.8867 28.3694 42.8867H32.3755C33.6841 42.8867 34.7449 43.9475 34.7449 45.2561C34.7449 46.5648 33.6841 47.6255 32.3755 47.6255Z" fill="#B1B1B1"/>
<path d="M30.9589 47.6253H28.3695C27.0609 47.6253 26.0009 46.5654 26.0009 45.2567C26.0009 44.6023 26.2662 44.0093 26.6948 43.5807C27.1233 43.1522 27.7152 42.8868 28.3695 42.8868H30.9588C30.3044 42.8868 29.7126 43.1522 29.284 43.5807C28.8555 44.0093 28.5902 44.6023 28.5902 45.2567C28.5902 46.5655 29.6501 47.6253 30.9589 47.6253Z" fill="#9EA09F"/>
<path d="M76.027 58.1465C75.7964 58.1465 75.5659 58.0586 75.3899 57.8826C74.8012 57.294 74.73 56.6655 74.7739 56.2418C74.9505 54.5385 77.3113 52.9959 79.8106 51.3625C81.0351 50.5623 82.1916 49.8066 82.8008 49.1975C84.6845 47.3138 84.6712 45.8328 82.7536 43.9151C82.4016 43.5633 82.4016 42.9927 82.7536 42.6409C83.1054 42.2891 83.6759 42.2891 84.0277 42.6409C86.6415 45.2547 86.6574 47.8893 84.075 50.4718C83.3336 51.2131 82.1012 52.0184 80.7963 52.8712C79.2472 53.8834 76.6544 55.5779 76.5663 56.4278C76.5633 56.4577 76.5586 56.5029 76.664 56.6085C77.0159 56.9604 77.0159 57.5309 76.664 57.8827C76.4881 58.0585 76.2575 58.1465 76.027 58.1465Z" fill="#B1B1B1"/>
<path d="M59.4555 58.797L56.096 62.1565C55.2873 62.9652 55.2873 64.2766 56.096 65.0854C56.9048 65.8941 58.216 65.8941 59.0248 65.0854L62.3844 61.7259" fill="#9EA09F"/>
<path d="M56.8427 65.5632C56.5693 65.4636 56.314 65.3043 56.0949 65.0852C55.2865 64.2767 55.2865 62.9658 56.0959 62.1565L59.4554 58.797L60.6803 60.0218L57.3207 63.3814C56.7304 63.9716 56.5703 64.829 56.8427 65.5632Z" fill="#9EA09F"/>
<path d="M83.9908 43.2782C81.3814 46.3573 76.0149 52.6272 69.745 59.6227C69.5035 59.8918 69.2609 60.1621 69.0171 60.4336C69.0171 60.4336 68.7624 60.5453 68.3239 60.7315C66.8415 61.3622 63.2626 62.8423 60.4033 63.7073L57.4745 60.7783C58.3394 57.919 59.8195 54.3402 60.4502 52.8577C60.6364 52.4192 60.7481 52.1645 60.7481 52.1645C61.0196 51.9207 61.29 51.678 61.559 51.4364C68.5545 45.1654 74.8244 39.8001 77.9035 37.1895C79.0364 36.2296 80.7171 36.2992 81.7684 37.3492L83.8323 39.4131C84.8823 40.4646 84.9519 42.1442 83.9908 43.2782Z" fill="#EDEDED"/>
<path d="M58.4657 61.77L57.4745 60.7787C58.5934 57.0743 60.748 52.164 60.748 52.164C68.0663 45.5825 74.7057 39.901 77.9032 37.1906C79.0366 36.2292 80.7177 36.2989 81.7678 37.349L82.1661 37.7473C77.8505 39.3542 65.8491 51.3013 63.4991 54.3178C61.5935 56.7647 59.4153 60.2265 58.4657 61.77Z" fill="#DBDBDB"/>
<path d="M69.745 59.623C69.5035 59.8921 69.2609 60.1624 69.0171 60.4339C69.0171 60.4339 68.7624 60.5456 68.3239 60.7318C66.0581 57.7621 63.42 55.1227 60.4502 52.8581C60.6364 52.4196 60.7481 52.165 60.7481 52.165C61.0196 51.9211 61.29 51.6784 61.559 51.4369C64.6441 53.7927 67.388 56.5366 69.745 59.623Z" fill="#DBDBDB"/>
<defs>
<linearGradient id="paint0_linear" x1="52" y1="0" x2="52" y2="104" gradientUnits="userSpaceOnUse">
<stop stop-color="#ED0A2A" stop-opacity="0"/>
<stop offset="1" stop-color="#8D8D8D" stop-opacity="0.1"/>
</linearGradient>
</defs>
</svg>
