<svg width="24" height="24" viewBox="0 0 24 24" fill="none" xmlns="http://www.w3.org/2000/svg">
<path d="M11.2649 2.12913C10.8992 2.17659 10.5949 2.24359 10.2599 2.35247C8.62952 2.89127 7.29787 4.262 6.65298 6.06266C6.52735 6.41441 6.42964 6.72988 6.40731 6.87225C6.37102 7.09838 6.3766 7.09559 6.00251 7.09559C5.81826 7.09559 5.66751 7.10118 5.66751 7.10676C5.66751 7.11513 5.70659 7.23797 5.75684 7.38035C5.84617 7.63439 5.84618 7.65114 5.84897 8.14249C5.84897 8.63662 5.84617 8.65058 5.75684 8.92696C5.567 9.51043 5.18175 10.0157 4.68761 10.3368C4.43636 10.4987 4.45311 10.4708 4.50894 10.6439C4.58711 10.8728 4.57594 11.1799 4.48661 11.3753C4.39727 11.5735 4.20465 11.7801 4.0176 11.8834C3.83056 11.9839 3.45926 12.0146 3.24988 11.942C3.17729 11.9169 3.11308 11.9001 3.11029 11.9057C3.10192 11.9141 3.26663 13.6003 3.33642 14.2284C3.3783 14.6193 3.69097 17.7376 3.73843 18.2904C3.80822 19.0413 3.8836 19.689 3.92547 19.8537C4.09298 20.5321 4.43357 21.2217 4.77416 21.579C4.92491 21.7381 5.19291 21.9084 5.35483 21.9503C5.51675 21.9894 15.5027 22.0201 17.1303 21.9838L18.1632 21.9615L18.3447 21.8721C18.8137 21.6404 19.252 20.9704 19.5256 20.0687C19.6038 19.8147 19.6317 19.6444 19.6791 19.1558C19.7126 18.8264 19.7573 18.3797 19.7796 18.1647C19.8187 17.8074 19.8969 17.0257 19.9611 16.3669C19.975 16.2189 20.0448 15.5405 20.1174 14.8566C20.2793 13.296 20.2793 13.2932 20.2542 13.2932C20.2347 13.2932 19.6205 13.7231 19.2352 14.0051C18.9979 14.1782 18.5401 14.5048 17.9511 14.918C17.7277 15.0743 17.2783 15.3954 16.9516 15.6327C16.6222 15.8672 16.3347 16.0682 16.3095 16.0793C16.2844 16.0877 16.2509 16.11 16.2342 16.1296C16.209 16.1575 15.8377 16.4255 14.7825 17.1737C14.6289 17.2826 14.347 17.4836 14.1543 17.6204C13.9617 17.7572 13.7691 17.894 13.7216 17.9275C13.6769 17.9582 13.5374 18.0587 13.4145 18.1508C13.2917 18.2429 13.1772 18.3183 13.1577 18.3183C13.1409 18.3183 13.1214 18.3295 13.1158 18.3406C13.113 18.3518 12.9818 18.4523 12.8283 18.564C12.6747 18.6728 12.524 18.7845 12.4933 18.8096C12.4123 18.8738 12.2587 18.9492 12.1303 18.9883C12.0438 19.0134 11.988 19.0134 11.8986 18.9911C11.7953 18.9632 11.357 18.6812 10.888 18.3434C10.8043 18.282 10.6842 18.1982 10.6228 18.1536C10.5614 18.1117 10.3353 17.9498 10.1203 17.799C9.60662 17.4333 9.5452 17.3887 8.95056 16.9699C8.67418 16.7745 8.42014 16.593 8.38943 16.5707C8.35872 16.5483 8.20797 16.4423 8.05442 16.3334C7.90088 16.2245 7.76967 16.1296 7.76129 16.1184C7.75292 16.1073 7.71662 16.0821 7.67754 16.0598C7.63846 16.0403 7.42908 15.8951 7.20853 15.7387C6.38218 15.1553 6.33752 15.1078 6.33752 14.8398C6.33752 14.7086 6.35427 14.6751 6.56365 14.3652C6.99078 13.7399 7.02707 13.7008 7.20853 13.6394C7.38999 13.5808 7.53516 13.6198 7.77246 13.7929C7.87017 13.8627 8.01813 13.9688 8.09909 14.0274C8.18284 14.0833 8.42572 14.2563 8.64068 14.4099C8.85565 14.5634 9.12086 14.7505 9.22694 14.8259C9.33582 14.8984 9.65408 15.1246 9.93883 15.3256C10.6284 15.8141 10.5363 15.7471 11.3068 16.2943C11.6837 16.5623 12.0047 16.7828 12.0215 16.7828C12.0466 16.7828 12.6049 16.3976 13.1353 16.0179C13.1661 15.9956 13.2973 15.9007 13.4285 15.8085C13.5597 15.7164 13.73 15.5936 13.8081 15.535C13.8891 15.4763 13.9757 15.4121 14.0036 15.3926C14.1236 15.3116 14.9248 14.7449 14.9528 14.7198C14.9835 14.6946 15.6758 14.2033 15.7819 14.1307C15.8154 14.1084 15.9131 14.0414 15.9969 13.9772C16.0834 13.9158 16.1727 13.8515 16.1979 13.8376C16.2621 13.7985 17.1024 13.1927 17.2699 13.0671C17.348 13.0057 17.4206 12.9582 17.4318 12.9582C17.443 12.9582 17.4653 12.9442 17.4848 12.9275C17.5044 12.9107 17.7836 12.7097 18.1046 12.4836C18.4284 12.2547 18.7048 12.0565 18.7188 12.0425C18.7355 12.0286 18.7858 11.9951 18.8304 11.9643C18.8779 11.9364 18.9282 11.9029 18.9421 11.889C19.118 11.7522 19.3106 11.6182 19.3413 11.6182C19.3581 11.6182 19.3748 11.607 19.3748 11.5958C19.3748 11.5847 19.5005 11.487 19.6568 11.3809C19.8131 11.272 19.9527 11.1715 19.9695 11.1575C19.989 11.1408 20.1146 11.0487 20.2486 10.951C20.3854 10.8532 20.5055 10.7472 20.5194 10.7137C20.5306 10.6802 20.5613 10.4289 20.5864 10.1525C20.6116 9.87614 20.6506 9.4853 20.673 9.28709C20.726 8.82925 20.8824 7.24355 20.8824 7.1598V7.09559L19.0622 7.09001L17.2392 7.08163L17.1805 6.81642C16.974 5.92586 16.5524 5.02135 16.0052 4.30108C14.9416 2.89964 13.3671 2.08446 11.7674 2.10121C11.5999 2.104 11.3738 2.11517 11.2649 2.12913ZM12.2699 3.18998C13.2219 3.30444 14.0203 3.71482 14.7601 4.47417C15.0449 4.7673 15.1956 4.95435 15.3883 5.25585C15.7065 5.74998 16.0778 6.60983 16.1253 6.96717L16.1448 7.09559L11.8065 7.09001L7.46816 7.08163L7.47654 6.98951C7.48212 6.89459 7.64683 6.37812 7.725 6.20504C7.99859 5.59086 8.13817 5.34519 8.45643 4.91805C8.65464 4.65284 9.00361 4.28712 9.2074 4.13079C9.29394 4.06379 9.38328 3.99679 9.40003 3.97724C9.5787 3.80974 10.2124 3.48032 10.6228 3.34073C11.0723 3.18719 11.7423 3.12577 12.2699 3.18998ZM8.76631 8.98558C8.87798 9.06096 8.93102 9.13634 8.96452 9.25638C9.0064 9.41272 8.97569 9.70306 8.9059 9.81752C8.79702 9.99619 8.77189 9.99898 7.64962 9.99898C6.66415 9.99898 6.63623 9.99619 6.53015 9.93756C6.37102 9.84822 6.32914 9.73935 6.3431 9.42668C6.35148 9.181 6.35706 9.15867 6.43523 9.07771C6.48269 9.02746 6.5441 8.97721 6.57481 8.96604C6.60552 8.95208 7.09686 8.94092 7.66358 8.94092C8.59322 8.93812 8.70489 8.94371 8.76631 8.98558ZM17.0856 8.99954C17.2224 9.09446 17.281 9.22567 17.281 9.44063C17.281 9.66397 17.2531 9.77285 17.1666 9.86497C17.041 9.99898 17.0354 9.99898 15.9466 9.99898C14.922 9.99898 14.9165 9.99898 14.8215 9.93477C14.682 9.84264 14.6289 9.71701 14.6289 9.46855C14.6289 9.22009 14.682 9.09446 14.8215 9.00233C14.9165 8.93812 14.922 8.93812 15.955 8.93812C16.9851 8.93812 16.9935 8.93812 17.0856 8.99954Z" fill="white"/>
</svg>
