<svg width="14" height="10" viewBox="0 0 14 10" fill="none" xmlns="http://www.w3.org/2000/svg">
<path d="M1.22135 4.80701C1.23358 4.80701 1.24444 4.80701 1.25666 4.80566L2.44076 9.09123H7.00064H11.5592L12.7433 4.80566C12.7555 4.80566 12.7663 4.80701 12.7786 4.80701C13.2688 4.80701 13.6666 4.40915 13.6666 3.91894C13.6666 3.42873 13.2688 3.03086 12.7786 3.03086C12.2884 3.03086 11.8905 3.42873 11.8905 3.91894C11.8905 4.01399 11.9054 4.10633 11.9339 4.19188L9.79251 5.44388L7.49084 1.62814C7.72985 1.46926 7.88873 1.19632 7.88873 0.888076C7.88873 0.397869 7.49084 0 7.00065 0C6.51046 0 6.11258 0.397869 6.11258 0.888076C6.11258 1.19768 6.27011 1.46926 6.51046 1.62814L4.20879 5.44388L2.06736 4.19188C2.09452 4.10633 2.11082 4.01399 2.11082 3.91894C2.11082 3.42873 1.71295 3.03086 1.22274 3.03086C0.731174 3.03086 0.333305 3.42873 0.333305 3.91894C0.333305 4.40915 0.731147 4.80701 1.22135 4.80701Z" fill="#FFB41F"/>
</svg>
