<svg xmlns="http://www.w3.org/2000/svg" width="40" height="40" viewBox="0 0 40 40"><g transform="translate(-40 -552)"><g transform="translate(5.343 557)"><path d="M9438.772-3011.154h23.139s-3.242-5.232-3.537-7.3.443-6.485-.441-8.327-2.875-4.2-5.454-4.569-4.2-.516-5.9.663-3.685,2.505-4.2,4.79.516,5.38,0,6.927-2.5,5.527-2.5,5.527Z" transform="translate(-9395.188 3036.584)" fill="#eb2843"/><g transform="translate(42.657 4.352)"><g transform="translate(0)"><path d="M67.439,95.486,65.3,91.928A10.578,10.578,0,0,1,63.8,86.489V83.371a8.7,8.7,0,1,0-17.409,0v3.117a10.578,10.578,0,0,1-1.506,5.439l-2.136,3.559a.621.621,0,0,0,.533.941H66.906a.621.621,0,0,0,.534-.941Zm-23.061-.3,1.571-2.618a11.811,11.811,0,0,0,1.684-6.078V83.371a7.461,7.461,0,1,1,14.922,0v3.117a11.821,11.821,0,0,0,1.682,6.078l1.572,2.618Z" transform="translate(-42.657 -74.667)" fill="#405260"/></g></g><g transform="translate(52.606)"><path d="M215.82,0a2.489,2.489,0,0,0-2.487,2.487V4.974a.622.622,0,0,0,1.244,0V2.487a1.243,1.243,0,0,1,2.487,0V4.974a.622.622,0,0,0,1.243,0V2.487A2.489,2.489,0,0,0,215.82,0Z" transform="translate(-213.333)" fill="#405260"/></g><g transform="translate(51.984 24.87)"><path d="M208.466,426.986a.623.623,0,1,0-1.074.629,1.865,1.865,0,1,1-3.231,0,.623.623,0,1,0-1.074-.629,3.11,3.11,0,1,0,5.379,0Z" transform="translate(-202.666 -426.68)" fill="#405260"/></g></g><g transform="translate(0 73)"><rect width="40" height="40" transform="translate(40 479)" fill="none"/></g></g></svg>