<svg width="32" height="32" viewBox="0 0 32 32" fill="none" xmlns="http://www.w3.org/2000/svg">
<path d="M15.7037 1.57044C14.7674 1.686 14.0385 2.00304 13.3096 2.61341C12.5244 3.27415 11.8518 4.41489 11.6148 5.48748L11.5763 5.65933H11.283C11.123 5.65933 10.9926 5.66526 10.9926 5.67415C10.9926 5.68007 11.0281 5.79267 11.0696 5.91711C11.1644 6.19859 11.1941 6.61933 11.1437 6.92155C11.043 7.49637 10.643 8.08304 10.1659 8.35859C10.0385 8.4297 9.99111 8.47118 10.0059 8.50378C10.1185 8.7823 10.1274 8.88896 10.0563 9.12304C10 9.31859 9.81629 9.526 9.61481 9.61785C9.44296 9.69785 9.17926 9.7097 9.00148 9.64748C8.92148 9.61785 8.88889 9.61785 8.88889 9.64155C8.88889 9.65933 8.98963 10.6608 9.11111 11.8667C9.23555 13.0727 9.35111 14.2312 9.36889 14.4386C9.38666 14.646 9.41629 14.8356 9.43407 14.8564C9.45185 14.8801 10.9363 15.443 12.7348 16.1127L16 17.3304L19.3126 16.1127C21.1318 15.443 22.6252 14.8919 22.6311 14.889C22.6518 14.8712 23.0607 10.7853 23.043 10.7645C23.0341 10.7586 22.243 11.3097 21.283 11.9912C20.3259 12.6756 18.8889 13.6979 18.0889 14.2667C17.2918 14.8356 16.5718 15.3393 16.4889 15.3838C16.3081 15.4845 16.1718 15.4875 16.0148 15.3986C15.8074 15.2801 11.8133 12.4416 11.7037 12.3379C11.6118 12.246 11.6 12.2193 11.6 12.0801C11.6 11.9349 11.6148 11.9082 11.8459 11.5793C12.1541 11.1467 12.2252 11.0816 12.4118 11.0816C12.5452 11.0816 12.5926 11.1112 14.3704 12.3734C15.3718 13.0845 16.2074 13.6712 16.2281 13.6801C16.2459 13.686 17.6059 12.7379 19.2504 11.5675C20.8918 10.3971 22.4593 9.28304 22.7318 9.09044C23.0044 8.89489 23.2385 8.72304 23.2504 8.70526C23.2652 8.67859 23.4311 7.10822 23.5615 5.76304L23.5704 5.67415L22.0652 5.65933L20.557 5.64452L20.4711 5.30378C20.0237 3.57044 18.7496 2.17489 17.2 1.72155C16.7348 1.58526 16.1067 1.52304 15.7037 1.57044ZM16.4296 2.49192C17.6356 2.64007 18.6874 3.45785 19.2859 4.71118C19.4252 5.00452 19.6148 5.526 19.6148 5.61785C19.6148 5.65341 19.0993 5.65933 16.0593 5.65933C14.1037 5.65933 12.5037 5.65341 12.5037 5.64452C12.5037 5.63859 12.5541 5.47267 12.6193 5.28304C12.9748 4.19563 13.7037 3.29489 14.5956 2.83859C14.9896 2.63711 15.2622 2.55415 15.7926 2.47711C15.9496 2.45637 16.1718 2.45933 16.4296 2.49192ZM13.5941 7.25933C13.597 7.25933 13.6267 7.30378 13.6593 7.35415C13.7037 7.42822 13.7185 7.50526 13.7185 7.65341C13.7185 7.846 13.7126 7.86378 13.6178 7.95859L13.517 8.05933H12.6518H11.7867L11.6859 7.95859C11.5911 7.86378 11.5852 7.846 11.5852 7.65341C11.5852 7.50526 11.6 7.42822 11.6444 7.35415C11.677 7.30378 11.7067 7.25637 11.7096 7.25341C11.7363 7.23267 13.4222 7.21785 13.4963 7.23563C13.5437 7.25044 13.5881 7.25933 13.5941 7.25933ZM20.4148 7.28304C20.5215 7.36304 20.563 7.46081 20.563 7.63859C20.563 7.81044 20.5096 7.94378 20.4089 8.01192C20.3141 8.08007 18.7081 8.08304 18.5807 8.01489C18.4593 7.95267 18.3911 7.7897 18.4059 7.59415C18.4207 7.40748 18.4978 7.28896 18.6281 7.24452C18.6815 7.22674 19.0459 7.21785 19.5289 7.22081C20.2696 7.22674 20.3467 7.23267 20.4148 7.28304Z" fill="#ED0A2A"/>
<path d="M8.51852 12.6431C8.26667 12.7409 8.15704 12.7823 7.77778 12.9186C7.68889 12.9512 7.54371 13.0046 7.46074 13.0342C7.37482 13.0668 7.13185 13.1557 6.91852 13.2297C6.70815 13.3068 6.50667 13.3779 6.47408 13.3927C6.41482 13.4164 6.23408 13.4846 5.92 13.5972C5.83408 13.6268 5.63259 13.7038 5.47259 13.766L5.18222 13.8816L3.49333 15.5705C2.54815 16.5186 1.81333 17.2742 1.82222 17.2949C1.82815 17.3157 1.85185 17.3335 1.87259 17.3335C1.89333 17.3335 2.03852 17.3809 2.19259 17.4401C2.50667 17.5586 2.61037 17.5972 3.26815 17.8342C3.35111 17.8668 3.55556 17.9409 3.71852 18.0001C4.05926 18.1246 4.25778 18.1986 4.48889 18.2816C4.72 18.3646 4.91852 18.4386 5.25926 18.5631C5.42222 18.6223 5.62667 18.6964 5.71259 18.729C6.09185 18.8653 6.20148 18.9068 6.34963 18.9601C6.43259 18.9927 6.69037 19.0875 6.91852 19.1735C7.14667 19.2564 7.36593 19.3364 7.40741 19.3483C7.44889 19.3631 7.58815 19.4135 7.71852 19.4609C7.84889 19.5083 8.18371 19.6297 8.45926 19.7335C9.12296 19.9735 9.27704 20.0297 9.34815 20.0594C9.38074 20.0742 9.54074 20.1335 9.70371 20.1927C10.1215 20.3438 10.6252 20.5275 10.8 20.5927C10.883 20.6223 11.1763 20.729 11.4519 20.8297C11.7304 20.9335 12.0622 21.0549 12.1926 21.1023C12.323 21.1527 12.4622 21.1972 12.5037 21.206C12.5689 21.2149 12.797 20.9986 14.2667 19.529C15.3067 18.486 15.9437 17.8283 15.9259 17.8135C15.9081 17.7986 15.7422 17.7305 15.5556 17.6623C15.3689 17.5942 15.1437 17.5112 15.0607 17.4786C14.9748 17.449 14.8326 17.3957 14.7496 17.366C14.6637 17.3335 14.4593 17.2594 14.2963 17.2001C13.9556 17.0757 13.757 17.0016 13.5259 16.9186C13.437 16.886 13.2919 16.8327 13.2089 16.8031C13.123 16.7705 12.9185 16.6964 12.7556 16.6372C12.5926 16.5779 12.3882 16.5038 12.3052 16.4742C12.2193 16.4416 12.0741 16.3883 11.9852 16.3557C11.8963 16.3231 11.7511 16.2697 11.6681 16.2401C11.5822 16.2075 11.3778 16.1335 11.2148 16.0742C10.8444 15.9409 10.6104 15.8549 10.5333 15.8223C10.5007 15.8075 10.4148 15.7749 10.3407 15.7512C10.2667 15.7275 10.1007 15.6683 9.97037 15.6209C9.84 15.5705 9.57926 15.4757 9.39259 15.4075C9.20593 15.3394 8.96593 15.2505 8.85926 15.209C8.75259 15.1675 8.60741 15.1142 8.53333 15.0905C8.45926 15.0668 8.20148 14.9749 7.95556 14.8831C7.71259 14.7942 7.43704 14.6935 7.34815 14.6609C7.0163 14.5394 6.86815 14.4742 6.86815 14.4446C6.86815 14.4268 6.96593 14.3794 7.08741 14.3379C7.20593 14.2964 7.32445 14.2549 7.34815 14.2431C7.41037 14.2194 8.80593 13.7157 8.85333 13.7038C8.87111 13.6949 8.88889 13.6475 8.88889 13.5942C8.88889 13.4757 8.80296 12.5572 8.79408 12.5483C8.78815 12.5453 8.66667 12.5868 8.51852 12.6431Z" fill="#FFB41F"/>
<path d="M23.3333 12.6311C23.3067 12.7141 23.2267 13.6889 23.2415 13.7156C23.2533 13.7334 23.3037 13.76 23.3571 13.7748C23.4104 13.7897 23.7245 13.9052 24.0593 14.0297C24.3941 14.1541 24.7674 14.2904 24.8889 14.3319C25.0104 14.3734 25.123 14.4178 25.1378 14.4326C25.1526 14.4445 25.12 14.4771 25.0637 14.5008C24.9571 14.5452 24.8919 14.5719 24.1778 14.8297C23.9259 14.9215 23.6178 15.0341 23.4963 15.0815C23.2415 15.1793 22.6311 15.4015 21.3185 15.8756C21.0311 15.9793 20.7704 16.0771 20.3704 16.2282C20.3052 16.2519 20.1926 16.2904 20.1185 16.3141C20.0445 16.3378 19.9585 16.3704 19.9259 16.3852C19.8933 16.4 19.6593 16.486 19.4074 16.5778C19.1556 16.6697 18.8771 16.7704 18.7941 16.803C18.7082 16.8326 18.5659 16.886 18.483 16.9156C17.8163 17.1585 17.3837 17.3156 17.2534 17.366C16.9659 17.4697 16.7882 17.5348 16.4059 17.6771L16.0237 17.8163L17.7245 19.5171C18.6578 20.4504 19.443 21.2148 19.4696 21.2148C19.4963 21.2148 19.5822 21.1882 19.6622 21.1585C19.8193 21.0963 19.8726 21.0785 20.6667 20.7852C20.96 20.6756 21.2415 20.5748 21.2889 20.5571C21.3393 20.5422 21.4045 20.5156 21.4371 20.5037C21.4696 20.4889 21.7245 20.3941 22 20.2934C22.2785 20.1926 22.6104 20.0711 22.7408 20.0237C22.8711 19.9763 23.0104 19.926 23.0519 19.9111C23.0933 19.8993 23.3067 19.8222 23.5259 19.7393C23.7452 19.6593 24.0208 19.5585 24.1333 19.5171C24.2489 19.4756 24.4533 19.3985 24.5926 19.3482C24.7319 19.2978 24.9304 19.2237 25.0371 19.1852C25.1437 19.1467 25.3215 19.0815 25.437 19.04C25.5496 18.9985 25.6533 18.963 25.6652 18.963C25.68 18.963 25.6889 20.7082 25.6889 22.8415C25.6889 26.5067 25.6859 26.72 25.6385 26.7408C25.6089 26.7497 25.44 26.8119 25.2593 26.8771C25.0815 26.9422 24.8622 27.0222 24.7793 27.0548C24.6933 27.0845 24.5482 27.1378 24.4593 27.1704C24.3704 27.203 24.2252 27.2563 24.1422 27.286C24.0563 27.3185 23.7778 27.4193 23.5259 27.5111C23.2741 27.603 23.0015 27.7037 22.9185 27.7334C22.7082 27.8134 22.1689 28.0089 21.8222 28.1334C21.6593 28.1926 21.4993 28.2519 21.4667 28.2667C21.3867 28.2993 21.1763 28.3763 20.5333 28.6074C19.8993 28.8356 19.683 28.9156 19.6 28.9482C19.5674 28.963 19.3867 29.0282 19.2 29.0963C19.0134 29.1645 18.7526 29.2593 18.6222 29.3097C18.4919 29.3571 18.3111 29.4222 18.2222 29.4519C18.1334 29.4815 17.7867 29.6089 17.4519 29.7334C17.1171 29.8578 16.8119 29.9734 16.7704 29.9852C16.7289 30 16.563 30.0593 16.4 30.1185C16.2371 30.1808 16.08 30.2341 16.0534 30.243C16.003 30.2578 16 29.9793 16 24.6845C16 21.6208 15.9911 19.1111 15.9763 19.1111C15.9645 19.1111 15.2474 19.8163 14.3852 20.6815C13.52 21.5467 12.7911 22.2519 12.7645 22.2519C12.7348 22.2519 12.6548 22.2311 12.5867 22.2045C12.5156 22.1778 12.3852 22.1304 12.2963 22.0978C12.2074 22.0652 12.1067 22.0267 12.0741 22.0148C12.0119 21.9911 11.9615 21.9704 11.2297 21.7037C10.9778 21.6119 10.6993 21.5111 10.6163 21.4785C10.3911 21.3985 10.2074 21.3304 9.68891 21.1408C9.43706 21.0489 9.15854 20.9482 9.07558 20.9156C8.83854 20.8297 8.65188 20.7615 8.14817 20.5778C7.89632 20.486 7.6178 20.3852 7.53484 20.3526C7.44891 20.323 7.30669 20.2697 7.22373 20.24C7.1378 20.2074 6.93336 20.1334 6.7704 20.0741C6.60743 20.0148 6.40299 19.9408 6.31706 19.9111C6.2341 19.8785 6.09188 19.8252 6.00595 19.7956C5.92299 19.763 5.71262 19.686 5.54077 19.6208C5.36891 19.5585 5.22077 19.5111 5.20891 19.5171C5.1941 19.523 5.18521 21.3126 5.18521 23.4934C5.18521 26.6311 5.1941 27.4637 5.22373 27.4874C5.24151 27.5022 5.31262 27.5319 5.3778 27.5526C5.47854 27.5882 6.14225 27.8282 6.6904 28.0326C6.77336 28.0622 6.91558 28.1156 7.00151 28.1452C7.08447 28.1778 7.28891 28.2519 7.45188 28.3111C7.61484 28.3704 7.81928 28.4445 7.90225 28.4771C7.98817 28.5067 8.13039 28.56 8.21336 28.5897C8.92743 28.8534 9.21188 28.9571 9.2741 28.9778C9.31558 28.9926 9.46076 29.046 9.60002 29.0963C9.73928 29.1467 9.88447 29.2 9.92595 29.2148C9.96743 29.2267 10.0948 29.2741 10.2074 29.3185C10.323 29.36 10.5215 29.4341 10.6519 29.4815C10.7822 29.5289 10.9956 29.606 11.1259 29.6534C11.2563 29.7008 11.6622 29.8489 12.0297 29.9822C12.3971 30.1156 12.723 30.2371 12.7556 30.2519C12.7882 30.2637 12.8563 30.2904 12.9037 30.3052C12.9541 30.323 13.1793 30.406 13.4074 30.4889C13.6356 30.5748 13.9496 30.6874 14.1037 30.7437C14.2578 30.803 14.4534 30.8741 14.5334 30.9037C14.6845 30.96 15.5645 31.28 15.84 31.3808C16.0208 31.446 15.9585 31.4608 16.7704 31.1556C17.1052 31.0311 17.4371 30.9097 17.5111 30.886C17.5852 30.8622 17.6711 30.8297 17.7037 30.8178C17.7363 30.803 17.8045 30.7763 17.8519 30.7615C17.9022 30.7437 18.1808 30.64 18.4741 30.5334C19.4756 30.166 19.4726 30.166 20.0889 29.9408C20.3408 29.8489 20.6193 29.7482 20.7052 29.7156C20.9393 29.6297 21.1259 29.5615 21.6296 29.3778C21.8815 29.286 22.16 29.1852 22.2459 29.1526C22.3289 29.123 22.4711 29.0697 22.5571 29.04C22.64 29.0074 22.8445 28.9334 23.0074 28.8741C23.1704 28.8148 23.3748 28.7408 23.4608 28.7082C23.9467 28.5304 24.1126 28.4711 24.5482 28.3111C24.7111 28.2519 24.9156 28.1778 25.0015 28.1452C25.3778 28.0089 25.4904 27.9674 25.6385 27.9141C25.7215 27.8815 26 27.7808 26.2519 27.6889C26.5037 27.5971 26.7319 27.5111 26.7556 27.4993C26.7941 27.4785 26.8 26.9452 26.8089 23.0104L26.8148 18.5482L26.9126 18.5067C26.963 18.483 27.0845 18.4356 27.1793 18.403C27.2711 18.3674 27.4222 18.3141 27.5111 18.2815C27.6 18.2489 27.7452 18.1956 27.8311 18.166C27.9141 18.1334 28.1185 18.0593 28.2815 18C28.4445 17.9408 28.6489 17.8667 28.7348 17.8341C28.8178 17.8045 28.96 17.7511 29.0459 17.7215C29.1289 17.6889 29.4015 17.5882 29.6474 17.4993C29.8904 17.4074 30.1096 17.3334 30.1274 17.3334C30.1482 17.3334 30.1719 17.3156 30.1778 17.2948C30.1867 17.2741 29.4519 16.5185 28.5067 15.5704L26.8178 13.8815L26.557 13.7748C26.4148 13.7156 26.1956 13.6356 26.0741 13.5911C25.843 13.5111 25.5585 13.4074 24.7556 13.1111C24.5926 13.0519 24.4267 12.9926 24.3852 12.9778C24.3437 12.966 24.1985 12.9097 24.0593 12.8593C23.3867 12.6074 23.3452 12.5956 23.3333 12.6311Z" fill="#FFCF70"/>
<path d="M24.3555 25.2415C24.2015 25.3008 24.0178 25.3689 23.9496 25.3897L23.8222 25.4312V25.9319C23.8222 26.2401 23.8341 26.4297 23.8518 26.4297C23.8666 26.4297 23.9704 26.3941 24.08 26.3526C24.1926 26.3112 24.3555 26.2489 24.4444 26.2164C24.7763 26.0949 24.7407 26.1719 24.7407 25.6149C24.7407 25.1674 24.7348 25.126 24.6904 25.1289C24.6607 25.1289 24.5096 25.1793 24.3555 25.2415Z" fill="#F5A300"/>
<path d="M22.8593 25.7865L22.4444 25.9436L22.4356 26.4147C22.4326 26.6725 22.4385 26.8947 22.4533 26.9095C22.4652 26.9214 22.5896 26.8917 22.7289 26.8414C22.8652 26.7939 23.037 26.7317 23.1111 26.7051C23.3659 26.6191 23.3482 26.6636 23.3482 26.1184C23.3482 25.745 23.3393 25.6295 23.3126 25.6295C23.2919 25.6295 23.0874 25.7006 22.8593 25.7865Z" fill="#F5A300"/>
<path d="M21.4667 26.2932L21.0518 26.4473V26.9332V27.4221L21.1259 27.4132C21.2 27.4073 21.2859 27.3777 21.7185 27.2088L21.9407 27.1229L21.9496 26.6281C21.9556 26.2429 21.9496 26.1332 21.92 26.1362C21.8993 26.1362 21.6948 26.2073 21.4667 26.2932Z" fill="#F5A300"/>
</svg>
