<svg xmlns="http://www.w3.org/2000/svg" width="42" height="42" viewBox="0 0 42 42"><defs><style>.a,.c,.d{fill:#fff;}.a,.b,.c,.d{stroke:#405260;stroke-miterlimit:10;}.a,.b,.c{stroke-width:2.126px;}.b{fill:rgba(0,0,0,0);}.b,.c,.d{stroke-linecap:round;stroke-linejoin:round;}.d{stroke-width:1.375px;}.e{fill:none;}</style></defs><g transform="translate(-104 -107)"><g transform="translate(113 113)"><path class="a" d="M312.159,322.391H298.779a3.982,3.982,0,0,1-3.979-3.979V303.18a3.982,3.982,0,0,1,3.979-3.98h13.379a3.982,3.982,0,0,1,3.98,3.98v15.232A3.982,3.982,0,0,1,312.159,322.391Z" transform="translate(-294.8 -291.79)"/><path class="b" d="M304.1,299.652v-7a4.247,4.247,0,0,1,4.323-4.254h0a4.231,4.231,0,0,1,4.254,4.254v7" transform="translate(-297.719 -288.4)"/><ellipse class="c" cx="4.323" cy="4.323" rx="4.323" ry="4.323" transform="translate(15.438 17.77)"/><path class="d" d="M321.7,320.1l1.1,1.1,2.127-2.2" transform="translate(-303.243 -298.005)"/></g><path class="e" d="M0,0H42V42H0Z" transform="translate(104 107)"/></g></svg>