<svg xmlns="http://www.w3.org/2000/svg" width="42" height="42" viewBox="0 0 42 42"><defs><style>.a{fill:#eb2843;}.b{fill:none;}</style></defs><g transform="translate(-166 -107)"><path class="a" d="M43.228,6.636a.976.976,0,0,0-.6-.9L28.844.073a.976.976,0,0,0-.741,0L14.324,5.734a.976.976,0,0,0-.6.9v17.91a.976.976,0,0,0,.6.9L28.1,31.109a.972.972,0,0,0,.74,0l13.78-5.661a.976.976,0,0,0,.6-.9ZM28.474,11.324,23.4,9.238,34.369,4.452l5.417,2.225Zm-12.8-3.15,4.38,1.8V15.05a.976.976,0,0,0,1.951,0V10.775l5.5,2.258V28.751L15.67,23.892Zm12.8-6.143L31.856,3.42,20.883,8.206,17.162,6.677Zm.976,11L41.277,8.174V23.892L29.449,28.751Z" transform="translate(157.281 113.069)"/><rect class="b" width="42" height="42" transform="translate(166 107)"/></g></svg>