<svg xmlns="http://www.w3.org/2000/svg" width="40" height="40" viewBox="0 0 40 40"><g transform="translate(-40 -406)"><g transform="translate(-1.194 5)"><path d="M440.894,431.053V421.4l1.021-.557h3.621l.464.557.464,12.162-.928,1.207-2.6.557-2.042-.557Z" transform="translate(-392)" fill="#eb2843"/><g transform="translate(6.194 406)"><path d="M67.078,135.125a2.256,2.256,0,0,0-.743-1.674,2.259,2.259,0,0,0-1.516-3.933H57.666c.642-1.747,1.388-4.684.11-6.632a6.107,6.107,0,0,0-1.668-1.73,1.423,1.423,0,0,0-1.337-.35c-.534.22-.694.858-.774,1.389l0,.029a19.446,19.446,0,0,1-1.131,4.538c-.787,1.855-1.818,2.756-3.151,2.756H48.485a1.972,1.972,0,0,0-1.945-1.663H43.968A1.97,1.97,0,0,0,42,129.824v3.091a.586.586,0,1,0,1.172,0v-3.091a.8.8,0,0,1,.8-.8H46.54a.8.8,0,0,1,.8.8v11.444a.8.8,0,0,1-.8.8H43.968a.8.8,0,0,1-.8-.8v-3.091a.586.586,0,1,0-1.172,0v3.091a1.97,1.97,0,0,0,1.968,1.968H46.54a1.972,1.972,0,0,0,1.945-1.663s1.786,0,1.912.009l.024.042a4.936,4.936,0,0,0,.376.581,4.811,4.811,0,0,0,3.442,1.459h9.293a2.051,2.051,0,0,0,1.82-3,2.258,2.258,0,0,0,.984-3.869,2.256,2.256,0,0,0,.743-1.674Zm-8.868,7.366H54.238a3.726,3.726,0,0,1-2.5-.99,3.785,3.785,0,0,1-.293-.455c-.365-.647-.665-.648-1.655-.647H48.509v-9.71h1.2c1.829,0,3.252-1.168,4.229-3.47a20.464,20.464,0,0,0,1.211-4.82l0-.03a2.706,2.706,0,0,1,.083-.391c.044.028.1.066.171.118A4.95,4.95,0,0,1,56.8,123.53c1.1,1.676.138,4.643-.327,5.841a1.022,1.022,0,0,0,.031.953.991.991,0,0,0,.852.367h.707a2.255,2.255,0,0,0,.476,2.772,2.258,2.258,0,0,0,.012,3.337,2.256,2.256,0,0,0,.044,3.385,2.048,2.048,0,0,0-.381,2.307Zm5.321,0H60.062a.88.88,0,0,1,0-1.76h3.469a.88.88,0,0,1,0,1.76Zm1.289-2.932H60.062a1.087,1.087,0,0,1,0-2.175H64.82a1.087,1.087,0,0,1,0,2.175Zm0-3.347H60.062a1.088,1.088,0,0,1,0-2.177H64.82a1.088,1.088,0,0,1,0,2.177Zm0-3.348H60.037a1.087,1.087,0,0,1,0-2.175H64.82a1.087,1.087,0,0,1,0,2.175Z" transform="translate(0 -113.664)" fill="#405260"/><path d="M188.822,307.9a.586.586,0,0,0-.5.66,3.017,3.017,0,0,1-.5,2.294,4.068,4.068,0,0,1-2.836,1.351.586.586,0,0,0,.075,1.167.6.6,0,0,0,.076,0,5.171,5.171,0,0,0,3.616-1.8,4.159,4.159,0,0,0,.735-3.165A.586.586,0,0,0,188.822,307.9Z" transform="translate(-134.122 -289.852)" fill="#405260"/><path d="M262.967,4.469a.586.586,0,0,0,.586-.586V.586a.586.586,0,1,0-1.172,0v3.3A.586.586,0,0,0,262.967,4.469Z" transform="translate(-207.468)" fill="#405260"/><path d="M340.41,36.664a.586.586,0,0,0,.812-.164l1.817-2.737a.586.586,0,0,0-.976-.648l-1.817,2.737A.586.586,0,0,0,340.41,36.664Z" transform="translate(-280.679 -30.927)" fill="#405260"/><path d="M155.494,36.5a.586.586,0,0,0,.976-.648l-1.818-2.737a.586.586,0,1,0-.976.648Z" transform="translate(-105.04 -30.927)" fill="#405260"/><path d="M42.586,364.624a.587.587,0,1,0-.586-.588v0A.584.584,0,0,0,42.586,364.624Z" transform="translate(0 -342.155)" fill="#405260"/></g></g><rect width="40" height="40" transform="translate(40 406)" fill="none"/></g></svg>