<svg width="253" height="242" viewBox="0 0 253 242" fill="none" xmlns="http://www.w3.org/2000/svg">
<g clip-path="url(#clip0)">
<path opacity="0.6" d="M76.6342 165.171C114.775 165.171 145.695 134.278 145.695 96.1705C145.695 58.0625 114.775 27.1699 76.6342 27.1699C38.4929 27.1699 7.57327 58.0625 7.57327 96.1705C7.57327 134.278 38.4929 165.171 76.6342 165.171Z" fill="url(#paint0_linear)"/>
<path opacity="0.6" d="M209.621 101.064C233.579 93.1217 246.556 67.279 238.608 43.3422C230.659 19.4054 204.793 6.43893 180.836 14.3808C156.878 22.3226 143.9 48.1654 151.849 72.1021C159.798 96.0389 185.663 109.005 209.621 101.064Z" fill="url(#paint1_linear)"/>
<path opacity="0.22" d="M135.009 18.2388C135.857 13.7152 132.873 9.36164 128.346 8.51489C123.818 7.66815 119.461 10.6489 118.613 15.1725C117.766 19.6961 120.749 24.0497 125.277 24.8964C129.804 25.7432 134.162 22.7625 135.009 18.2388Z" fill="url(#paint2_linear)"/>
<path opacity="0.22" d="M221.071 107.137C222.115 108.414 222.756 109.97 222.914 111.611C223.071 113.251 222.739 114.901 221.958 116.353C221.177 117.804 219.983 118.992 218.527 119.765C217.07 120.539 215.417 120.863 213.776 120.698C212.135 120.533 210.58 119.885 209.308 118.837C208.035 117.788 207.102 116.386 206.627 114.808C206.152 113.23 206.156 111.547 206.638 109.971C207.121 108.395 208.06 106.998 209.337 105.955C210.185 105.263 211.161 104.745 212.21 104.429C213.259 104.114 214.36 104.008 215.449 104.118C216.539 104.228 217.596 104.551 218.561 105.069C219.525 105.587 220.379 106.29 221.071 107.137Z" fill="url(#paint3_linear)"/>
<path opacity="0.22" d="M12.0558 137.736C12.9059 138.776 13.4283 140.044 13.5569 141.38C13.6856 142.717 13.4147 144.061 12.7786 145.244C12.1424 146.426 11.1696 147.394 9.98308 148.024C8.79656 148.654 7.44967 148.919 6.11271 148.784C4.77574 148.65 3.50877 148.122 2.47199 147.268C1.43522 146.414 0.675211 145.272 0.288075 143.986C-0.0990607 142.7 -0.0959357 141.329 0.297055 140.045C0.690046 138.761 1.45525 137.623 2.49591 136.773C3.18689 136.209 3.98228 135.787 4.83667 135.53C5.69106 135.273 6.58771 135.187 7.47543 135.276C8.36315 135.366 9.22456 135.629 10.0105 136.051C10.7964 136.473 11.4914 137.046 12.0558 137.736Z" fill="url(#paint4_linear)"/>
<path d="M149.246 151.345C149.246 151.345 153.463 115.72 180.216 85.1336C206.969 54.5468 214.448 49.5593 214.639 45.1855C214.639 45.1855 228.518 114.251 162.293 155.506L149.246 151.345Z" fill="#CCCCCC"/>
<path d="M150.832 157.455L150.943 157.552C150.958 157.564 150.969 157.579 150.976 157.596C150.983 157.613 150.986 157.632 150.983 157.65C150.975 157.743 150.938 157.832 150.878 157.904C150.818 157.976 150.738 158.028 150.648 158.053C150.557 158.079 150.462 158.076 150.373 158.046C150.284 158.016 150.207 157.96 150.15 157.885C149.875 157.479 150.373 156.967 150.598 156.71C151.516 155.647 152.614 154.703 153.582 153.682C157.342 149.682 160.86 145.46 164.116 141.04C170.709 132.175 176.552 122.742 182.216 113.266C187.972 103.637 193.421 93.8333 198.565 83.8558C203.356 74.5628 208.325 65.1333 211.468 55.1284C213.224 49.5405 214.044 43.8639 214.588 38.0518C215.088 32.7369 215.572 27.4004 217.186 22.2842C217.227 22.1549 217.422 22.236 217.381 22.3641C214.563 31.2948 215.191 40.8247 213.109 49.9046C210.969 59.2425 206.764 67.9445 202.53 76.4844C193.359 95.0795 183.074 113.105 171.729 130.462C168.564 135.28 165.263 140.013 161.704 144.551C159.956 146.779 158.141 148.954 156.261 151.075C155.261 152.198 154.24 153.302 153.197 154.388C152.706 154.898 152.21 155.404 151.709 155.905C151.352 156.262 150.094 157.105 150.697 157.625C150.595 157.537 150.722 157.37 150.825 157.459L150.832 157.455Z" fill="white"/>
<path d="M191.184 100.459C202.341 97.7064 212.834 92.7476 222.042 85.876C222.064 85.8623 222.091 85.8574 222.117 85.8621C222.142 85.8668 222.165 85.8809 222.181 85.9016C222.197 85.9223 222.205 85.9482 222.203 85.9742C222.201 86.0003 222.189 86.0246 222.17 86.0425C212.931 92.9344 202.404 97.907 191.21 100.667C191.079 100.699 191.054 100.49 191.184 100.458V100.459Z" fill="white"/>
<path d="M201.068 90.7638C207.151 88.8055 212.743 85.5681 217.468 81.2694C217.568 81.1784 217.694 81.346 217.595 81.4359C212.856 85.7481 207.248 88.9959 201.147 90.9608C201.019 91.0019 200.94 90.8071 201.068 90.7655V90.7638Z" fill="white"/>
<path d="M205.411 121.045C201.446 121.333 197.526 122.073 193.729 123.251C193.601 123.291 193.521 123.096 193.651 123.056C197.465 121.871 201.402 121.126 205.385 120.836C205.52 120.826 205.546 121.035 205.411 121.045Z" fill="white"/>
<path d="M187.009 88.9642C185.8 81.7593 187.181 74.5367 188.594 67.4694C188.62 67.3368 188.829 67.3646 188.803 67.4977C187.393 74.5489 186.012 81.7499 187.218 88.9381C187.24 89.0718 187.032 89.0974 187.009 88.9642Z" fill="white"/>
<path d="M169.866 120.8C166.565 111.727 165.846 101.918 167.789 92.461C167.816 92.3295 168.025 92.3567 167.998 92.4893C166.059 101.91 166.773 111.683 170.061 120.722C170.107 120.849 169.912 120.928 169.866 120.8Z" fill="white"/>
<path d="M156.351 137.425C153.878 132.941 152.861 127.801 153.438 122.715C153.443 122.688 153.458 122.664 153.48 122.649C153.502 122.633 153.529 122.626 153.556 122.63C153.583 122.633 153.607 122.647 153.624 122.668C153.641 122.689 153.649 122.716 153.647 122.743C153.074 127.793 154.088 132.897 156.546 137.347C156.611 137.465 156.416 137.543 156.351 137.425Z" fill="white"/>
<path d="M196.825 74.9634C193.612 69.6619 193.508 63.3659 193.507 57.3508C193.507 57.2176 193.716 57.1899 193.716 57.3253C193.716 63.2933 193.803 69.5737 196.993 74.8358C197.062 74.9501 196.896 75.0789 196.826 74.9634H196.825Z" fill="white"/>
<path d="M104.315 160.195C104.315 160.195 100.244 125.804 74.4198 96.2806C48.5954 66.757 41.3742 61.9405 41.1904 57.7188C41.1904 57.7188 27.7933 124.388 91.7202 164.211L104.315 160.195Z" fill="#CCCCCC"/>
<path d="M102.785 166.093L102.674 166.186C102.66 166.197 102.649 166.212 102.642 166.228C102.635 166.245 102.633 166.263 102.635 166.281C102.644 166.37 102.68 166.455 102.737 166.524C102.795 166.593 102.872 166.643 102.959 166.667C103.045 166.692 103.137 166.69 103.223 166.661C103.308 166.633 103.383 166.579 103.437 166.508C103.702 166.116 103.219 165.62 103.005 165.373C102.116 164.348 101.061 163.436 100.124 162.451C96.4943 158.589 93.0987 154.514 89.9557 150.247C83.5915 141.689 77.951 132.585 72.4837 123.437C66.9276 114.141 61.667 104.678 56.7018 95.0472C52.0771 86.0766 47.2808 76.974 44.2472 67.3165C42.5522 61.9222 41.7602 56.4437 41.2348 50.8325C40.7544 45.7019 40.2851 40.5501 38.7267 35.6121C38.6872 35.4872 38.5001 35.5655 38.5389 35.6892C41.2603 44.3096 40.6533 53.5088 42.6627 62.2735C44.7293 71.2874 48.787 79.688 52.8752 87.9295C61.7274 105.88 71.6558 123.28 82.6062 140.035C85.6609 144.686 88.8488 149.255 92.285 153.635C93.9723 155.786 95.7229 157.885 97.5368 159.933C98.502 161.017 99.4878 162.083 100.494 163.131C100.969 163.624 101.447 164.112 101.93 164.595C102.275 164.939 103.489 165.754 102.907 166.255C103.005 166.17 102.883 166.008 102.784 166.094L102.785 166.093Z" fill="white"/>
<path d="M63.833 111.074C53.0624 108.416 42.9339 103.63 34.0453 96.9968C34.0238 96.9823 33.9975 96.9766 33.9719 96.9809C33.9463 96.9851 33.9233 96.999 33.9076 97.0196C33.8919 97.0403 33.8847 97.0661 33.8875 97.0919C33.8903 97.1177 33.9028 97.1414 33.9226 97.1583C42.8407 103.811 53.0027 108.611 63.8086 111.275C63.9352 111.306 63.9591 111.105 63.833 111.074Z" fill="white"/>
<path d="M54.2914 101.716C48.4207 99.8252 43.0235 96.7 38.4629 92.5506C38.3662 92.463 38.244 92.625 38.3401 92.7121C42.9146 96.8741 48.3287 100.008 54.2176 101.904C54.3408 101.944 54.418 101.756 54.2931 101.716H54.2914Z" fill="white"/>
<path d="M50.0994 130.946C53.9265 131.224 57.7092 131.938 61.3737 133.076C61.4976 133.114 61.5748 132.926 61.4493 132.887C57.7677 131.744 53.9673 131.025 50.1221 130.744C49.9922 130.735 49.9666 130.936 50.0971 130.946H50.0994Z" fill="white"/>
<path d="M67.8629 99.9769C69.0292 93.0223 67.6963 86.0488 66.3334 79.2279C66.3078 79.1003 66.1062 79.1269 66.1318 79.2551C67.4925 86.0616 68.8254 93.0156 67.6591 99.9519C67.6374 100.081 67.839 100.106 67.8607 99.9769H67.8629Z" fill="white"/>
<path d="M84.4113 130.71C87.5977 121.952 88.2917 112.482 86.4162 103.354C86.3901 103.227 86.1885 103.253 86.2152 103.381C88.0862 112.475 87.3966 121.909 84.223 130.634C84.1786 130.756 84.3668 130.833 84.4113 130.71V130.71Z" fill="white"/>
<path d="M97.4574 146.758C99.8444 142.43 100.827 137.468 100.269 132.557C100.264 132.532 100.249 132.51 100.228 132.494C100.207 132.479 100.181 132.473 100.155 132.477C100.13 132.48 100.106 132.493 100.09 132.513C100.074 132.533 100.066 132.559 100.068 132.585C100.62 137.459 99.6417 142.384 97.2691 146.679C97.2063 146.793 97.3951 146.868 97.4574 146.755V146.758Z" fill="white"/>
<path d="M58.3874 86.4632C61.4887 81.3465 61.5892 75.2692 61.5904 69.4621C61.5904 69.3333 61.3888 69.3067 61.3888 69.4377C61.3888 75.1981 61.3043 81.261 58.223 86.3406C58.1564 86.4516 58.3169 86.5753 58.3846 86.4632H58.3874Z" fill="white"/>
<g style="mix-blend-mode:multiply" opacity="0.18">
<path d="M138.068 210.1C197.03 210.1 244.828 208.124 244.828 205.685C244.828 203.247 197.03 201.271 138.068 201.271C79.1059 201.271 31.3078 203.247 31.3078 205.685C31.3078 208.124 79.1059 210.1 138.068 210.1Z" fill="#B2AECC"/>
</g>
<g style="mix-blend-mode:multiply" opacity="0.18">
<path d="M40.6117 227.911C54.3091 227.911 65.4131 226.636 65.4131 225.063C65.4131 223.49 54.3091 222.215 40.6117 222.215C26.9142 222.215 15.8102 223.49 15.8102 225.063C15.8102 226.636 26.9142 227.911 40.6117 227.911Z" fill="#B2AECC"/>
</g>
<g style="mix-blend-mode:multiply" opacity="0.18">
<path d="M93.4535 238.868C93.4535 240.598 79.6694 242.001 62.6656 242.001C45.6618 242.001 31.8776 240.598 31.8776 238.868C31.8776 237.138 45.6618 235.734 62.6656 235.734C79.6694 235.734 93.4535 237.137 93.4535 238.868Z" fill="#B2AECC"/>
</g>
<g style="mix-blend-mode:multiply" opacity="0.18">
<path d="M241.692 229.752C241.692 231.483 227.908 232.885 210.904 232.885C193.901 232.885 180.116 231.483 180.116 229.752C180.116 228.021 193.901 226.619 210.904 226.619C227.908 226.619 241.692 228.022 241.692 229.752Z" fill="#B2AECC"/>
</g>
<path d="M99.0852 121.395C99.0852 121.395 83.09 124.322 72.9697 108.128C62.8494 91.9342 68.2917 72.5176 68.2917 72.5176C68.2917 72.5176 87.8136 75.6994 97.9311 92.6911C108.049 109.683 99.0852 121.395 99.0852 121.395Z" fill="#EBEBEB"/>
<path d="M64.4745 84.4103L64.264 84.3493C64.249 84.3436 64.233 84.3411 64.2171 84.3419C64.2011 84.3427 64.1855 84.3468 64.1711 84.354C64.1568 84.3611 64.1441 84.3711 64.1339 84.3834C64.1236 84.3956 64.116 84.4099 64.1115 84.4252C64.107 84.4405 64.1058 84.4567 64.1078 84.4725C64.1098 84.4884 64.1151 84.5036 64.1233 84.5173C64.1315 84.531 64.1425 84.5429 64.1555 84.5522C64.1685 84.5615 64.1834 84.568 64.199 84.5713L64.4095 84.6328C64.4376 84.6374 64.4663 84.6315 64.4904 84.6164C64.5144 84.6012 64.5321 84.5778 64.5401 84.5505C64.548 84.5233 64.5458 84.494 64.5337 84.4683C64.5216 84.4426 64.5006 84.4222 64.4745 84.4109V84.4103Z" fill="white"/>
<path d="M69.7696 75.9C73.1619 79.5763 76.3016 83.4774 79.1673 87.5768C82.0253 91.636 84.6568 95.851 87.1554 100.139C89.6702 104.456 92.0523 108.848 94.406 113.254C96.7664 117.673 99.0985 122.107 101.507 126.501C103.91 130.884 106.389 135.225 109.047 139.458C109.372 139.979 109.702 140.496 110.034 141.012C110.094 141.106 110.248 141.023 110.187 140.928C107.475 136.703 104.95 132.361 102.517 127.97C100.089 123.586 97.75 119.157 95.3952 114.736C93.0337 110.302 90.6561 105.877 88.1563 101.52C85.672 97.1916 83.0656 92.9283 80.2392 88.8126C77.4568 84.7282 74.4144 80.8268 71.1308 77.1324C70.7217 76.6759 70.3081 76.2229 69.8901 75.7735C69.814 75.6914 69.6885 75.8123 69.7651 75.895L69.7696 75.9Z" fill="white"/>
<path d="M79.109 87.1992L81.38 77.6987C81.4055 77.5877 81.2383 77.5406 81.2133 77.6499C80.4562 80.8169 79.6994 83.9839 78.9429 87.151C78.9168 87.2619 79.084 87.3091 79.1095 87.1992H79.109Z" fill="white"/>
<path d="M85.1288 96.4653C88.0069 93.625 89.8875 89.9301 90.4894 85.9332C90.6631 84.7734 90.724 83.5995 90.6711 82.4279C90.6661 82.3169 90.4917 82.3108 90.4967 82.4235C90.6598 86.4445 89.5097 90.4095 87.2199 93.7202C86.5671 94.662 85.8258 95.5394 85.0061 96.3405C84.9261 96.4187 85.0472 96.5447 85.1277 96.4653H85.1288Z" fill="white"/>
<path d="M81.5232 91.1335C77.149 93.4557 71.9706 94.8397 67.127 93.1594C65.9105 92.7396 64.7722 92.1208 63.7586 91.3282C63.6703 91.2589 63.5809 91.4093 63.6686 91.4775C67.5747 94.5406 72.8953 94.6044 77.4378 93.0978C78.8759 92.611 80.2705 92.0046 81.6071 91.285C81.6274 91.2738 81.6425 91.2551 81.649 91.2329C81.6555 91.2107 81.6529 91.1868 81.6418 91.1665C81.6307 91.1462 81.612 91.1311 81.5897 91.1246C81.5675 91.1181 81.5436 91.1207 81.5232 91.1318V91.1335Z" fill="white"/>
<path d="M88.7455 103.316C80.8356 105.82 72.3852 106.08 64.3362 104.067C64.2251 104.04 64.1779 104.207 64.2873 104.233C72.3652 106.255 80.8461 105.996 88.7855 103.486C88.8921 103.452 88.8521 103.282 88.7455 103.316V103.316Z" fill="white"/>
<path d="M92.6555 110.138C96.2744 107.102 99.9105 103.996 102.749 100.19C105.283 96.9333 106.877 93.0463 107.358 88.9495C107.583 86.7401 107.325 84.5083 106.602 82.4083C106.565 82.3034 106.395 82.3428 106.432 82.4488C107.765 86.226 107.367 90.3589 105.97 94.0585C104.393 98.2325 101.544 101.756 98.3771 104.84C96.5121 106.656 94.5255 108.341 92.5322 110.013C92.4466 110.085 92.5683 110.21 92.6538 110.138H92.6555Z" fill="white"/>
<path d="M106.968 190.944C106.968 190.944 85.5859 208.987 56.598 193.448C27.61 177.91 19.1181 144.252 19.1181 144.252C19.1181 144.252 51.0035 132.322 80.6652 149.054C110.327 165.786 106.968 190.944 106.968 190.944Z" fill="#EBEBEB"/>
<path d="M23.6013 165.281L23.2341 165.369C23.2082 165.375 23.1837 165.386 23.1619 165.401C23.1402 165.416 23.1218 165.436 23.1077 165.458C23.0936 165.481 23.0842 165.506 23.0799 165.532C23.0756 165.558 23.0766 165.585 23.0828 165.611C23.089 165.637 23.1003 165.661 23.116 165.682C23.1317 165.704 23.1515 165.722 23.1743 165.736C23.1971 165.749 23.2224 165.758 23.2487 165.762C23.2749 165.766 23.3017 165.764 23.3274 165.758L23.6946 165.669C23.7453 165.656 23.7888 165.624 23.8157 165.579C23.8427 165.534 23.851 165.48 23.8387 165.43C23.8265 165.379 23.7948 165.335 23.7504 165.307C23.706 165.279 23.6524 165.27 23.6013 165.281Z" fill="white"/>
<path d="M24.22 148.043C32.4372 150.636 40.4696 153.781 48.2622 157.456C56.0076 161.077 63.5465 165.124 70.9509 169.394C78.4042 173.693 85.7242 178.217 93.0109 182.788C100.32 187.372 107.601 191.999 114.96 196.506C122.301 201.001 129.723 205.365 137.317 209.418C138.25 209.917 139.186 210.41 140.124 210.898C140.294 210.987 140.453 210.731 140.281 210.642C132.611 206.647 125.123 202.318 117.729 197.84C110.35 193.37 103.062 188.751 95.7584 184.159C88.4356 179.553 81.0962 174.976 73.6296 170.604C66.2118 166.26 58.6696 162.121 50.9242 158.389C43.2715 154.666 35.3873 151.438 27.3201 148.725C26.3179 148.392 25.3122 148.069 24.3033 147.755C24.2658 147.746 24.2263 147.752 24.1932 147.772C24.16 147.791 24.1355 147.823 24.1249 147.86C24.1142 147.897 24.1181 147.936 24.1358 147.97C24.1535 148.005 24.1836 148.031 24.22 148.043Z" fill="white"/>
<path d="M47.8501 156.94L43.1071 140.807C43.0515 140.622 42.7605 140.691 42.8149 140.877L47.5579 157.01C47.6135 157.195 47.9045 157.125 47.8501 156.94Z" fill="white"/>
<path d="M64.7755 165.634C66.6427 158.931 66.2883 151.805 63.7653 145.319C63.0318 143.438 62.1178 141.633 61.0361 139.927C60.9328 139.765 60.6679 139.906 60.7712 140.069C64.4585 145.936 66.1361 152.842 65.5509 159.745C65.3819 161.71 65.0256 163.654 64.4867 165.551C64.4781 165.589 64.4841 165.628 64.5037 165.661C64.5232 165.694 64.5547 165.719 64.5917 165.729C64.6287 165.74 64.6684 165.736 64.7026 165.719C64.7368 165.701 64.7629 165.671 64.7755 165.634Z" fill="white"/>
<path d="M54.8246 160.751C50.2782 167.958 43.7247 174.453 35.0528 176.081C32.8768 176.495 30.6471 176.544 28.4548 176.227C28.2637 176.2 28.2593 176.5 28.4487 176.528C36.9061 177.765 44.9082 173.313 50.4038 167.179C52.1355 165.224 53.6998 163.126 55.0801 160.909C55.1009 160.875 55.1073 160.834 55.098 160.795C55.0887 160.757 55.0644 160.723 55.0304 160.703C54.9965 160.682 54.9557 160.676 54.917 160.685C54.8783 160.694 54.8449 160.718 54.8241 160.752L54.8246 160.751Z" fill="white"/>
<path d="M76.0455 172.778C68.555 180.888 59.4179 187.307 49.2452 191.606C46.3062 192.844 43.293 193.898 40.2229 194.761C40.0369 194.814 40.1063 195.105 40.2929 195.053C50.9938 192.026 60.9216 186.744 69.408 179.562C71.8211 177.516 74.1056 175.324 76.2488 172.998C76.3793 172.856 76.1743 172.636 76.0433 172.778H76.0455Z" fill="white"/>
<path d="M87.7258 179.624C90.5316 171.996 93.3047 164.249 94.2844 156.137C95.1286 149.141 94.4882 141.876 91.5491 135.405C89.994 131.913 87.6982 128.799 84.8206 126.28C84.6756 126.155 84.4552 126.359 84.6012 126.485C89.8269 130.989 92.7704 137.503 93.8506 144.224C95.0692 151.806 93.8307 159.504 91.7402 166.819C90.5094 171.126 88.9838 175.34 87.4387 179.542C87.372 179.723 87.6609 179.805 87.7275 179.624H87.7258Z" fill="white"/>
<path d="M171.652 173.939C171.652 173.939 159.956 157.022 173.395 136.932C186.834 116.842 212.09 113.022 212.09 113.022C212.09 113.022 218.566 137.184 204.204 157.683C189.841 178.183 171.652 173.939 171.652 173.939Z" fill="#EBEBEB"/>
<path d="M196.369 114.805L196.331 114.528C196.328 114.509 196.322 114.49 196.312 114.474C196.302 114.457 196.289 114.443 196.274 114.431C196.258 114.419 196.241 114.411 196.222 114.406C196.203 114.401 196.184 114.4 196.165 114.403C196.145 114.406 196.127 114.412 196.11 114.422C196.094 114.432 196.079 114.445 196.068 114.46C196.056 114.475 196.047 114.493 196.043 114.512C196.038 114.53 196.037 114.55 196.039 114.569L196.078 114.844C196.083 114.882 196.104 114.917 196.135 114.941C196.166 114.964 196.205 114.974 196.244 114.969C196.283 114.963 196.318 114.943 196.341 114.912C196.365 114.88 196.375 114.841 196.369 114.803V114.805Z" fill="white"/>
<path d="M208.95 116.482C206.467 122.306 203.593 127.955 200.349 133.392C197.146 138.799 193.647 144.024 189.993 149.134C186.316 154.278 182.481 159.308 178.616 164.313C174.74 169.332 170.831 174.326 167.009 179.387C163.197 184.437 159.471 189.552 155.964 194.817C155.533 195.464 155.105 196.113 154.681 196.765C154.603 196.883 154.78 197.017 154.857 196.897C158.327 191.57 162.028 186.405 165.835 181.317C169.633 176.239 173.534 171.239 177.416 166.224C181.308 161.196 185.184 156.154 188.916 151.006C192.624 145.891 196.191 140.67 199.475 135.272C202.746 129.941 205.67 124.405 208.23 118.699C208.545 117.99 208.853 117.278 209.154 116.562C209.162 116.536 209.159 116.508 209.147 116.483C209.134 116.459 209.113 116.44 209.088 116.43C209.062 116.42 209.034 116.419 209.008 116.429C208.983 116.438 208.961 116.457 208.949 116.481L208.95 116.482Z" fill="white"/>
<path d="M200.759 133.128L212.912 130.803C213.051 130.777 213.023 130.558 212.881 130.585L200.73 132.912C200.591 132.939 200.619 133.157 200.761 133.131L200.759 133.128Z" fill="white"/>
<path d="M193.186 144.886C197.963 146.727 203.209 146.974 208.138 145.59C209.568 145.187 210.955 144.647 212.281 143.977C212.407 143.913 212.323 143.709 212.196 143.773C207.637 146.052 202.459 146.789 197.445 145.871C196.018 145.607 194.619 145.209 193.268 144.68C193.241 144.673 193.213 144.675 193.188 144.687C193.163 144.7 193.144 144.72 193.134 144.746C193.124 144.772 193.123 144.8 193.133 144.826C193.143 144.852 193.162 144.873 193.186 144.886Z" fill="white"/>
<path d="M197.47 137.957C192.513 134.121 188.221 128.868 187.645 122.412C187.497 120.792 187.619 119.158 188.006 117.577C188.04 117.44 187.821 117.415 187.787 117.552C186.28 123.648 188.973 129.815 193.075 134.269C194.385 135.673 195.811 136.966 197.337 138.133C197.36 138.147 197.388 138.152 197.415 138.147C197.442 138.141 197.466 138.127 197.482 138.105C197.499 138.083 197.507 138.056 197.504 138.029C197.502 138.001 197.49 137.976 197.47 137.957Z" fill="white"/>
<path d="M187.154 152.619C180.149 144.801 175.456 135.193 173.596 124.867C173.571 124.727 173.352 124.756 173.377 124.897C174.835 132.936 177.999 140.57 182.657 147.285C183.983 149.195 185.427 151.021 186.979 152.753C187.073 152.858 187.249 152.724 187.154 152.618V152.619Z" fill="white"/>
<path d="M181.309 160.673C186.697 163.267 192.175 165.844 198.047 167.137C203.112 168.251 208.479 168.299 213.427 166.609C216.095 165.72 218.539 164.262 220.588 162.336C220.69 162.239 220.556 162.063 220.454 162.161C216.784 165.662 211.803 167.352 206.804 167.664C201.164 168.017 195.614 166.565 190.404 164.516C187.337 163.311 184.358 161.896 181.391 160.465C181.263 160.404 181.182 160.609 181.309 160.671V160.673Z" fill="white"/>
<path d="M229.705 105.191C229.705 105.191 224.206 106.198 220.724 100.629C217.241 95.0609 219.113 88.3838 219.113 88.3838C219.113 88.3838 225.827 89.4769 229.307 95.3201C232.787 101.163 229.705 105.191 229.705 105.191Z" fill="#EBEBEB"/>
<path d="M217.8 92.4741L217.727 92.4525C217.717 92.4499 217.707 92.4512 217.697 92.4563C217.688 92.4613 217.681 92.4697 217.678 92.4797C217.675 92.4899 217.677 92.5009 217.682 92.5102C217.687 92.5196 217.695 92.5265 217.705 92.5296L217.777 92.5507C217.787 92.5535 217.798 92.5522 217.808 92.5471C217.817 92.5421 217.824 92.5336 217.827 92.5235C217.83 92.5134 217.829 92.5025 217.824 92.4932C217.819 92.4839 217.81 92.4771 217.8 92.4741Z" fill="white"/>
<path d="M219.621 89.5469C220.788 90.8111 221.868 92.1528 222.853 93.5627C223.837 94.9588 224.742 96.4082 225.601 97.8826C226.466 99.367 227.285 100.879 228.095 102.392C228.905 103.906 229.709 105.437 230.539 106.948C231.369 108.458 232.218 109.947 233.132 111.403C233.243 111.582 233.356 111.76 233.471 111.938C233.493 111.971 233.545 111.942 233.527 111.909C232.594 110.456 231.726 108.963 230.889 107.454C230.052 105.944 229.249 104.423 228.439 102.903C227.629 101.384 226.809 99.857 225.949 98.3587C225.095 96.8699 224.199 95.4044 223.228 93.9894C222.271 92.5848 221.225 91.2432 220.096 89.973C219.955 89.8154 219.813 89.6601 219.669 89.5052C219.643 89.4775 219.6 89.5191 219.626 89.5474L219.621 89.5469Z" fill="white"/>
<path d="M222.835 93.4328L223.615 90.1655C223.624 90.1278 223.567 90.11 223.56 90.1483C223.301 91.2374 223.042 92.3265 222.782 93.4156C222.774 93.4533 222.831 93.4711 222.838 93.4328H222.835Z" fill="white"/>
<path d="M224.904 96.6187C225.894 95.6418 226.541 94.371 226.747 92.9963C226.807 92.5975 226.828 92.1939 226.81 91.7911C226.81 91.7528 226.748 91.7511 226.75 91.7911C226.806 93.1735 226.411 94.5368 225.624 95.6754C225.399 95.9993 225.144 96.3011 224.862 96.5766C224.835 96.6037 224.876 96.647 224.904 96.6198V96.6187Z" fill="white"/>
<path d="M223.664 94.7848C222.16 95.5833 220.378 96.061 218.714 95.4817C218.295 95.3377 217.904 95.125 217.555 94.8525C217.525 94.8292 217.494 94.8808 217.524 94.9041C218.867 95.9584 220.697 95.9789 222.259 95.459C222.754 95.2916 223.233 95.083 223.693 94.8353C223.727 94.8175 223.698 94.7648 223.664 94.7831V94.7848Z" fill="white"/>
<path d="M226.147 98.9744C224.043 99.6377 221.821 99.8443 219.631 99.5803C218.998 99.5038 218.371 99.3878 217.753 99.233C217.716 99.2235 217.698 99.2812 217.736 99.2885C219.892 99.8248 222.138 99.8935 224.323 99.4899C224.945 99.3746 225.559 99.2212 226.161 99.0304C226.198 99.0188 226.184 98.9605 226.147 98.9749V98.9744Z" fill="white"/>
<path d="M227.493 101.321C228.779 100.318 229.943 99.1696 230.963 97.8984C231.835 96.7788 232.384 95.4419 232.549 94.033C232.626 93.2733 232.538 92.506 232.289 91.784C232.276 91.7479 232.217 91.7612 232.231 91.7978C232.649 93.1069 232.593 94.5214 232.072 95.7931C231.483 97.2047 230.592 98.4703 229.461 99.501C228.821 100.125 228.137 100.705 227.452 101.28C227.422 101.305 227.464 101.348 227.494 101.323L227.493 101.321Z" fill="white"/>
<path d="M170.331 49.5342H88.6289C83.7478 49.5342 79.791 53.4876 79.791 58.3644V196.87C79.791 201.747 83.7478 205.701 88.6289 205.701H170.331C175.212 205.701 179.169 201.747 179.169 196.87V58.3644C179.169 53.4876 175.212 49.5342 170.331 49.5342Z" fill="#292929"/>
<path d="M171.172 65.3027H84.7234V189.52H173.53V65.3027H171.172Z" fill="#F5FAFE"/>
<path d="M150.033 96.8533C147.445 94.0461 143.894 92.5 140.032 92.5C137.146 92.5 134.503 93.4125 132.176 95.2119C131.002 96.1201 129.938 97.2314 129 98.5284C128.062 97.2318 126.998 96.1201 125.824 95.2119C123.497 93.4125 120.854 92.5 117.968 92.5C114.106 92.5 110.554 94.0461 107.966 96.8533C105.409 99.6278 104 103.418 104 107.526C104 111.755 105.576 115.626 108.959 119.708C111.986 123.36 116.336 127.067 121.373 131.36C123.093 132.826 125.043 134.488 127.067 136.258C127.602 136.726 128.288 136.984 129 136.984C129.711 136.984 130.398 136.726 130.932 136.258C132.957 134.488 134.907 132.826 136.628 131.359C141.665 127.067 146.015 123.36 149.041 119.708C152.425 115.626 154 111.755 154 107.526C154 103.418 152.591 99.6278 150.033 96.8533Z" fill="#FEEBEE"/>
<path d="M134.549 199.825C135.222 196.907 133.399 193.997 130.478 193.325C127.557 192.654 124.645 194.475 123.973 197.393C123.3 200.311 125.123 203.221 128.044 203.893C130.964 204.565 133.877 202.743 134.549 199.825Z" fill="#FAFAFA"/>
<path d="M115.727 57.6335C115.727 57.9618 115.63 58.2828 115.447 58.5557C115.264 58.8287 115.005 59.0414 114.701 59.167C114.398 59.2926 114.063 59.3254 113.741 59.2612C113.419 59.1971 113.123 59.0389 112.89 58.8067C112.658 58.5745 112.5 58.2787 112.436 57.9566C112.372 57.6346 112.405 57.3008 112.531 56.9974C112.656 56.6941 112.869 56.4348 113.143 56.2524C113.416 56.07 113.737 55.9727 114.066 55.9727C114.506 55.9728 114.929 56.1478 115.241 56.4593C115.552 56.7707 115.727 57.1931 115.727 57.6335Z" fill="#FAFAFA"/>
<path d="M148.837 58.8131H119.41C119.074 58.8121 118.753 58.6785 118.515 58.4414C118.278 58.2044 118.144 57.8832 118.143 57.548C118.144 57.2127 118.278 56.8914 118.515 56.6543C118.753 56.4171 119.074 56.2834 119.41 56.2822H148.837C149.172 56.2834 149.494 56.4171 149.731 56.6543C149.968 56.8914 150.102 57.2127 150.103 57.548C150.102 57.8832 149.968 58.2044 149.731 58.4414C149.494 58.6785 149.172 58.8121 148.837 58.8131Z" fill="#FAFAFA"/>
<path d="M38.9777 148.111L39.4537 204.453H37.7875L38.2635 148.111H38.9777Z" fill="#DD5366"/>
<path d="M38.7994 169.592H38.4423C38.4932 166.932 37.9126 164.299 36.748 161.907C35.5835 159.515 33.8682 157.432 31.7427 155.83L31.9365 155.531C34.1105 157.167 35.8659 159.294 37.0588 161.738C38.2517 164.182 38.8482 166.873 38.7994 169.592Z" fill="#DD5366"/>
<path d="M38.7972 160.854L38.444 160.805C38.4551 160.727 39.602 152.93 45.3908 152.568L45.413 152.925C39.9157 153.268 38.8083 160.778 38.7972 160.854Z" fill="#DD5366"/>
<path d="M38.4456 177.91C37.868 174.949 36.0536 173.026 33.0511 172.19C31.6172 171.809 30.127 171.685 28.6497 171.823L28.6047 171.469C28.6919 171.458 37.3532 170.443 38.7961 177.841L38.4456 177.91Z" fill="#DD5366"/>
<path d="M38.7872 172.305L38.454 172.176C38.474 172.124 40.5267 167.004 45.9484 167.367L45.9251 167.723C40.7633 167.372 38.8067 172.255 38.7872 172.305Z" fill="#DD5366"/>
<path d="M38.7789 185.517L38.4651 185.348C39.2315 184.001 40.1196 182.728 41.1182 181.543C43.2842 178.997 45.3869 177.706 47.3657 177.706V178.063C42.8832 178.065 38.8178 185.445 38.7789 185.517Z" fill="#DD5366"/>
<path d="M38.9833 197.542C37.958 193.445 35.2572 193.398 35.2299 193.398V193.041C35.2599 193.041 38.2374 193.092 39.3293 197.455L38.9833 197.542Z" fill="#DD5366"/>
<path d="M29.5283 201.012H47.4774L45.2797 224.778H33.0084L29.5283 201.012Z" fill="#ED0A2A"/>
<path d="M27.6967 201.012H50.0416L48.7598 207.556H28.9791L27.6967 201.012Z" fill="#C40823"/>
<path d="M35.7653 147.755C35.7653 147.755 28.6275 146.685 28.9846 142.049C29.1896 139.267 28.4337 136.498 26.843 134.204C26.843 134.204 47.5435 135.987 38.6206 147.755H35.7653Z" fill="#31B057"/>
<path d="M31.8399 171.645C31.8399 171.645 19.3481 172.716 14.3512 179.136C14.3512 179.136 14.7083 163.444 31.8399 171.645Z" fill="#31B057"/>
<path d="M43.9745 186.623C43.9745 186.623 49.3279 185.197 50.0416 186.623C50.7553 188.049 45.4019 195.181 45.4019 195.181C45.4019 195.181 42.5466 192.329 40.0485 191.972C37.5504 191.615 31.4828 188.406 33.9809 186.978C36.479 185.549 43.9745 186.621 43.9745 186.621" fill="#31B057"/>
<path d="M33.5432 146.741C33.5432 146.741 29.7111 145.72 29.2007 146.741C28.6903 147.761 32.5213 152.866 32.5213 152.866C32.5213 152.866 34.5652 150.825 36.3535 150.569C38.1419 150.314 42.4844 148.017 40.6961 146.996C38.9077 145.975 33.5438 146.741 33.5438 146.741" fill="#31B057"/>
<path d="M41.8335 168.437C41.8335 168.437 51.4701 166.654 57.18 174.856C57.1795 174.856 53.9676 156.313 41.8335 168.437Z" fill="#31B057"/>
<path d="M32.5535 156.312C32.5535 156.312 22.2033 152.033 16.4928 160.235C16.4928 160.235 16.1357 154.886 20.0617 152.746C23.9878 150.607 29.3412 149.537 32.5535 156.312Z" fill="#31B057"/>
<path d="M44.3411 152.914C44.9331 153.329 45.6113 153.605 46.325 153.723C47.0388 153.84 47.7698 153.795 48.4637 153.591C50.893 152.909 53.0335 154.927 53.0335 154.927C53.0335 154.927 50.9102 149.237 44.3411 152.914Z" fill="#31B057"/>
<path d="M43.6174 179.492C43.6174 179.492 50.0416 176.639 53.6105 180.205C53.6105 180.205 46.832 170.22 43.6174 179.492Z" fill="#31B057"/>
<path d="M33.9809 191.615C33.9809 191.615 25.0608 190.9 24.3449 199.46C25.2887 198.708 26.3793 198.16 27.5469 197.853C28.7145 197.546 29.9334 197.486 31.1256 197.677C35.0517 198.391 38.6206 193.754 33.9809 191.615Z" fill="#31B057"/>
<g style="mix-blend-mode:multiply" opacity="0.34">
<path d="M163.888 167.033H99.8716C99.4691 167.032 99.0833 166.872 98.7986 166.588C98.5139 166.303 98.3534 165.918 98.3521 165.516C98.3534 165.114 98.5139 164.728 98.7986 164.444C99.0833 164.159 99.4691 163.999 99.8716 163.998H163.888C164.291 163.999 164.677 164.159 164.961 164.444C165.246 164.728 165.406 165.114 165.407 165.516C165.406 165.918 165.246 166.303 164.961 166.588C164.677 166.872 164.291 167.032 163.888 167.033Z" fill="#ED0A2A"/>
</g>
<g style="mix-blend-mode:multiply" opacity="0.34">
<path d="M163.888 172.691H99.8716C99.4691 172.689 99.0833 172.529 98.7986 172.245C98.5139 171.96 98.3534 171.575 98.3521 171.173C98.3534 170.771 98.5139 170.385 98.7986 170.101C99.0833 169.817 99.4691 169.656 99.8716 169.655H163.888C164.291 169.656 164.677 169.817 164.961 170.101C165.246 170.385 165.406 170.771 165.407 171.173C165.406 171.575 165.246 171.96 164.961 172.245C164.677 172.529 164.291 172.689 163.888 172.691Z" fill="#ED0A2A"/>
</g>
<g style="mix-blend-mode:multiply" opacity="0.34">
<path d="M122.383 178.072H99.8716C99.4691 178.071 99.0833 177.911 98.7986 177.626C98.5139 177.342 98.3534 176.957 98.3521 176.554C98.3533 176.152 98.5137 175.767 98.7984 175.482C99.0832 175.198 99.469 175.037 99.8716 175.036H122.382C122.785 175.037 123.17 175.198 123.455 175.482C123.739 175.767 123.9 176.152 123.901 176.554C123.9 176.956 123.74 177.341 123.455 177.626C123.171 177.91 122.785 178.071 122.383 178.072Z" fill="#ED0A2A"/>
</g>
<path d="M103.954 155.383C103.652 155.055 103.238 154.875 102.787 154.875C102.45 154.875 102.142 154.981 101.871 155.191C101.734 155.297 101.609 155.427 101.5 155.578C101.391 155.427 101.266 155.297 101.129 155.191C100.858 154.981 100.55 154.875 100.213 154.875C99.7624 154.875 99.348 155.055 99.0461 155.383C98.7477 155.707 98.5833 156.149 98.5833 156.628C98.5833 157.121 98.7672 157.573 99.1619 158.049C99.515 158.475 100.022 158.908 100.61 159.409C100.811 159.58 101.038 159.774 101.275 159.98C101.337 160.035 101.417 160.065 101.5 160.065C101.583 160.065 101.663 160.035 101.725 159.98C101.962 159.774 102.189 159.58 102.39 159.409C102.978 158.908 103.485 158.475 103.838 158.049C104.233 157.573 104.417 157.121 104.417 156.628C104.417 156.149 104.252 155.707 103.954 155.383Z" fill="#FEEBEE"/>
<path d="M112.954 155.383C112.652 155.055 112.238 154.875 111.787 154.875C111.45 154.875 111.142 154.981 110.871 155.191C110.734 155.297 110.609 155.427 110.5 155.578C110.391 155.427 110.266 155.297 110.129 155.191C109.858 154.981 109.55 154.875 109.213 154.875C108.762 154.875 108.348 155.055 108.046 155.383C107.748 155.707 107.583 156.149 107.583 156.628C107.583 157.121 107.767 157.573 108.162 158.049C108.515 158.475 109.022 158.908 109.61 159.409C109.811 159.58 110.038 159.774 110.275 159.98C110.337 160.035 110.417 160.065 110.5 160.065C110.583 160.065 110.663 160.035 110.725 159.98C110.962 159.774 111.189 159.58 111.39 159.409C111.978 158.908 112.485 158.475 112.838 158.049C113.233 157.573 113.417 157.121 113.417 156.628C113.417 156.149 113.252 155.707 112.954 155.383Z" fill="#FEEBEE"/>
<path d="M121.954 155.383C121.652 155.055 121.238 154.875 120.787 154.875C120.45 154.875 120.142 154.981 119.871 155.191C119.734 155.297 119.609 155.427 119.5 155.578C119.391 155.427 119.266 155.297 119.129 155.191C118.858 154.981 118.55 154.875 118.213 154.875C117.762 154.875 117.348 155.055 117.046 155.383C116.748 155.707 116.583 156.149 116.583 156.628C116.583 157.121 116.767 157.573 117.162 158.049C117.515 158.475 118.022 158.908 118.61 159.409C118.811 159.58 119.038 159.774 119.275 159.98C119.337 160.035 119.417 160.065 119.5 160.065C119.583 160.065 119.663 160.035 119.725 159.98C119.962 159.774 120.189 159.58 120.39 159.409C120.978 158.908 121.485 158.475 121.838 158.049C122.233 157.573 122.417 157.121 122.417 156.628C122.417 156.149 122.252 155.707 121.954 155.383Z" fill="#FEEBEE"/>
<path d="M130.954 155.383C130.652 155.055 130.238 154.875 129.787 154.875C129.45 154.875 129.142 154.981 128.871 155.191C128.734 155.297 128.609 155.427 128.5 155.578C128.391 155.427 128.266 155.297 128.129 155.191C127.858 154.981 127.55 154.875 127.213 154.875C126.762 154.875 126.348 155.055 126.046 155.383C125.748 155.707 125.583 156.149 125.583 156.628C125.583 157.121 125.767 157.573 126.162 158.049C126.515 158.475 127.022 158.908 127.61 159.409C127.811 159.58 128.038 159.774 128.275 159.98C128.337 160.035 128.417 160.065 128.5 160.065C128.583 160.065 128.663 160.035 128.725 159.98C128.962 159.774 129.189 159.58 129.39 159.409C129.978 158.908 130.485 158.475 130.838 158.049C131.233 157.573 131.417 157.121 131.417 156.628C131.417 156.149 131.252 155.707 130.954 155.383Z" fill="#FEEBEE"/>
<path d="M139.954 155.383C139.652 155.055 139.238 154.875 138.787 154.875C138.45 154.875 138.142 154.981 137.871 155.191C137.734 155.297 137.609 155.427 137.5 155.578C137.391 155.427 137.266 155.297 137.129 155.191C136.858 154.981 136.55 154.875 136.213 154.875C135.762 154.875 135.348 155.055 135.046 155.383C134.748 155.707 134.583 156.149 134.583 156.628C134.583 157.121 134.767 157.573 135.162 158.049C135.515 158.475 136.022 158.908 136.61 159.409C136.811 159.58 137.038 159.774 137.275 159.98C137.337 160.035 137.417 160.065 137.5 160.065C137.583 160.065 137.663 160.035 137.725 159.98C137.962 159.774 138.189 159.58 138.39 159.409C138.978 158.908 139.485 158.475 139.838 158.049C140.233 157.573 140.417 157.121 140.417 156.628C140.417 156.149 140.252 155.707 139.954 155.383Z" fill="#FEEBEE"/>
<g clip-path="url(#clip1)">
<path d="M247.827 171.268C245.362 166.569 241.15 163.216 235.967 161.827C232.093 160.789 228.216 161.063 224.445 162.642C222.542 163.439 220.714 164.548 218.988 165.951C218.196 163.873 217.167 161.998 215.917 160.357C213.441 157.104 210.221 154.928 206.347 153.89C201.163 152.501 195.839 153.299 191.355 156.137C186.924 158.941 183.669 163.523 182.191 169.038C180.67 174.715 181.393 180.478 184.467 187.175C187.216 193.166 191.722 199.707 196.94 207.282C198.722 209.868 200.741 212.8 202.822 215.905C203.372 216.726 204.2 217.319 205.156 217.575C206.111 217.831 207.126 217.732 208.011 217.296C211.365 215.647 214.582 214.117 217.42 212.767C225.725 208.817 232.897 205.406 238.274 201.592C244.284 197.329 247.791 192.7 249.312 187.023C250.79 181.508 250.262 175.913 247.827 171.268Z" fill="#ED0A2A"/>
</g>
</g>
<defs>
<linearGradient id="paint0_linear" x1="17.2418" y1="51.3201" x2="155.364" y2="51.3201" gradientUnits="userSpaceOnUse">
<stop offset="0.002" stop-color="#FB9DAA"/>
<stop offset="1" stop-color="#ED0A2A"/>
</linearGradient>
<linearGradient id="paint1_linear" x1="52.8642" y1="-24.1226" x2="139.608" y2="-52.9278" gradientUnits="userSpaceOnUse">
<stop offset="0.002" stop-color="#FB9DAA"/>
<stop offset="1" stop-color="#ED0A2A"/>
</linearGradient>
<linearGradient id="paint2_linear" x1="39.2064" y1="235.393" x2="42.2702" y2="219.011" gradientUnits="userSpaceOnUse">
<stop offset="0.002" stop-color="#FB9DAA"/>
<stop offset="1" stop-color="#ED0A2A"/>
</linearGradient>
<linearGradient id="paint3_linear" x1="-97.0055" y1="100.527" x2="-80.3271" y2="100.527" gradientUnits="userSpaceOnUse">
<stop offset="0.002" stop-color="#FB9DAA"/>
<stop offset="1" stop-color="#ED0A2A"/>
</linearGradient>
<linearGradient id="paint4_linear" x1="-275.173" y1="-7.89268" x2="-261.585" y2="-7.89268" gradientUnits="userSpaceOnUse">
<stop offset="0.002" stop-color="#FB9DAA"/>
<stop offset="1" stop-color="#ED0A2A"/>
</linearGradient>
<clipPath id="clip0">
<rect width="253" height="242" fill="white"/>
</clipPath>
<clipPath id="clip1">
<rect width="83.3864" height="83.3864" fill="white" transform="translate(183.582 137) rotate(15)"/>
</clipPath>
</defs>
</svg>
