<svg width="32" height="32" viewBox="0 0 32 32" fill="none" xmlns="http://www.w3.org/2000/svg">
<path d="M14.0199 1.83876C13.5323 1.90204 13.1265 1.99137 12.6799 2.13654C10.506 2.85494 8.73051 4.68258 7.87066 7.08346C7.70316 7.55247 7.57288 7.97309 7.5431 8.16292C7.49471 8.46443 7.50216 8.46071 7.00337 8.46071C6.7577 8.46071 6.55669 8.46815 6.55669 8.4756C6.55669 8.48676 6.60881 8.65055 6.67581 8.84038C6.79492 9.17911 6.79492 9.20144 6.79864 9.85657C6.79864 10.5154 6.79492 10.534 6.67581 10.9025C6.42269 11.6805 5.90902 12.3542 5.25017 12.7823C4.91516 12.9982 4.9375 12.961 5.01194 13.1917C5.11617 13.497 5.10128 13.9064 4.98217 14.167C4.86305 14.4313 4.60622 14.7067 4.35682 14.8444C4.10743 14.9784 3.61236 15.0194 3.33319 14.9226C3.23641 14.8891 3.1508 14.8668 3.14708 14.8742C3.13591 14.8854 3.35553 17.1336 3.44858 17.9712C3.50442 18.4923 3.92131 22.6501 3.98459 23.3871C4.07765 24.3884 4.17815 25.252 4.23399 25.4716C4.45732 26.3761 4.91144 27.2955 5.36556 27.7719C5.56657 27.9841 5.92391 28.2112 6.1398 28.267C6.35569 28.3191 19.6703 28.3601 21.8404 28.3117L23.2177 28.2819L23.4596 28.1628C24.085 27.8538 24.6693 26.9605 25.0341 25.7582C25.1384 25.4195 25.1756 25.1924 25.2389 24.541C25.2835 24.1018 25.3431 23.5062 25.3729 23.2196C25.425 22.7431 25.5292 21.7009 25.6148 20.8224C25.6334 20.6251 25.7265 19.7206 25.8233 18.8087C26.0392 16.7279 26.0392 16.7242 26.0057 16.7242C25.9796 16.7242 25.1607 17.2974 24.647 17.6734C24.3306 17.9042 23.7202 18.3397 22.9348 18.8906C22.637 19.099 22.0377 19.5271 21.6022 19.8435C21.163 20.1561 20.7796 20.4241 20.7461 20.439C20.7126 20.4502 20.6679 20.48 20.6456 20.506C20.6121 20.5433 20.117 20.9006 18.71 21.8982C18.5052 22.0433 18.1293 22.3113 17.8725 22.4937C17.6156 22.6761 17.3588 22.8585 17.2955 22.9032C17.2359 22.9441 17.0498 23.0781 16.886 23.201C16.7223 23.3238 16.5697 23.4243 16.5436 23.4243C16.5213 23.4243 16.4952 23.4392 16.4878 23.4541C16.484 23.469 16.3091 23.603 16.1044 23.7519C15.8996 23.897 15.6986 24.0459 15.6577 24.0794C15.5497 24.165 15.345 24.2655 15.1738 24.3177C15.0584 24.3512 14.984 24.3512 14.8648 24.3214C14.7271 24.2842 14.1427 23.9082 13.5174 23.4578C13.4057 23.3759 13.2456 23.2642 13.1638 23.2047C13.0819 23.1489 12.7804 22.933 12.4937 22.732C11.8088 22.2443 11.727 22.1848 10.9341 21.6264C10.5656 21.3659 10.2269 21.1239 10.1859 21.0942C10.145 21.0644 9.94398 20.9229 9.73925 20.7778C9.53452 20.6326 9.35958 20.506 9.34841 20.4911C9.33724 20.4763 9.28885 20.4428 9.23674 20.413C9.18463 20.3869 8.90546 20.1934 8.6114 19.9849C7.5096 19.207 7.45004 19.1437 7.45004 18.7863C7.45004 18.6114 7.47238 18.5667 7.75155 18.1535C8.32106 17.3198 8.36945 17.2676 8.6114 17.1858C8.85335 17.1076 9.04691 17.1597 9.3633 17.3905C9.49358 17.4835 9.69086 17.625 9.79881 17.7032C9.91048 17.7776 10.2343 18.0084 10.5209 18.2131C10.8075 18.4178 11.1612 18.6672 11.3026 18.7677C11.4478 18.8645 11.8721 19.166 12.2518 19.434C13.1712 20.0854 13.0484 19.9961 14.0757 20.7256C14.5782 21.083 15.0063 21.377 15.0286 21.377C15.0621 21.377 15.8066 20.8634 16.5138 20.3571C16.5548 20.3274 16.7297 20.2008 16.9047 20.078C17.0796 19.9551 17.3067 19.7914 17.4109 19.7132C17.5188 19.635 17.6342 19.5494 17.6714 19.5233C17.8315 19.4154 18.8998 18.6598 18.937 18.6263C18.978 18.5928 19.9011 17.9377 20.0425 17.8409C20.0872 17.8111 20.2175 17.7218 20.3292 17.6361C20.4446 17.5543 20.5637 17.4686 20.5972 17.45C20.6828 17.3979 21.8032 16.5902 22.0265 16.4227C22.1307 16.3408 22.2275 16.2775 22.2424 16.2775C22.2573 16.2775 22.2871 16.2589 22.3131 16.2366C22.3392 16.2142 22.7114 15.9462 23.1395 15.6447C23.5713 15.3395 23.9398 15.0752 23.9584 15.0566C23.9807 15.038 24.0477 14.9933 24.1073 14.9524C24.1706 14.9152 24.2376 14.8705 24.2562 14.8519C24.4907 14.6695 24.7475 14.4908 24.7885 14.4908C24.8108 14.4908 24.8331 14.4759 24.8331 14.461C24.8331 14.4461 25.0006 14.3159 25.2091 14.1744C25.4175 14.0293 25.6036 13.8952 25.626 13.8766C25.652 13.8543 25.8195 13.7315 25.9982 13.6012C26.1806 13.4709 26.3407 13.3295 26.3593 13.2848C26.3742 13.2401 26.4151 12.9051 26.4486 12.5366C26.4821 12.1681 26.5342 11.647 26.564 11.3827C26.6347 10.7722 26.8432 8.65799 26.8432 8.54632V8.46071L24.4162 8.45326L21.9856 8.4421L21.9074 8.08848C21.632 6.90107 21.0699 5.69505 20.3403 4.7347C18.9221 2.86611 16.8228 1.7792 14.6899 1.80153C14.4666 1.80526 14.1651 1.82015 14.0199 1.83876ZM15.3599 3.25323C16.6292 3.40584 17.6938 3.95302 18.6802 4.96548C19.0599 5.35632 19.2609 5.60571 19.5177 6.00772C19.942 6.66656 20.4371 7.81303 20.5004 8.28948L20.5264 8.46071L14.742 8.45326L8.95757 8.4421L8.96874 8.31926C8.97618 8.1927 9.1958 7.50408 9.30002 7.2733C9.6648 6.4544 9.85092 6.12683 10.2753 5.55732C10.5395 5.2037 11.0048 4.71609 11.2766 4.50764C11.3919 4.4183 11.5111 4.32897 11.5334 4.30291C11.7716 4.07957 12.6166 3.64034 13.1638 3.45423C13.763 3.2495 14.6564 3.16761 15.3599 3.25323ZM10.6884 10.9807C10.8373 11.0812 10.9081 11.1817 10.9527 11.3418C11.0086 11.5502 10.9676 11.9373 10.8745 12.0899C10.7294 12.3282 10.6959 12.3319 9.19952 12.3319C7.88555 12.3319 7.84833 12.3282 7.70688 12.25C7.49471 12.1309 7.43888 11.9857 7.45749 11.5688C7.46865 11.2413 7.4761 11.2115 7.58032 11.1035C7.6436 11.0365 7.72549 10.9695 7.76644 10.9546C7.80738 10.936 8.46251 10.9211 9.21813 10.9211C10.4577 10.9174 10.6065 10.9249 10.6884 10.9807ZM21.7809 10.9993C21.9632 11.1259 22.0414 11.3008 22.0414 11.5874C22.0414 11.8852 22.0042 12.0304 21.8888 12.1532C21.7213 12.3319 21.7139 12.3319 20.2622 12.3319C18.8961 12.3319 18.8886 12.3319 18.7621 12.2463C18.576 12.1234 18.5052 11.9559 18.5052 11.6247C18.5052 11.2934 18.576 11.1259 18.7621 11.003C18.8886 10.9174 18.8961 10.9174 20.2733 10.9174C21.6469 10.9174 21.658 10.9174 21.7809 10.9993Z" fill="#A3A3A3"/>
<g clip-path="url(#clip0)">
<path d="M25 31C28.3137 31 31 28.3137 31 25C31 21.6863 28.3137 19 25 19C21.6863 19 19 21.6863 19 25C19 28.3137 21.6863 31 25 31Z" fill="#CCCCCC"/>
<path d="M28.2625 23.2749L24.3625 27.5499C24.1 27.8499 23.65 27.8499 23.3875 27.5499L21.7375 25.7124C21.5125 25.4499 21.5125 25.0374 21.775 24.7749C22.0375 24.5499 22.45 24.5499 22.7125 24.8124L23.875 26.1249L27.2875 22.4124C27.55 22.1499 27.9625 22.1124 28.225 22.3749C28.4875 22.5999 28.4875 23.0499 28.2625 23.2749Z" fill="white"/>
</g>
<defs>
<clipPath id="clip0">
<rect width="12" height="12" fill="white" transform="translate(19 19)"/>
</clipPath>
</defs>
</svg>
