<svg xmlns="http://www.w3.org/2000/svg" width="98.165" height="85.709" viewBox="0 0 98.165 85.709"><defs><style>.a{fill:#eb2843;}</style></defs><g transform="translate(0 -31.05)"><g transform="translate(0 31.05)"><path class="a" d="M17.308,33.588,2.736,58.521l1.781,9.066,9.066,3.886,8.257-3.886,4.21-7.447,5.343,9.228,6.313,2.1,7.286-3.886,4.371-7.447,4.21,8.419,8.095,2.914,6.152-2.914,5.666-9.229,2.105,8.257L81.1,70.5,91.621,68.56l3.562-6.152V58.521L81.1,33.588Z" transform="translate(0 -31.05)"/><path d="M268.158,263.75H254.819a6.626,6.626,0,0,0-6.619,6.619V280.6a6.626,6.626,0,0,0,6.619,6.619h13.339a6.626,6.626,0,0,0,6.619-6.619v-10.23A6.626,6.626,0,0,0,268.158,263.75Zm1.805,16.849a1.811,1.811,0,0,1-1.805,1.805H254.819a1.811,1.811,0,0,1-1.805-1.805v-10.23a1.811,1.811,0,0,1,1.805-1.805h13.339a1.811,1.811,0,0,1,1.805,1.805Z" transform="translate(-198.415 -217.074)"/><path d="M98.165,59.132a2.234,2.234,0,0,0-.321-1.183l-14.6-25.675a2.42,2.42,0,0,0-2.086-1.224H16.989A2.379,2.379,0,0,0,14.9,32.274L.321,57.948A2.433,2.433,0,0,0,0,59.132,14.08,14.08,0,0,0,8.424,72.009v42.343a2.414,2.414,0,0,0,2.407,2.407H87.314a2.414,2.414,0,0,0,2.407-2.407V72.31a1.06,1.06,0,0,0-.02-.261A14.12,14.12,0,0,0,98.165,59.132ZM18.393,35.884H79.752L91.165,55.962H7ZM69.863,60.756a9.251,9.251,0,0,1-18.213,0Zm-23.328,0a9.263,9.263,0,0,1-18.233,0Zm-41.561,0H23.207a9.263,9.263,0,0,1-18.233,0Zm35.463,51.189H26.6V85.969a3.428,3.428,0,0,1,3.43-3.43h7a3.428,3.428,0,0,1,3.43,3.43v25.975Zm44.469,0H45.251V85.969a8.257,8.257,0,0,0-8.244-8.244h-7a8.257,8.257,0,0,0-8.244,8.244v26H13.238V73.192c.281.02.562.02.842.02a14.063,14.063,0,0,0,11.674-6.218,14.067,14.067,0,0,0,23.348,0,14.03,14.03,0,0,0,23.308,0,14.063,14.063,0,0,0,11.674,6.218c.281,0,.542-.02.822-.02v38.753ZM84.084,68.4a9.246,9.246,0,0,1-9.106-7.622H93.211A9.3,9.3,0,0,1,84.084,68.4Z" transform="translate(0 -31.05)"/></g></g></svg>