<svg xmlns="http://www.w3.org/2000/svg" width="20" height="20" viewBox="0 0 20 20"><defs><style>.a{fill:#d4dfe6;}.b{fill:none;}</style></defs><g transform="translate(-137 -218)"><path class="a" d="M15.658,6.181a.833.833,0,0,0-.718-.573L10.408,5.2,8.617,1A.835.835,0,0,0,7.082,1L5.291,5.2.758,5.608a.835.835,0,0,0-.474,1.46l3.426,3L2.7,14.52a.834.834,0,0,0,1.242.9l3.908-2.337,3.907,2.337A.835.835,0,0,0,13,14.52l-1.01-4.449,3.426-3a.835.835,0,0,0,.243-.887Zm-7.733,6.86" transform="translate(139 219.504)"/><rect class="b" width="20" height="20" transform="translate(137 218)"/></g></svg>