<svg xmlns="http://www.w3.org/2000/svg" width="50" height="50" viewBox="0 0 50 50">
  <g id="statusbelanja" transform="translate(-562 485)">
    <rect id="Rectangle_368" data-name="Rectangle 368" width="50" height="50" transform="translate(562 -485)" fill="none"/>
    <g id="parcel" transform="translate(567 -477.5)">
      <path id="Path_262" data-name="Path 262" d="M38.076,1.764H10.9a2.373,2.373,0,0,0-2.37,2.37v3.78L1.348.731A.79.79,0,1,0,.231,1.849l9.3,9.3L4.62,16.07,1.348,12.8A.79.79,0,1,0,.231,13.916L6.8,20.482v.711A8.159,8.159,0,0,0,8.532,26.21v5.1a2.372,2.372,0,0,0,2.37,2.37H38.076a2.372,2.372,0,0,0,2.37-2.37V13.3a.79.79,0,1,0-1.58,0V31.309a.791.791,0,0,1-.79.79H21.584c.033-.029.065-.06.1-.091a2.265,2.265,0,0,0,.468-.681,2.282,2.282,0,0,0,3.061-3.059,2.282,2.282,0,0,0,.68-3.7L23.17,21.851a2.513,2.513,0,0,0,2.213-1.021l.026-.035a2.565,2.565,0,0,0-.533-3.564c-.708-.526-1.666-1.241-2.849-2.126a9.719,9.719,0,0,0-5.786-1.924h-.01l-2.432,0L10.111,9.494V4.134a.791.791,0,0,1,.79-.79h8.247V11.4a.79.79,0,0,0,1.349.559l1.717-1.717,1.717,1.716a.79.79,0,0,0,1.117,0l1.717-1.716,1.716,1.716a.79.79,0,0,0,1.349-.559V3.344h8.247a.791.791,0,0,1,.79.79V6.977a.79.79,0,1,0,1.58,0V4.134a2.372,2.372,0,0,0-2.37-2.37ZM10.112,31.309V27.873l2.581,2.581h0L14.337,32.1H10.9a.791.791,0,0,1-.79-.79Zm6.122-16.55h.009a8.129,8.129,0,0,1,4.839,1.61c1.184.886,2.144,1.6,2.853,2.129a.981.981,0,0,1,.2,1.363l-.026.035a.932.932,0,0,1-1.256.233l-3.032-1.954a.916.916,0,0,0-1.143,1.417l6.1,6.1a.7.7,0,0,1-.929,1.046l-3.06-3.06a.787.787,0,0,0-.066-.059l-.313-.313a.79.79,0,1,0-1.117,1.117L22.666,27.8c.035.035.071.068.108.1l.891.891a.7.7,0,1,1-.991.991l-.892-.892c-.032-.036-.065-.073-.1-.108l-3-3a.843.843,0,0,0-.066-.059l-.313-.313a.79.79,0,0,0-1.117,1.117l3.435,3.435a.7.7,0,0,1-1.046.93l-1-1c-.032-.037-.066-.073-.1-.108l-1.9-1.9a.843.843,0,0,0-.066-.059l-.313-.313a.79.79,0,0,0-1.117,1.117l2.333,2.333a.7.7,0,0,1-1.046.929l-4.138-4.138h0l-1.943-1.942A6.561,6.561,0,0,1,8.377,21.2l0-1.148,5.285-5.285ZM7.371,18.821,5.737,17.187l4.916-4.917L12.287,13.9ZM28.249,9.493l-.927-.927a.79.79,0,0,0-1.117,0l-1.717,1.717L22.772,8.566a.79.79,0,0,0-1.117,0l-.927.927V3.344h7.521Zm0,0" transform="translate(0 0)" fill="#fff"/>
      <path id="Path_263" data-name="Path 263" d="M379.846,299.656H374.79a.79.79,0,1,0,0,1.58h5.056a.79.79,0,1,0,0-1.58Zm0,0" transform="translate(-344.455 -275.524)" fill="#fff"/>
      <path id="Path_264" data-name="Path 264" d="M398.881,340.9h-3.423a.79.79,0,0,0,0,1.58h3.423a.79.79,0,1,0,0-1.58Zm0,0" transform="translate(-363.49 -313.511)" fill="#fff"/>
      <path id="Path_265" data-name="Path 265" d="M355.458,340.9a.79.79,0,1,0,.559.231A.794.794,0,0,0,355.458,340.9Zm0,0" transform="translate(-326.65 -313.508)" fill="#fff"/>
      <path id="Path_266" data-name="Path 266" d="M492.79,112.488a.79.79,0,1,0,.559.231A.8.8,0,0,0,492.79,112.488Zm0,0" transform="translate(-453.134 -103.141)" fill="#fff"/>
    </g>
  </g>
</svg>
