<svg xmlns="http://www.w3.org/2000/svg" width="50" height="50" viewBox="0 0 50 50">
  <g id="statustoko" transform="translate(-501 486)">
    <rect id="Rectangle_367" data-name="Rectangle 367" width="50" height="50" transform="translate(501 -486)" fill="none"/>
    <g id="cafe_1_" data-name="cafe (1)" transform="translate(508 -478)">
      <path id="Path_259" data-name="Path 259" d="M35.391,10.7V9.489c0-.006,0-.013,0-.02s0-.029,0-.044,0-.018,0-.028,0-.026-.006-.04l-.007-.031c0-.012-.006-.023-.009-.034s-.008-.023-.012-.034l-.011-.029c-.005-.013-.011-.025-.017-.037l-.012-.025c-.007-.013-.015-.026-.022-.038l-.01-.017-3.813-5.86A1.8,1.8,0,0,0,30.414,0H11.889a.691.691,0,0,0,0,1.382H30.414a.415.415,0,0,1,0,.829H4.977a.415.415,0,0,1,0-.829H7.122A.691.691,0,0,0,7.122,0H4.977A1.8,1.8,0,0,0,3.924,3.252L.112,9.112.1,9.129c-.008.013-.015.025-.022.038l-.012.025c-.006.012-.012.024-.016.036s-.007.02-.011.03l-.011.034c0,.012-.006.023-.009.035s0,.02-.007.031,0,.026-.006.04,0,.018,0,.027,0,.03,0,.045,0,.013,0,.02V10.7a3.125,3.125,0,0,0,2.429,3.042V31.8H.691a.691.691,0,0,0,0,1.382H34.7a.691.691,0,0,0,0-1.382H32.961V13.746A3.125,3.125,0,0,0,35.391,10.7Zm-3.12,1.738A1.74,1.74,0,0,1,30.532,10.7V9.489h0c0-.022,0-.043,0-.065a.026.026,0,0,0,0,0c0-.016,0-.033-.007-.049s0-.014,0-.021l0-.018c0-.017-.008-.034-.013-.05v0c-.007-.021-.015-.042-.023-.063h0l-2.438-5.62h2l3.969,6.1V10.7a1.74,1.74,0,0,1-1.738,1.738ZM6.241,9.633,8.86,3.594h2.119L9.732,9.343a0,0,0,0,0,0,0c0,.015-.006.031-.008.047s0,.016,0,.024,0,.019,0,.028,0,.029,0,.044V10.7a1.738,1.738,0,0,1-3.476,0Zm4.858-.07,1.295-5.969h2.181V10.7a1.738,1.738,0,0,1-3.476,0Zm4.858-5.969h3.476V10.7a1.738,1.738,0,1,1-3.476,0Zm4.859,0H23l1.295,5.969V10.7a1.738,1.738,0,0,1-3.476,0V3.594Zm4.858,5.893c0-.015,0-.029,0-.044s0-.018,0-.028,0-.016,0-.025,0-.031-.008-.046a0,0,0,0,1,0,0L24.411,3.594H26.53L29.15,9.633V10.7a1.738,1.738,0,0,1-3.476,0V9.489a.007.007,0,0,0,0,0ZM1.382,10.7V9.694l3.969-6.1h2L4.915,9.214h0c-.009.02-.016.041-.023.063v0c-.005.016-.009.033-.013.05l0,.018c0,.007,0,.014,0,.021s-.006.033-.007.049a.028.028,0,0,0,0,0c0,.022,0,.043,0,.065h0V10.7a1.738,1.738,0,0,1-3.476,0Zm2.429,3.042a3.126,3.126,0,0,0,1.738-1.087,3.116,3.116,0,0,0,4.859,0,3.115,3.115,0,0,0,4.858,0,3.115,3.115,0,0,0,4.858,0,3.115,3.115,0,0,0,4.858,0,3.115,3.115,0,0,0,4.858,0,3.126,3.126,0,0,0,1.738,1.087V31.8H15.562V15.88a.691.691,0,0,0-.691-.691H5.194a.691.691,0,0,0-.691.691V31.8H3.812ZM14.18,21.895h-.763a.691.691,0,0,0,0,1.382h.763v8.5H5.885V16.571H14.18Zm0,0" transform="translate(0)" fill="#fff"/>
      <path id="Path_260" data-name="Path 260" d="M155.836,318.144h.016a.691.691,0,1,0,0-1.382h-.016a.691.691,0,1,0,0,1.382Zm0,0" transform="translate(-144.421 -294.867)" fill="#fff"/>
      <path id="Path_261" data-name="Path 261" d="M122.457,1.382h.019a.691.691,0,0,0,0-1.382h-.019a.691.691,0,0,0,0,1.382Zm0,0" transform="translate(-113.349 0)" fill="#fff"/>
    </g>
  </g>
</svg>
