<svg xmlns="http://www.w3.org/2000/svg" width="40" height="40" viewBox="0 0 40 40"><g transform="translate(-40 -479)"><g transform="translate(-0.894 -0.27)" style="isolation:isolate"><path d="M441.407,483.408l-4.562,7.687.812,2.312,2.687,1.25,2.562-1.25.625-1.125,2.687,2.375h1.25l.937-.375,2.375-2,2.312,2.375,1.437-.375,1.687-.375,1.687-1.625,1.437,2,1.937.625,1.562-.625,1.625-2v-1.187l-4.125-7.687Z" transform="translate(-390.119 3.561)" fill="#eb2843"/><g transform="translate(45.894 486.27)" style="isolation:isolate"><g transform="translate(0 0)"><path d="M254.173,263.75h-3.992a1.983,1.983,0,0,0-1.981,1.981v3.062a1.983,1.983,0,0,0,1.981,1.981h3.992a1.983,1.983,0,0,0,1.981-1.981v-3.062A1.983,1.983,0,0,0,254.173,263.75Zm.54,5.043a.542.542,0,0,1-.54.54h-3.992a.542.542,0,0,1-.54-.54v-3.062a.542.542,0,0,1,.54-.54h3.992a.542.542,0,0,1,.54.54Z" transform="translate(-233.3 -249.781)" fill="#405260"/><path d="M29.379,39.454a.669.669,0,0,0-.1-.354l-4.37-7.684a.724.724,0,0,0-.624-.366H5.085a.712.712,0,0,0-.624.366L.1,39.1a.728.728,0,0,0-.1.354,4.214,4.214,0,0,0,2.521,3.854V55.981a.722.722,0,0,0,.72.72h22.89a.722.722,0,0,0,.72-.72V43.4a.317.317,0,0,0-.006-.078A4.226,4.226,0,0,0,29.379,39.454ZM5.5,32.5H23.868l3.416,6.009H2.1Zm15.4,7.444a2.769,2.769,0,0,1-5.451,0Zm-6.982,0a2.772,2.772,0,0,1-5.457,0Zm-12.438,0H6.946a2.772,2.772,0,0,1-5.457,0ZM12.1,55.26H7.96V47.486A1.026,1.026,0,0,1,8.987,46.46h2.1a1.026,1.026,0,0,1,1.027,1.027V55.26Zm13.309,0H13.543V47.486a2.471,2.471,0,0,0-2.467-2.467h-2.1a2.471,2.471,0,0,0-2.467,2.467v7.78H3.962v-11.6c.084.006.168.006.252.006a4.209,4.209,0,0,0,3.494-1.861,4.21,4.21,0,0,0,6.988,0,4.2,4.2,0,0,0,6.976,0,4.209,4.209,0,0,0,3.494,1.861c.084,0,.162-.006.246-.006v11.6Zm-.246-13.033a2.767,2.767,0,0,1-2.725-2.281H27.9A2.784,2.784,0,0,1,25.165,42.228Z" transform="translate(0 -31.05)" fill="#405260"/></g></g></g><rect width="40" height="40" transform="translate(40 479)" fill="none"/></g></svg>